<svg width="1141" height="852" viewBox="0 0 1141 852" fill="none" xmlns="http://www.w3.org/2000/svg">
<path d="M71.3258 149.789C139.905 150.751 210.773 149.954 279.511 149.837C288.1 166.421 297.533 182.76 306 199.446L295.949 199.433C296.356 218.59 296.023 239.099 296.026 258.375L295.968 369.284L356.914 369.255C365.7 369.24 381.882 368.413 389.878 369.82C418.472 374.854 447.409 384.354 475.919 389.329C476.479 409.73 475.956 432.705 475.961 453.333L475.925 578.271L535.004 578.382C533.074 563.044 531.279 547.691 529.62 532.323C527.667 514.991 525.198 495.196 524.951 477.864C524.545 449.475 528.672 419.179 535.812 391.724C539.615 377.102 545.217 363.442 549.688 349.109C548.98 347.58 547.4 345.653 546.522 343.576C543.688 336.88 544.762 329.512 545.361 322.488C543.439 319.961 541.565 317.051 539.781 314.395C536.996 316.091 535.827 316.658 532.807 317.906C533.291 321.284 534.119 325.24 534.333 328.63C535.016 339.452 541.702 353.048 523.83 347.96C513.181 344.929 501.018 343.5 491.222 338.341C488.67 336.998 487.764 329.962 487.264 327.181C465.252 322.478 462.554 308.046 474.973 290.819C473.585 281.701 471.884 278.428 480.158 272.316L476.839 247.906L476.498 246.596C476.55 244.249 476.679 240.216 479.239 239.332C485.977 237.006 498.928 242.025 505.781 243.953L506.824 244.48C509.302 244.257 517.56 246.28 519.868 248.312C524.785 252.64 524.867 255.862 525.567 261.742C537.546 255.425 553.023 247.526 565.319 241.935C571.307 240.266 583.375 239.78 589.887 239.372L589.982 239.913C590.584 241.935 590.751 242.722 591.748 244.544L592.35 244.485C592.745 240.461 589.497 227.17 588.433 222.427C595.102 221.293 597.085 220.056 602.873 216.398C604.979 216.576 607.598 216.874 609.665 216.91C610.528 221.54 613.436 243.11 615.42 244.949L616.378 243.31C624.5 244.152 640.668 253.822 644.54 254.02C678.384 269.33 645.882 329.259 632.824 349.497C638.373 371.46 644.518 389.941 648.785 412.513C657.119 456.603 653.637 493.483 647.699 537.215C645.999 549.701 644.98 566.202 642.852 578.254L677.187 578.249C681.861 578.232 695.683 577.93 699.22 578.834C705.633 580.475 718.435 587.187 724.775 590.261C734.107 594.798 744.319 599.401 753.427 604.171L731.856 383.879L731.226 383.608C728.446 384.878 725.806 386.286 723.098 387.701C718.992 379.656 714.385 368.619 710.613 360.322C706.981 352.326 695.527 330.264 696.674 322.837C701.961 288.608 707.404 254.311 713.588 220.236C716.229 205.677 737.806 207.328 748.67 204.944C756.413 203.297 764.965 203.218 772.336 200.956L773.528 201.069C773.684 199.437 773.823 197.802 773.957 196.168C785.205 193.305 788.576 192.78 795.773 182.904C796.408 186.77 797.879 197.902 798.771 200.979L800.353 200.253C814.698 201.831 829.779 205.487 844.114 207.146C862.504 209.276 863.557 214.759 867.613 230.769L867.986 231.492C870.164 231.924 871.385 231.925 873.557 231.983C871.279 232.102 870.053 231.785 868.343 232.869C869.112 239.011 871.814 247.175 873.178 253.445C877.045 271.214 883.608 290.791 887.335 308.32C889.719 316.706 890.627 320.228 888.137 328.651C885.97 336.012 871.502 381.287 871.557 386.063C874.053 383.71 882.014 374.503 884.588 374.23L888.683 374.449L909.051 374.421L922.917 374.4L943.23 374.392C945.999 374.42 948.299 374.338 951.068 374.186L952.545 374.459C959.843 374.254 967.141 374.19 974.434 374.268C981.743 381.647 989.754 391.168 996.751 399.056C1009.93 413.987 1023.17 428.851 1036.5 443.649C1040.6 448.197 1051.35 460.929 1055.12 464.307C1056.2 465.985 1055.73 471.082 1055.73 473.493L1049.21 473.495L1049.19 560.913C1043.81 560.924 1018.12 561.259 1014.74 560.45C1012.72 559.624 995.465 559.613 993.676 560.506C985.871 561.61 959.341 560.879 950.049 560.874L858.448 560.89C857.936 581.641 856.939 604.26 856.933 624.916C883.028 616.558 909.068 608.038 935.057 599.35C949.107 594.658 962.489 590.317 976.166 584.576C986.033 580.436 990.696 567.859 992.4 567.084C993.609 570.632 985.999 580.168 983.019 582.121C970.779 590.166 954.082 594.742 940.238 599.378L887.775 616.708C878.025 619.917 866.588 623.973 856.827 626.674L856.309 652.764L979.331 711.427C998.172 720.315 1016.96 729.326 1035.68 738.455C1039.19 740.195 1049.88 744.436 1051.96 747.064C1048.39 747.058 1036.42 740.486 1032.31 738.538L988.579 717.688L856.27 654.694L855.34 697.869C854.727 723.189 857.513 727.033 829.568 726.52C829.284 733.511 828.52 745.156 819.049 746.411C806.726 748.04 793.222 747.136 780.742 747.298C777.701 747.298 771.662 745.401 769.734 743.292C768.174 741.59 766.664 736.039 766.38 733.695C764.648 719.306 763.322 704.598 761.906 690.18L753.611 605.945C744.658 601.437 705.666 581.697 698.524 580.324C692.173 579.102 684.657 579.816 678.195 579.839L642.506 579.978L631.765 672.197C629.971 687.156 628.573 702.305 626.033 717.13C624.01 728.953 615.91 731.848 605.191 730.643C604.489 730.565 603.787 730.476 603.091 730.387C603.737 746.182 602.495 753.765 584.015 753.374C570.689 753.09 555.791 756.337 553.135 738.527C546.876 696.53 544.737 653.149 538.558 611.263C517.47 624.302 493.851 637.61 472.325 650.158L365.71 712.437L320.993 738.678C315.256 742.037 296.977 753.313 291.919 754.49C297.942 749.653 315.505 739.9 322.694 735.704L380.097 702.215L485.289 640.656C502.213 630.775 521.263 619.018 538.354 609.868C537.323 599.886 536.241 589.91 535.107 579.934C526.4 580.575 512.306 580.157 503.173 580.151L444.693 580.123L275.076 580.084C257.299 626.065 230.42 667.974 196.056 703.287C162.754 670.11 133.981 623.672 117.178 579.973C104.29 580.151 91.4002 580.224 78.5114 580.19C71.6701 580.201 61.6705 580.514 55.0338 580.017L55.0939 199.437L44.4028 199.417C52.4289 186.488 63.7368 163.865 71.3258 149.789Z" fill="white" fill-opacity="0.74"/>
<path d="M56.7534 199.448L294.5 199.455C293.709 255.487 294.383 313.111 294.376 369.261L192.3 369.217L192.338 438.438C185.588 438.87 180.202 439.769 173.544 441.146C174.173 438.066 174.068 427.287 174.077 423.675L174.015 389.295L80.5203 389.356C80.0005 411.717 80.371 435.528 80.3688 457.995L80.415 578.327L56.6353 578.288L56.7534 199.448Z" fill="#0065F4"/>
<path d="M80.4032 224.348L132.525 224.34C132.783 266.773 133.107 311.604 132.468 353.934L80.4004 354.068L80.4032 224.348Z" fill="white" fill-opacity="0.74"/>
<path d="M82.028 226.053L130.851 226.052C130.922 231.288 130.93 236.632 130.871 241.868C130.458 278.67 131.502 315.74 130.779 352.515L82.0307 352.495L82.028 226.053Z" fill="#0065F4"/>
<path d="M147.257 224.343L199.263 224.336C199.781 266.89 199.471 311.38 199.246 353.962L147.16 354.033L147.257 224.343Z" fill="white" fill-opacity="0.74"/>
<path d="M148.848 226.06L197.691 226.04L197.606 352.548L148.807 352.521L148.848 226.06Z" fill="#0065F4"/>
<path d="M172.513 390.976C172.821 397.167 172.032 439.811 173.351 441.125L173.543 441.146C180.201 439.769 185.587 438.87 192.337 438.439L193.816 438.249C203.504 438.598 210.839 438.993 220.255 441.869L221.498 441.738C226.423 444.538 232.991 446.066 238.435 449.013C265.86 463.859 283.2 492.615 284.699 523.669C284.891 527.699 284.071 532.943 284.837 536.834C286.831 537.501 288.175 537.396 290.262 537.442C288.083 537.543 285.737 537.202 284.415 538.358L284.645 538.957C306.785 539.451 329.97 539.093 352.237 539.091L474.506 539.076L474.566 578.299C452.358 579.494 279.001 577.234 275.971 579.153C279.659 580.286 316.489 579.75 323.443 579.756L467.776 579.784L512.493 579.75C517.685 579.745 530.312 579.415 535.106 579.934C526.4 580.576 512.305 580.158 503.172 580.152L444.692 580.124L275.075 580.085C257.298 626.066 230.419 667.974 196.055 703.287C162.753 670.111 133.98 623.673 117.177 579.973C104.289 580.152 91.3994 580.224 78.5106 580.191C71.6693 580.202 61.6697 580.515 55.033 580.018C61.1237 579.482 114.54 580.582 116.449 578.902C108.012 577.675 91.7147 578.941 81.9959 578.249C91.0746 577.546 107.227 578.082 116.736 578.221C96.4173 519.269 108.973 463.465 172.431 441.495C172.376 426.81 171.607 404.846 172.513 390.976Z" fill="#2680FF"/>
<path d="M284.646 538.956C306.786 539.45 329.971 539.092 352.238 539.09L474.506 539.075L474.567 578.299C468.397 577.757 458.183 578.064 451.647 578.07L410.294 578.087L275.852 578.053C279.196 567.541 281.92 557.19 283.278 546.226C283.571 543.86 283.873 541.207 284.646 538.956Z" fill="#0065F4"/>
<path d="M190.457 488.608C213.072 485.467 233.926 501.341 236.957 524.005C239.988 546.669 224.039 567.482 201.395 570.411C178.902 573.318 158.29 557.474 155.279 534.961C152.269 512.447 167.992 491.73 190.457 488.608Z" fill="#0065F4"/>
<path d="M816.32 333.273L817.74 334.447C818.225 342.339 820.019 359.361 821.356 367.04C825.562 368.536 831.367 369.927 834.822 371.236C840.326 385.43 846.482 391.598 860.126 398.141L855.262 624.442L853.897 687.915C853.657 697.412 853.747 707.193 853.05 716.644C852.889 718.781 851.958 720.054 850.499 721.571C846.003 726.236 835.774 724.98 829.445 724.807C829.061 717.325 828.42 708.816 828.32 701.401C833.15 701.435 844.805 702.048 848.682 700.508C847.323 699.08 830.983 699.744 828.002 699.766C827.223 676.511 825.223 652.022 823.913 628.649L814.86 472.53C814.359 464.161 812.075 410.294 810.487 406.539L809.919 406.255C809.334 409.361 810.186 420.423 810.409 424.245L812.448 459.378L823.479 650.337L826.66 703.399C827.195 712.477 828.487 722.079 827.791 731.151C827.445 735.582 826.075 740.804 822.119 743.343C817.239 746.484 783.629 746.657 777.216 745.033C774.887 744.442 771.11 743.114 769.951 740.893C766.408 734.136 761.533 669.062 760.297 656.34L743.762 488.161L738.424 434.155C737.516 424.879 736.781 413.845 735.438 404.747C749.522 397.152 756.714 390.932 761.6 374.851C761.929 373.753 762.23 372.647 762.503 371.533C765.043 371.927 768.364 369.49 770.425 368.126C770.965 362.544 769.74 345.15 771.456 341.651L771.155 341.01L771.517 340.106C785.545 337.489 802.024 335.43 816.32 333.273Z" fill="#0065F4"/>
<path d="M816.319 333.273L817.74 334.447C805.461 337.528 784.648 339.531 771.455 341.651L771.154 341.01L771.516 340.106C785.545 337.489 802.024 335.43 816.319 333.273Z" fill="white" fill-opacity="0.74"/>
<path d="M775.606 721.155L805.562 721.004C810.075 720.982 818.343 720.681 822.443 721.305L823.223 722.46C816.71 722.901 780.147 723.442 775.868 722.382L775.606 721.155Z" fill="white" fill-opacity="0.74"/>
<path d="M551.313 349.749C554.743 352.24 575.329 357.132 579.524 357.557C581.162 359.015 583.546 362.317 585.061 364.12C603.351 385.914 618.41 368.445 631.564 351.366C634.617 364.096 638.856 376.858 642.048 389.552C649.859 420.616 654.478 457.462 651.241 489.512C646.455 536.952 640.36 584.726 634.806 632.158L628.444 686.548C627.257 696.608 626.31 706.768 624.472 716.728C622.059 729.784 613.19 729.879 602.677 728.674C602.438 723.111 602.12 717.559 601.736 712.007C606.337 712.197 613.597 712.632 617.909 711.489C616.845 710.501 603.886 710.462 601.708 710.423L594.521 533L592.482 477.372C592.176 469.423 592.014 455.947 591.011 448.519C589.88 439.701 586.978 431.205 582.471 423.544C581.295 421.579 577.858 415.849 575.719 415.327C575.312 416.761 578.961 421.042 580.181 423.02C586.354 433.036 589.167 442.557 589.769 454.334C590.978 477.929 591.524 501.54 592.482 525.144L601.167 732.501C593.451 722.469 580.989 722.017 569.05 724.294C562.259 725.583 557.702 732.445 554.532 738.187L536.263 575.654C531.461 533.489 524.44 490.902 527.745 448.738C530.827 409.416 538.798 385.964 551.313 349.749Z" fill="#0065F4"/>
<path d="M602.873 216.399C604.979 216.578 607.597 216.876 609.664 216.912C610.527 221.541 613.436 243.112 615.419 244.95L616.377 243.312C624.5 244.154 640.667 253.823 644.539 254.021L644.132 255.241C674.478 274.965 645.798 326.116 631.581 348.19C624.249 359.577 608.266 379.942 593.664 369.835C587.463 365.545 584.382 360.154 579.608 354.868L579.524 357.559C575.329 357.133 554.744 352.241 551.313 349.751L550.241 348.453L549.687 349.11C548.979 347.582 547.399 345.655 546.521 343.578C543.687 336.882 544.761 329.513 545.36 322.489C543.438 319.963 541.565 317.053 539.78 314.397C536.995 316.093 535.826 316.66 532.806 317.907C533.291 321.286 534.118 325.242 534.332 328.631C535.015 339.454 541.701 353.049 523.83 347.962C513.18 344.93 501.018 343.501 491.221 338.343C488.669 336.999 487.763 329.963 487.263 327.183C465.251 322.479 462.553 308.048 474.972 290.82C473.584 281.703 471.883 278.43 480.157 272.317L476.838 247.908L476.497 246.598C476.549 244.25 476.678 240.217 479.238 239.334C485.976 237.008 498.927 242.026 505.78 243.954L506.823 244.482C509.301 244.259 517.559 246.282 519.867 248.314C524.784 252.641 524.866 255.863 525.566 261.743C537.545 255.427 553.022 247.527 565.318 241.937C571.307 240.268 583.374 239.781 589.886 239.373L589.981 239.914C590.583 241.936 590.75 242.723 591.747 244.546L592.349 244.487C592.744 240.462 589.496 227.172 588.432 222.429C595.101 221.295 597.084 220.057 602.873 216.399Z" fill="#0065F4"/>
<path d="M476.497 246.598C476.549 244.25 476.678 240.217 479.238 239.334C485.976 237.007 498.927 242.026 505.78 243.954L506.823 244.482C509.301 244.259 517.559 246.282 519.867 248.314C524.784 252.641 524.866 255.863 525.566 261.743C537.545 255.427 553.022 247.527 565.318 241.936C564.716 243.541 564.582 243.567 563.173 244.651C552.235 250.096 535.821 257.715 525.683 263.711C528.323 280.646 530.514 299.15 532.558 316.228C534.327 315.403 537.425 313.861 539.138 313.295L539.78 314.397C536.995 316.093 535.826 316.66 532.806 317.907C533.291 321.286 534.118 325.242 534.332 328.631C535.015 339.454 541.701 353.049 523.83 347.962C513.18 344.93 501.018 343.501 491.221 338.342C488.669 336.999 487.763 329.963 487.263 327.183C465.251 322.479 462.553 308.048 474.972 290.82C473.584 281.703 471.883 278.43 480.157 272.317L476.838 247.908L476.497 246.598Z" fill="white" fill-opacity="0.74"/>
<path d="M486.013 318.864C476.497 311.243 477.256 293.422 475.843 281.929C474.951 274.672 488.996 268.87 495.203 269.496L495.822 270.27C494.929 274.475 483.173 279.766 478.549 283.508C483.734 282.156 495.404 273.79 499.312 277.531L499.298 278.945C497.95 280.914 496.681 281.406 494.614 282.608C490.286 284.929 488.328 285.657 485.529 289.68L485.323 290.998C487.894 291.991 492.238 288.539 494.723 287.158C496.931 286.423 497.992 286.007 500.211 286.454L500.484 287.42C498.179 291.554 488.477 296.923 488.265 300.31C491.354 298.501 496.313 294.999 499.868 296.624L500.24 297.634C499.189 300.295 488.086 308.981 485.182 311.39C485.341 313.703 485.742 316.518 486.013 318.864Z" fill="#0065F4"/>
<path d="M474.804 293.854C476.673 296.02 476.749 309.67 478.807 313.326C481.233 317.637 487.267 319.872 486.85 324.665C485.367 325.27 484.49 324.715 482.662 324.287C466.856 318.216 465.76 306.921 474.804 293.854Z" fill="#0065F4"/>
<path d="M602.873 216.399C604.979 216.578 607.597 216.876 609.664 216.912C610.528 221.541 613.436 243.112 615.419 244.95L616.377 243.312C624.5 244.154 640.668 253.823 644.539 254.021L644.133 255.241C635.848 270.816 627.419 286.311 618.84 301.727C615.926 307.082 608.873 321.021 606.071 325.199C596.26 307.788 582.46 283.03 562.243 278.368C558.393 277.479 551.669 275.999 547.77 276.943L547.443 275.551C550.145 267.922 561.881 250.242 563.173 244.651C564.583 243.567 564.716 243.541 565.318 241.937C571.307 240.268 583.374 239.781 589.887 239.373L589.981 239.914C590.583 241.936 590.75 242.723 591.748 244.546L592.349 244.487C592.745 240.462 589.497 227.172 588.433 222.429C595.101 221.295 597.085 220.057 602.873 216.399Z" fill="white" fill-opacity="0.26"/>
<path d="M602.873 216.399C604.979 216.578 607.598 216.876 609.665 216.912C610.528 221.541 613.436 243.112 615.42 244.95L617.275 246.142L617.447 247.171C614.606 250.245 607.431 255.327 603.77 258.047C595.904 263.908 587.993 269.712 580.043 275.459C582.244 267.186 585.18 249.644 588.6 240.876C589.063 240.556 589.519 240.235 589.982 239.914C590.584 241.936 590.751 242.723 591.748 244.546L592.35 244.487C592.745 240.462 589.497 227.172 588.433 222.429C595.102 221.295 597.085 220.057 602.873 216.399Z" fill="#0065F4"/>
<path d="M539.139 313.294C537.151 305.342 536.019 298.701 539.733 290.705L540.211 290.529C541.519 293.271 541.234 296.561 542.238 299.404C542.493 300.123 545.676 302.448 545.68 302.481C546.201 306.827 545.622 308.652 550.465 310.508C552.996 311.478 556.851 312.215 560.037 312.711C563.625 322.879 572.433 347.197 579.608 354.867L579.525 357.557C575.33 357.132 554.745 352.24 551.314 349.749L550.241 348.451L549.688 349.109C548.98 347.58 547.4 345.653 546.522 343.577C543.688 336.88 544.762 329.512 545.361 322.488C543.439 319.962 541.565 317.051 539.781 314.395L539.139 313.294Z" fill="white" fill-opacity="0.26"/>
<path d="M547.443 275.551L547.77 276.942C544.211 278.034 531.673 276.347 532.313 282.428C534.823 284.873 542.142 284.964 547.652 287.065C542.884 287.475 532.946 287.34 530.521 282.506C530.821 275.473 542.319 275.694 547.443 275.551Z" fill="white" fill-opacity="0.74"/>
<path d="M605.898 325.556C609.09 326.843 611.486 335.649 611.653 338.839C609.213 337.387 606.756 328.588 605.898 325.556Z" fill="white" fill-opacity="0.74"/>
<path d="M773.527 201.07C773.683 199.437 773.822 197.803 773.956 196.168C785.204 193.306 788.574 192.78 795.772 182.904C796.407 186.77 797.878 197.902 798.77 200.98C799.761 202.703 801.527 205.665 801.822 207.611C808.157 248.934 811.488 290.876 817.188 332.292C817.009 332.509 816.519 333.144 816.319 333.274C802.023 335.43 785.544 337.489 771.516 340.106L771.153 341.01L771.454 341.651C769.738 345.15 770.964 362.545 770.424 368.126C768.362 369.49 765.042 371.927 762.502 371.533L760.914 371.591C758.685 371.053 756.836 370.607 754.641 369.883L753.231 370.058C747.994 373.106 737.916 379.634 732.997 382.165L731.855 383.879L731.225 383.609C728.445 384.879 725.805 386.286 723.097 387.702C718.991 379.657 714.384 368.62 710.612 360.323C706.98 352.326 695.526 330.264 696.673 322.837C701.96 288.609 707.403 254.312 713.587 220.237C716.228 205.678 737.805 207.328 748.668 204.944C756.412 203.298 764.964 203.219 772.335 200.956L773.527 201.07Z" fill="#2680FF"/>
<path d="M773.528 201.07C773.684 199.437 773.823 197.803 773.957 196.168C785.205 193.306 788.576 192.78 795.774 182.904C796.409 186.77 797.879 197.902 798.771 200.98C799.763 202.703 801.529 205.665 801.824 207.611C808.158 248.934 811.49 290.876 817.189 332.292C817.011 332.509 816.52 333.144 816.32 333.274C802.024 335.43 785.545 337.489 771.517 340.106C771.155 339.475 770.514 213.65 772.247 208.783C771.829 208.113 771.784 207.761 771.528 206.998L772.258 206.19C774.013 203.517 773.255 204.594 773.528 201.07Z" fill="#0065F4"/>
<path d="M772.246 208.783C771.828 208.113 771.783 207.761 771.527 206.998L772.257 206.189C775.622 209.955 778.519 214.328 781.906 218.259C786.279 215.514 796.368 208.716 800.525 206.696L800.953 207.33C800.079 209.423 784.714 218.611 781.599 220.449C778.251 216.472 775.326 212.981 772.246 208.783Z" fill="white" fill-opacity="0.74"/>
<path d="M724.001 320.37C724.341 312.702 729.332 245.155 731.115 242.877C732.641 247.484 726.056 308.504 725.678 319.883C734.965 335.549 746.118 353.867 754.642 369.882L753.232 370.058C743.41 354.783 733.488 336.276 724.001 320.37Z" fill="white" fill-opacity="0.74"/>
<path d="M759.138 205.78C759.216 205.929 759.817 206.874 759.801 206.971C758.497 213.906 752.971 233.815 751.444 239.344C756.085 242.733 760.753 246.085 765.45 249.402C760.063 253.12 754.352 256.81 748.892 260.454L759.255 303.041C760.659 308.805 764.737 324.183 764.815 329.366C762.313 326.465 749.344 268.856 747.048 259.93C750.965 256.831 758.352 252.254 762.731 249.357C758.948 246.44 753.483 242.926 749.444 240.171C752.363 230.783 755.734 214.046 759.138 205.78Z" fill="white" fill-opacity="0.74"/>
<path d="M952.545 374.459C959.843 374.255 967.141 374.191 974.434 374.269C981.743 381.648 989.754 391.168 996.752 399.056C1009.93 413.987 1023.17 428.852 1036.5 443.65C1040.6 448.197 1051.35 460.929 1055.12 464.308L1054.22 464.939C1046.12 464.504 1033.76 464.913 1025.24 464.92L966.467 464.969C963.654 460.512 957.698 453.289 954.261 449.204C953.091 448.749 953.609 449.107 952.901 447.807C953.202 450.442 962.322 462.025 964.517 464.947C937.915 464.616 910.199 465.125 883.502 465.269C877.207 457.667 867.68 447.859 860.783 440.565C860.789 431.596 860.956 422.628 861.284 413.666C861.251 408.533 861.44 403.402 861.841 398.285C869.056 390.677 877.084 383.147 884.477 375.461L884.588 374.231L888.683 374.449L909.051 374.422L922.918 374.401L943.23 374.392C945.999 374.42 948.3 374.339 951.069 374.187L952.545 374.459Z" fill="#2680FF"/>
<path d="M884.476 375.461L952.204 447.473C933.947 447.491 915.897 447.936 897.663 448.087C889.969 440.987 882.799 433.7 875.323 426.42C872.275 423.449 864.682 415.959 861.283 413.665C861.25 408.533 861.439 403.401 861.84 398.284C869.055 390.677 877.083 383.146 884.476 375.461Z" fill="#0065F4"/>
<path d="M880.437 387.687L887.93 388.199C888.053 393.373 888.008 398.755 888.036 403.946C885.774 404.066 882.977 403.98 880.665 403.965C880.56 398.539 880.482 393.113 880.437 387.687Z" fill="white" fill-opacity="0.74"/>
<path d="M800.353 200.254C814.698 201.832 829.779 205.487 844.114 207.147C862.504 209.277 863.557 214.76 867.613 230.769L867.986 231.492C870.164 231.925 871.384 231.925 873.557 231.983C871.279 232.103 870.053 231.785 868.343 232.869C869.111 239.012 871.813 247.176 873.178 253.445C877.045 271.215 883.607 290.792 887.335 308.321C889.719 316.706 890.627 320.229 888.137 328.651C885.97 336.012 871.501 381.287 871.557 386.064L869.747 387.968C867.524 386.563 864.955 384.737 862.526 383.969C861.735 383.075 862.036 383.38 860.888 382.826C856.025 380.163 841.612 371.984 837.256 370.942C838.805 368.468 843.15 351.946 844.186 348.275L851.022 324.037C851.607 321.971 854.448 312.884 854.415 311.282C854.008 292.72 850.108 274.041 848.766 255.479C848.732 255 848.337 254.226 848.136 253.798L847.535 253.959C845.495 264.076 853.947 297.924 852.888 308.404C852.203 315.175 837.534 368.842 834.821 371.236C831.367 369.927 825.562 368.536 821.356 367.04C820.019 359.361 818.225 342.339 817.74 334.448L816.32 333.274C816.52 333.144 817.01 332.509 817.189 332.292C811.489 290.876 808.158 248.934 801.823 207.611C801.528 205.665 799.762 202.703 798.771 200.98L800.353 200.254Z" fill="#2680FF"/>
<path d="M818.776 205.715C821.333 207.513 830.247 232.764 832.269 237.931C827.589 240.4 822.013 244.068 817.428 246.929C823.283 249.217 829.082 251.663 834.809 254.264C833.071 268.169 829.924 283.275 828.057 297.334C827.506 301.479 824.72 320.433 823.589 323.65C821.745 320.092 831.751 263.794 833.105 255.415C827.283 252.472 820.029 249.62 813.923 247.056C819.305 243.736 824.709 240.464 830.146 237.242C827.6 230.666 819.974 211.783 818.776 205.715Z" fill="white" fill-opacity="0.74"/>
<path d="M82.0335 390.989L172.513 390.976C171.608 404.846 172.376 426.81 172.432 441.495C108.973 463.465 96.4176 519.269 116.737 578.221C107.228 578.082 91.0749 577.546 81.9962 578.249C82.701 516.331 82.1054 452.989 82.0335 390.989Z" fill="#0065F4"/>
<path d="M961.442 473.517L1047.58 473.502L1047.55 559.19C1038.85 559.167 1023.56 558.71 1015.38 559.346L1014.74 560.451C1012.72 559.625 995.465 559.614 993.677 560.506L993.883 559.229L961.503 559.134C961.531 530.811 961.854 501.779 961.442 473.517Z" fill="#0065F4"/>
<path d="M993.899 497.043C1001.05 496.793 1008.2 496.731 1015.35 496.857C1015.51 517.685 1015.53 538.515 1015.38 559.346L1014.73 560.451C1012.72 559.625 995.464 559.614 993.676 560.507L993.882 559.229C993.709 538.501 993.715 517.771 993.899 497.043Z" fill="white" fill-opacity="0.74"/>
<path d="M969.587 496.709L978.261 497.091L978.333 538.969C975.314 539.116 972.439 539.038 969.42 538.984C969.33 524.892 969.386 510.8 969.587 496.709Z" fill="white" fill-opacity="0.74"/>
<path d="M1029.64 496.777L1038.25 496.606C1038.51 510.76 1038.55 524.917 1038.37 539.071L1029.89 539.123C1029.75 526.325 1030.55 509.115 1029.64 496.777Z" fill="white" fill-opacity="0.74"/>
<path d="M993.693 477.137L1005.02 477.367L1005.3 478.626C1002.48 480.657 995.259 488.985 992.495 492.046C988.373 491.8 983.18 491.939 978.974 491.937C982.735 487.901 989.671 480.477 993.693 477.137Z" fill="white" fill-opacity="0.74"/>
<path d="M1005.02 477.367C1008.49 478.605 1017.2 488.333 1019.75 491.511L1019.63 491.945C1014.1 488.24 1009.86 483.441 1005.3 478.626L1005.02 477.367Z" fill="white" fill-opacity="0.74"/>
<path d="M193.891 391.004L474.55 391.022L474.535 412.615L220.02 412.451C220.005 420.709 219.584 433.945 220.255 441.868C210.839 438.992 203.505 438.597 193.817 438.248C193.927 422.501 193.952 406.752 193.891 391.004Z" fill="#0065F4"/>
<path d="M221.688 414.084L309.104 414.033L309.129 537.474L290.262 537.442C288.175 537.396 286.832 537.501 284.837 536.834C284.072 532.943 284.891 527.698 284.699 523.669C283.2 492.615 265.86 463.859 238.435 449.012C232.991 446.065 226.423 444.537 221.499 441.738C221.892 432.739 221.711 423.135 221.688 414.084Z" fill="#0065F4"/>
<path d="M860.783 440.563C867.68 447.857 877.206 457.665 883.502 465.268C910.199 465.124 937.915 464.615 964.517 464.945C965.18 466.488 964.901 469.957 964.873 471.809C956.405 471.427 945.809 471.705 937.196 471.707L881.24 471.641C874.449 464.197 867.607 456.8 860.716 449.45L860.783 440.563Z" fill="#0065F4"/>
<path d="M966.467 464.968L1025.24 464.918C1033.75 464.912 1046.12 464.502 1054.22 464.937L1054.09 471.823C1025.31 471.288 995.409 471.704 966.55 471.714L966.467 464.968Z" fill="#0065F4"/>
<path d="M754.642 369.883C756.837 370.606 758.686 371.053 760.915 371.591C755.361 387.714 751.533 394.622 735.472 402.753C734.775 396.926 734.146 387.423 732.998 382.165C737.917 379.634 747.996 373.106 753.232 370.058L754.642 369.883Z" fill="#0065F4"/>
<path d="M837.256 370.941C841.612 371.983 856.025 380.163 860.888 382.825L860.103 396.261C852.409 393.034 836.275 380.119 837.256 370.941Z" fill="#0065F4"/>
<path d="M862.527 383.969C864.956 384.737 867.524 386.563 869.747 387.968C867.045 390.433 864.398 393.25 861.841 395.884C862.103 391.915 862.337 387.943 862.527 383.969Z" fill="#0065F4"/>
<path d="M310.815 414.098L398.708 414.029C399.281 454.637 398.705 496.735 398.7 537.454L310.653 537.491L310.815 414.098Z" fill="#0065F4"/>
<path d="M275.164 151.478C277.867 151.328 278.442 151.384 279.748 153.82C287.552 168.383 295.815 183.082 303.24 197.818L78.2747 197.802L47.454 197.782C54.0539 183.96 64.6349 165.584 72.0952 151.608L275.164 151.478Z" fill="#0065F4"/>
<path d="M400.088 414.081L474.463 414.048L474.574 537.573C449.99 537.176 424.713 537.48 400.077 537.501L400.088 414.081Z" fill="#0065F4"/>
<path d="M882.683 473.585L959.859 473.536L959.898 559.168L882.605 559.146C882.928 530.795 882.677 501.975 882.683 473.585Z" fill="#0065F4"/>
<path d="M919.401 503.901L929.101 503.858C929.078 510.33 929.017 516.801 928.917 523.272C925.802 523.343 922.438 523.215 919.295 523.153L919.401 503.901Z" fill="white" fill-opacity="0.74"/>
<path d="M910.142 504.154C911.919 504.029 914.047 503.66 915.596 504.358C916.192 508.711 916.225 517.943 915.925 522.414C914.548 523.264 914.281 522.979 912.409 523.08C910.131 523.188 909.195 523.262 906.894 522.939C906.03 520.812 906.515 507.996 906.637 504.943C907.635 503.976 908.331 504.288 910.142 504.154Z" fill="white" fill-opacity="0.74"/>
<path d="M919.407 480.967L929.162 480.938L928.978 499.897L919.674 499.919C919.507 493.603 919.424 487.285 919.407 480.967Z" fill="white" fill-opacity="0.74"/>
<path d="M906.822 480.959L915.925 480.927C915.959 487.279 915.942 493.631 915.875 499.983L906.577 499.922C906.488 493.293 906.527 487.576 906.822 480.959Z" fill="white" fill-opacity="0.74"/>
<path d="M193.893 370.876L324.825 370.906L365.432 370.862C368.871 370.859 385.649 370.681 388.178 371.184C401.516 374.035 415.751 376.695 428.891 380.269C439.864 383.254 455.658 385.394 465.905 389.202C456.318 389.627 444.56 389.322 434.826 389.311L379.752 389.29L193.865 389.373L193.893 370.876Z" fill="#0065F4"/>
<path d="M860.704 452.239C864.899 455.53 876.342 468.942 881.05 473.697L881 532.918C881 537.277 881.295 555.292 880.771 558.754L879.763 559.156L858.543 559.139C858.654 524.92 859.484 486.461 860.704 452.239Z" fill="#0065F4"/>
<path d="M573.279 724.946C581.742 725.231 590.979 724.55 597.631 730.677C605.074 737.528 602.65 747.276 593.536 750.824C590.689 751.935 587.87 751.656 584.845 751.617C571.775 751.472 561.407 755.16 554.927 741.015C559.836 731.91 562.555 726.648 573.279 724.946Z" fill="#0065F4"/>
<path d="M381.582 79.7945L507.136 79.79L507.096 190.349C507.102 206.775 507.669 228.358 506.823 244.482L505.78 243.954C498.927 242.026 485.976 237.007 479.238 239.333C476.678 240.217 476.549 244.25 476.497 246.597L476.838 247.907L381.573 247.949L381.582 79.7945Z" fill="#0065F4"/>
<path d="M381.582 79.7945L507.136 79.79L507.096 190.349C507.102 206.775 507.669 228.358 506.823 244.482L505.78 243.954L505.765 81.1927C466.033 81.3495 422.379 82.0565 382.875 81.1816L382.863 246.614L476.497 246.597L476.838 247.907L381.573 247.949L381.582 79.7945Z" fill="white" fill-opacity="0.74"/>
<path d="M400.357 210.033C407.794 209.362 421.331 209.781 429.106 209.784C436.767 209.787 449.592 209.381 456.826 209.965L457.359 211.21C447.351 211.944 434.415 211.053 424.089 211.405C417.345 211.634 408.928 211.42 402.144 211.239C400.892 211.205 401.06 210.983 400.357 210.033Z" fill="white" fill-opacity="0.74"/>
<path d="M429.524 117.978C433.322 117.539 450.65 117.716 455.329 117.797C462.002 117.913 480.183 117.264 485.973 118.093L486.71 119.256C480.639 119.42 432.553 119.984 429.985 119.092L429.524 117.978Z" fill="white" fill-opacity="0.74"/>
<path d="M429.547 193.301C435.245 192.651 451.351 193.209 457.789 193.046C462.433 192.927 482.345 192.749 485.987 193.359L486.706 194.522C471.812 194.872 456.823 194.564 441.921 194.704C438.328 194.737 433.672 194.921 430.185 194.381L429.547 193.301Z" fill="white" fill-opacity="0.74"/>
<path d="M437.116 151.489C449.151 151.42 474.887 150.771 485.847 151.879L485.921 152.217C482.995 153.246 480.581 152.981 477.481 152.91C471.708 152.915 431.242 153.322 429.988 152.291C432.253 151.305 434.641 151.494 437.116 151.489Z" fill="white" fill-opacity="0.74"/>
<path d="M400.536 134.709C405.558 134.03 452.597 133.852 456.742 134.695L457.06 135.735C441.136 136.753 423.757 135.328 407.725 136.007C405.426 136.104 402.026 136.418 400.536 134.709Z" fill="white" fill-opacity="0.74"/>
<path d="M429.074 226.819C434.946 226.107 446.647 226.612 452.986 226.51C462.875 226.35 473.292 226.572 483.226 226.545C485.593 226.538 485.535 226.581 486.736 227.879C485.167 227.975 477.332 228.088 476.016 227.955C469.313 227.276 432.377 229.453 429.074 226.819Z" fill="white" fill-opacity="0.74"/>
<path d="M416.873 101.263C417.022 101.245 417.876 101.14 417.993 101.14C430.757 101.131 443.767 100.651 456.499 101.232C456.883 101.558 457.266 101.883 457.65 102.208C451.762 103.57 428.386 102.299 420.823 102.698C418.617 102.814 418.085 102.576 416.873 101.263Z" fill="white" fill-opacity="0.74"/>
<path d="M416.869 176.596C427.598 175.142 442.264 177.004 453.42 176.286C455.267 176.167 456.429 176.247 457.667 177.546C457.144 177.636 456.619 177.71 456.092 177.769C449.841 178.484 426.091 177.88 418.187 177.649C417.747 177.298 417.308 176.947 416.869 176.596Z" fill="white" fill-opacity="0.74"/>
<path d="M464.373 101.235C468.506 100.948 482.223 100.708 485.96 101.311L486.736 102.539C482.566 102.645 468.565 103.155 465.025 102.355L464.373 101.235Z" fill="white" fill-opacity="0.74"/>
<path d="M400.679 117.996C404.102 117.624 419.315 117.454 422.263 118.116L422.83 119.155C419.363 119.51 404.085 119.704 401.098 119.018L400.679 117.996Z" fill="white" fill-opacity="0.74"/>
<path d="M464.101 210.066C468.523 209.416 476.945 209.888 481.693 209.747C484.32 209.67 485.281 209.604 486.79 211.185C482.803 211.479 478.316 211.487 474.302 211.494C471.195 211.5 466.295 212.078 464.101 210.066Z" fill="white" fill-opacity="0.74"/>
<path d="M464.567 176.553C467.785 176.143 483.024 176.073 485.969 176.606L486.62 177.719C479.915 177.906 472.591 178.233 465.906 177.701C465.072 177.634 465.347 177.552 464.567 176.553Z" fill="white" fill-opacity="0.74"/>
<path d="M400.619 193.307C403.906 192.957 419.587 192.718 422.304 193.447L422.651 194.464C417.423 194.584 406.218 195.015 401.365 194.366L400.619 193.307Z" fill="white" fill-opacity="0.74"/>
<path d="M404.362 151.487C407.76 151.406 420.146 151.202 422.691 151.996C421.267 153.061 421.703 152.729 419.645 152.893C416.182 152.937 404.192 153.234 401.378 152.255L401.898 151.651L404.362 151.487Z" fill="white" fill-opacity="0.74"/>
<path d="M400.029 226.816C400.447 226.767 400.866 226.719 401.284 226.67C405.631 226.95 420.301 225.263 423.076 227.656C419.461 228.234 402.538 228.75 400.029 226.816Z" fill="white" fill-opacity="0.74"/>
<path d="M464.237 134.754C467.468 134.208 484.766 133.729 486.628 135.604C482.604 135.955 467.09 136.666 464.237 134.754Z" fill="white" fill-opacity="0.74"/>
<path d="M932.734 203.702L1015.09 203.683L1015.05 261.123C1019.7 261.123 1050.11 260.796 1052.04 261.836C1046.7 263.489 1020.6 262.799 1013.37 262.83L1013.41 205.259L934.277 205.317L934.243 230.307L952.634 230.331L952.689 322.991C952.689 339.647 953.057 357.904 952.545 374.46L951.068 374.187C948.299 374.339 945.998 374.421 943.23 374.393L922.917 374.401L909.051 374.422L888.683 374.45L884.588 374.231C882.014 374.504 874.053 383.711 871.557 386.064C871.501 381.288 885.97 336.013 888.137 328.652C890.627 320.229 889.719 316.707 887.335 308.321C883.607 290.793 877.045 271.215 873.178 253.446C871.813 247.176 869.111 239.012 868.343 232.87C870.053 231.786 871.279 232.103 873.557 231.984C871.384 231.926 870.164 231.925 867.986 231.493L867.613 230.77C872.443 229.924 885.385 230.225 890.856 230.235L932.644 230.344C932.644 221.801 932.422 212.157 932.734 203.702Z" fill="#0065F4"/>
<path d="M932.734 203.702L1015.09 203.683L1015.05 261.123C1019.7 261.123 1050.11 260.796 1052.04 261.836C1046.7 263.489 1020.6 262.799 1013.37 262.83L1013.41 205.259L934.277 205.317L934.243 230.307L952.634 230.331L952.689 322.991C952.689 339.647 953.057 357.904 952.545 374.46L951.068 374.187L951.012 231.882L873.557 231.984C871.384 231.926 870.164 231.925 867.986 231.493L867.613 230.77C872.443 229.924 885.385 230.225 890.856 230.235L932.644 230.344C932.644 221.801 932.422 212.157 932.734 203.702Z" fill="white" fill-opacity="0.74"/>
<path d="M887.334 308.32C894.66 308.254 901.446 308.24 908.777 308.505C908.805 315.066 908.722 322.005 908.944 328.532L888.136 328.65C890.627 320.228 889.718 316.705 887.334 308.32Z" fill="white" fill-opacity="0.74"/>
<path d="M888.744 360.437C895.429 360.448 902.182 360.511 908.861 360.437C908.9 364.907 908.828 370.013 909.051 374.422L888.683 374.45C888.811 369.594 888.878 365.299 888.744 360.437Z" fill="white" fill-opacity="0.74"/>
<path d="M923.051 360.484L942.962 360.377C942.99 363.623 942.889 371.536 943.229 374.392L922.917 374.4C923.056 369.763 923.101 365.123 923.051 360.484Z" fill="white" fill-opacity="0.74"/>
<path d="M888.995 282.178C895.658 282.183 902.321 282.227 908.978 282.308L908.828 302.312C907.446 303.31 892.053 302.952 889.084 302.968C888.744 296.043 888.711 289.106 888.995 282.178Z" fill="white" fill-opacity="0.74"/>
<path d="M888.938 256.059L908.883 256.052C908.899 259.781 909.473 274.724 907.936 276.551C901.596 276.417 895.083 276.476 888.726 276.46C888.593 270.257 888.431 262.111 888.938 256.059Z" fill="white" fill-opacity="0.74"/>
<path d="M889.061 334.236C895.607 334.105 902.392 334.189 908.961 334.184L908.91 354.626C902.715 354.958 894.977 354.588 888.776 354.371C888.76 347.75 888.96 340.877 889.061 334.236Z" fill="white" fill-opacity="0.74"/>
<path d="M923.001 334.155L943.04 334.169C942.928 340.962 942.945 347.756 943.085 354.547C936.956 354.927 929.062 354.705 922.956 354.291L923.001 334.155Z" fill="white" fill-opacity="0.74"/>
<path d="M923 256.054L943.135 256.108C942.984 262.811 942.967 269.515 943.079 276.217C936.388 276.302 929.697 276.318 923 276.265V256.054Z" fill="white" fill-opacity="0.74"/>
<path d="M923.122 308.241L943.133 308.229C943.027 314.974 943 321.72 943.055 328.467L923.111 328.595C923.038 321.81 923.038 315.025 923.122 308.241Z" fill="white" fill-opacity="0.74"/>
<path d="M572.426 199.061C569 202.277 559.485 210.804 554.71 205.999C556.518 204.514 562.382 199.842 563.529 198.239C572.46 185.787 572.917 170.319 588.271 163.033C592.533 160.972 597.279 160.131 601.992 160.6C611.753 161.585 618.555 167.381 625.497 173.611C643.168 175.531 637.419 190.151 632.076 201.069C627.558 210.305 621.792 218.568 612.477 223.403C613.068 226.604 615.374 241.673 616.377 243.311L615.419 244.949C613.435 243.11 610.527 221.54 609.664 216.911C607.597 216.875 604.978 216.577 602.873 216.398C597.084 220.056 595.101 221.294 588.432 222.428C589.496 227.171 592.744 240.461 592.349 244.486L591.747 244.544C590.75 242.722 590.583 241.935 589.981 239.913L589.886 239.372C589.647 235.505 587.764 226.916 586.95 222.757C571.541 219.937 570.672 212.671 572.426 199.061Z" fill="white" fill-opacity="0.74"/>
<path d="M586.65 178.559C595.38 178.164 600.489 184.409 605.197 190.907C603.637 194.546 600.439 202.469 603.046 205.845C605.564 206.954 607.392 205.351 611.096 205.802C617.475 211.045 607.626 217.584 603.592 214.281C604.812 212.624 608.734 211.605 611.213 209.94L610.673 209.42L608.506 209.486C604.188 210.921 603.063 213.688 598.89 216.807C594.489 220.037 588.979 221.362 583.592 220.486C564.728 217.303 576.678 185.08 586.65 178.559Z" fill="#0065F4"/>
<path d="M761.46 163.459C749.967 153.427 752.023 138.249 766.168 131.879C774.313 128.21 781.193 130.611 789.004 133.781C804.141 129.469 806.642 148.962 805.667 159.267C805.288 163.263 803.806 167.634 804.954 171.43C806.692 177.185 802.28 181.229 797.645 183.545C798.475 189.126 799.377 194.696 800.352 200.254L798.77 200.98C797.879 197.902 796.408 186.771 795.773 182.905C788.575 192.78 785.204 193.306 773.956 196.168C773.823 197.803 773.683 199.437 773.527 201.07L772.335 200.957L772.001 196.607C771.221 195.648 771.366 195.726 769.973 195.476C753.694 192.552 757.934 175.271 761.46 163.459Z" fill="white" fill-opacity="0.74"/>
<path d="M769.255 151.726C799.539 155.382 784.72 164.348 791.757 171.309C795.974 172.152 800.57 167.269 803.417 170.22C804.715 177.187 800.592 180.783 794.347 181.896C792.893 184.137 791.862 185.26 790.102 187.252C785.662 191.136 777.873 194.871 772.085 194.339C755.271 192.795 759.934 172.348 763.478 161.779C764.971 157.331 765.99 154.542 769.255 151.726Z" fill="#0065F4"/>
<path d="M799.985 172.986L800.413 173.591C800.102 175.134 796.647 177.251 794.937 178.63C792.391 176.247 798.425 173.706 799.985 172.986Z" fill="white" fill-opacity="0.74"/>
<path d="M338.981 130.863C347.844 130.853 359.61 130.518 368.138 131.271L367.906 131.572C361.338 132.82 347.622 132.256 340.412 132.221L340.454 317.755C340.402 321.396 341.067 343.32 339.848 344.97L339.244 344.58C338.547 340.721 339.047 328.948 339.07 324.378L339.024 284.436L338.981 130.863Z" fill="white" fill-opacity="0.74"/>
<path d="M1014.93 566.034L1015.76 566.882C1017.99 585.083 998.818 627.566 988.272 642.033L987.704 641.475C987.648 638.87 999.871 619.698 1000.92 615.531C1000.96 615.358 1003.63 609.376 1003.89 608.902C1011.45 595.455 1011.26 579.62 1014.93 566.034Z" fill="white" fill-opacity="0.74"/>
<path d="M1004.18 338.335C1004.78 338.886 1004.85 339.113 1005.31 339.809C1005.69 343.575 1005.77 349.144 1004.97 352.817L1004.02 351.756C1003.53 347.841 1003.6 342.237 1004.18 338.335Z" fill="white" fill-opacity="0.74"/>
<path d="M1004.21 261.911L1005.26 263.162C1005.7 267.266 1005.64 272.391 1005.04 276.47C1004.71 276.226 1004.25 275.646 1003.96 275.317C1003.56 271.473 1003.53 265.701 1004.21 261.911Z" fill="white" fill-opacity="0.74"/>
<path d="M1003.96 237.318C1006.53 238.785 1005.42 247.972 1005.31 251.002L1004.46 250.883C1003.01 248.734 1003.81 240.387 1003.96 237.318Z" fill="white" fill-opacity="0.74"/>
<path d="M1004.08 212.303C1006.57 213.739 1005.44 223.086 1005.33 226.03C1004.68 225.888 1004.66 225.761 1004.06 225.37C1003.37 221.991 1003.84 215.832 1004.08 212.303Z" fill="white" fill-opacity="0.74"/>
<path d="M979.364 338.403C979.681 338.644 980.133 339.219 980.411 339.547C980.779 343.079 980.885 349.465 980.099 352.9L979.13 351.71C978.706 347.632 978.723 342.448 979.364 338.403Z" fill="white" fill-opacity="0.74"/>
<path d="M979.37 261.965C979.682 262.206 980.139 262.781 980.423 263.108C980.78 266.794 980.952 272.88 980.089 276.451L979.147 275.266C978.729 271.181 978.757 266.021 979.37 261.965Z" fill="white" fill-opacity="0.74"/>
<path d="M966.974 261.949C969.136 263.971 968.272 273.559 967.693 276.403L966.735 275.308C966.339 271.492 966.306 265.7 966.974 261.949Z" fill="white" fill-opacity="0.74"/>
<path d="M966.957 338.382C967.525 338.907 967.598 339.146 968.032 339.809C968.355 343.283 968.467 349.43 967.637 352.801L966.745 351.742C966.322 348.17 966.322 341.916 966.957 338.382Z" fill="white" fill-opacity="0.74"/>
<path d="M1029.74 338.444L1030.83 339.531C1031.34 343.493 1031.04 348.402 1030.93 352.465C1029.92 352.403 1030.38 352.562 1029.59 351.764C1029.06 347.833 1029.4 342.428 1029.74 338.444Z" fill="white" fill-opacity="0.74"/>
<path d="M967.069 287.105C969.063 289.094 968.127 298.149 967.977 301.287C967.292 300.737 967.269 300.58 966.729 299.861C966.339 296.271 966.2 290.578 967.069 287.105Z" fill="white" fill-opacity="0.74"/>
<path d="M966.713 237.35L967.459 237.709C968.846 239.784 968.133 248.075 968.016 251.004L967.398 250.86C965.766 248.841 966.596 240.434 966.713 237.35Z" fill="white" fill-opacity="0.74"/>
<path d="M991.744 261.985L992.797 263.111C993.309 267.163 993.198 272.316 992.602 276.356L991.666 275.325C991.097 271.386 991.409 265.977 991.744 261.985Z" fill="white" fill-opacity="0.74"/>
<path d="M1016.81 338.438L1017.8 339.544C1018.23 343.447 1018.27 349.139 1017.59 352.995C1015.63 350.347 1016.33 341.729 1016.81 338.438Z" fill="white" fill-opacity="0.74"/>
<path d="M991.766 338.461L992.768 339.548C993.298 343.539 993.075 348.831 992.624 352.842L991.621 351.757C991.131 347.552 991.348 342.674 991.766 338.461Z" fill="white" fill-opacity="0.74"/>
<path d="M991.676 237.356C993.966 239.028 993.119 247.945 993.064 250.934L992.245 250.834C990.796 248.718 991.548 240.374 991.676 237.356Z" fill="white" fill-opacity="0.74"/>
<path d="M991.743 287.084C993.971 288.749 992.929 298.161 992.818 301.117L991.715 300.089C991.057 295.816 991.369 291.379 991.743 287.084Z" fill="white" fill-opacity="0.74"/>
<path d="M979.431 287.116L980.412 288.212C980.896 292.369 980.685 297.23 980.25 301.394C978.144 298.29 978.88 290.84 979.431 287.116Z" fill="white" fill-opacity="0.74"/>
<path d="M979.425 312.204L980.439 313.322C980.907 317.394 980.712 322.254 980.255 326.33C978.144 323.495 978.974 315.814 979.425 312.204Z" fill="white" fill-opacity="0.74"/>
</svg>
