<svg width="1024" height="704" viewBox="0 0 1024 704" fill="none" xmlns="http://www.w3.org/2000/svg">
<g clip-path="url(#clip0_1_34)">
<path d="M303.767 395.724L303.219 392.01L303.488 391.927C303.665 393.153 303.775 394.372 304.229 395.521L304.558 395.543C305.579 395.622 305.85 395.568 306.712 396.147C307.487 400.244 306.963 414.821 306.98 420.008C317.468 419.985 330.09 419.651 340.401 420.224L340.506 420.496C333.893 421.567 314.744 421.024 306.991 421.029C306.988 422.747 306.768 425.29 307.455 426.73C312.921 427.218 321.841 426.973 327.607 426.975L363.03 426.972C363.072 436.135 363.972 510.575 362.212 514.9C356.556 517.195 307.535 516.12 296.352 516.125L274.255 516.13C271.299 516.13 265.019 516.3 262.279 515.96C261.868 515.2 261.889 515.24 261.748 514.385C260.758 514.545 260.264 515.205 259.508 515.92C254.923 516.37 246.547 516.15 241.694 516.15L207.056 516.1C175.118 516.165 140.185 516.835 108.477 516.015C104.283 513.03 103.609 511.495 102.489 506.345C101.765 503.01 101.867 492.743 103.267 489.822C101.336 490.02 100.619 489.855 98.732 489.604C98.0035 489.007 96.237 489.098 95.084 489.009C89.4355 489.163 78.214 488.785 73.469 489.877L68.359 489.867C64.243 489.982 60.1245 489.973 56.009 489.841L55.4165 489.706C52.226 490.088 51.054 490.032 47.8163 489.814C50.4665 486.497 55.3815 481.945 58.5455 478.85L58.735 465.651C61.5395 465.517 63.8615 464.812 65.599 467.076C65.8195 468.761 65.9935 470 66.039 471.717C68.293 470.021 74.642 463.632 76.9925 461.379L104.219 487.762C108.192 483.291 108.828 484.927 113.601 483.642C115.859 478.078 101.234 473.523 101.586 462.799C102.04 449.002 100.575 433.747 102.123 419.867C102.362 417.721 105.423 414.576 106.834 413.058C107.166 409.631 107.361 404.526 110.151 402.367C114.378 399.097 136.539 400.316 141.525 401.046L141.764 401.917C136.358 401.446 115.126 400.019 110.456 403.358C108.358 404.858 108.145 410.59 107.893 413.367C101.387 420.509 102.322 424.01 102.53 433.466C102.775 444.595 102.035 456.635 103.079 467.663C106.652 473.202 113.204 476.937 115.707 482.881C115.919 483.86 115.905 484.21 116.482 485.026C116.742 476.992 116.343 467.775 116.825 460.062C115.037 460.06 113.219 460.28 111.725 459.453C111.914 455.668 117.891 435.566 119.168 431.022C134.416 431.022 150.374 430.781 165.563 431.039C168.006 439.942 171.643 451.279 173.462 459.999C171.689 460.022 169.472 459.747 168.138 460.501C167.409 477.082 168.708 495.201 167.757 511.72L167.48 511.595C166.559 504.375 166.937 496.928 166.961 489.609L166.953 460.034L117.924 460.017C117.937 478.232 117.738 496.866 117.982 515.045L150.277 515.025C155.541 515.035 164.364 515.31 169.346 514.805C170.173 513.54 169.826 513.475 169.69 511.55L169.418 511.125C171.188 510.945 172.679 510.95 174.446 510.93C177.6 509.09 176.292 500.6 176.262 497.043L176.175 467.2C176.135 463.779 175.383 455.878 176.863 453.388C178.018 453.104 178.765 452.946 179.941 452.772C181.985 450.725 180.894 447.895 181.028 445.047C205.072 445.002 232.272 444.356 255.998 445.084C256.047 447.061 255.776 451.777 256.783 452.914C258.467 453.118 258.769 453.168 260.422 452.834C260.626 452.48 260.831 452.125 261.035 451.771C260.991 435.51 261.042 411.307 261.008 395.683C275.033 395.721 289.802 396.002 303.767 395.724Z" fill="#272729"/>
<path d="M182.222 446.212C205.951 446.759 231.194 446.332 254.999 446.343L254.948 453.07C252.381 453.008 241.919 452.278 239.713 453.577C238.475 454.307 239.803 455.895 237.242 458.063C235.573 457.321 235.293 455.276 232.395 453.606C223.978 452.876 215.455 453.203 207.015 453.142C201.254 453.1 198.258 455.183 198.475 461.36C199.289 475.192 198.343 489.758 198.667 503.655C198.725 506.16 198.693 509.085 198.455 511.56C198.661 512.645 198.879 513.725 199.111 514.8C195.935 515.015 173.655 515.245 171.049 514.715C170.574 513.615 170.649 513.435 170.615 512.26C170.276 511.95 170.06 511.66 169.689 511.55L169.418 511.125C171.187 510.945 172.679 510.95 174.445 510.93C177.6 509.09 176.291 500.6 176.262 497.044L176.174 467.2C176.134 463.779 175.382 455.878 176.863 453.388C177.115 469.105 177.661 495.809 176.838 511.205C175.04 512.72 172.791 510.7 172.269 512.4C174.273 512.99 175.916 512.785 178.011 512.715C178.035 493.276 178.273 473.431 178.057 454.029C179.873 454.035 191.646 454.221 192.57 453.331C188.599 453.035 186.135 452.99 182.177 453.083L182.222 446.212Z" fill="white"/>
<path d="M198.476 461.36C199.29 475.192 198.344 489.758 198.668 503.655C198.726 506.16 198.694 509.085 198.456 511.56C197.534 507.73 197.698 465.64 198.476 461.36Z" fill="#878788"/>
<path d="M187.44 464.96C189.295 464.945 189.787 464.847 191.384 465.734C193.893 468.395 194.333 478.927 192.507 481.067L185.561 481.098C185.64 475.868 184.302 468.503 187.44 464.96Z" fill="#39393B"/>
<path d="M187.544 465.789C189.219 465.858 189.475 465.769 190.852 466.598C192.663 469.168 193.078 478.281 190.976 480.148C189.508 480.067 187.871 480.213 186.832 479.296C186.485 476.255 186.287 468.472 187.544 465.789Z" fill="white"/>
<path d="M187.25 487.914C188.798 487.888 189.972 487.866 191.313 488.672C194.283 490.457 193.922 502.35 192.464 503.965L185.561 504.005C185.477 499.253 184.574 491.42 187.25 487.914Z" fill="#39393B"/>
<path d="M187.305 488.919C189.102 488.899 189.436 488.76 190.879 489.668C193.093 492.694 192.176 499.08 191.834 502.895C190.054 502.91 188.012 503.19 186.89 502.115C186.393 499.083 186.371 491.806 187.305 488.919Z" fill="white"/>
<path d="M47.8163 489.814C49.4116 489.805 52.3185 490.017 53.554 489.289L50.5735 488.61C51.876 486.568 73.2355 466.651 76.9595 462.792L87.338 473.112C89.75 475.198 91.4315 476.63 93.5745 479.04C95.6535 480.973 102.191 486.801 103.431 488.749L103.267 489.821C101.336 490.019 100.619 489.855 98.732 489.604C98.0035 489.006 96.237 489.097 95.084 489.009C89.4355 489.163 78.214 488.784 73.469 489.877L68.359 489.867C64.243 489.982 60.1245 489.973 56.009 489.841L55.4165 489.706C52.226 490.088 51.054 490.032 47.8163 489.814Z" fill="#B2C1C5"/>
<path d="M68.3581 489.867C68.3206 489.85 59.4126 489.285 58.3516 489.132C64.2946 487.959 89.3666 487.765 95.0831 489.009C89.4346 489.163 78.2131 488.785 73.4681 489.877L68.3581 489.867Z" fill="#272729"/>
<path d="M87.338 473.112C89.75 475.198 91.4315 476.631 93.5745 479.04C92.072 478.64 88.4575 474.367 87.338 473.112Z" fill="#272729"/>
<path d="M115.707 482.881C115.919 483.859 115.905 484.209 116.482 485.026C117.177 492.573 116.843 507.055 116.901 515.11C114.546 515.11 108.983 515.435 107.281 514.06C102.943 510.56 103.142 502.59 103.235 497.71C103.39 489.565 104.451 485.172 113.508 484.971C114.728 484.944 115.216 483.735 115.707 482.881Z" fill="white"/>
<path d="M59.9291 477.513C60.0051 474.413 59.1206 468.911 60.9881 466.898C62.9676 466.768 64.0786 466.952 65.2391 468.597L65.5981 467.076C65.8186 468.761 65.9926 470 66.0381 471.717L65.5891 471.737C63.5956 474.064 62.2626 475.55 59.9291 477.513Z" fill="#B2C1C5"/>
<path d="M262.068 396.835C276.743 396.883 291.417 396.854 306.092 396.747C305.615 429.307 306.313 462.065 306.065 494.635C306.017 501.025 306.484 508.735 305.829 514.995L262.476 515.065C261.896 498.142 262.277 480.711 262.337 463.766L262.068 396.835Z" fill="white"/>
<path d="M280.966 424.479L287.981 424.536L288.046 440.082L280.875 440.103L280.966 424.479Z" fill="#B2C1C5"/>
<path d="M293.55 424.489L300.474 424.496L300.464 440.072L293.502 440.089L293.55 424.489Z" fill="#272729"/>
<path d="M294.888 425.88C296.438 425.844 296.667 425.772 298.098 426.265C299.782 428.557 298.966 435.086 299.236 438.888C297.822 438.91 297.388 438.903 295.996 438.691C294.041 436.754 295.015 429.57 294.888 425.88Z" fill="#B2C1C5"/>
<path d="M268.56 446.713L274.994 446.626C275.073 451.835 275.044 457.045 274.907 462.253L267.952 462.113C267.922 459.332 267.436 448.467 268.56 446.713Z" fill="#B2C1C5"/>
<path d="M268.325 403.051L275.034 403.042L275.063 418.416L268.252 418.33C268.428 413.408 268.325 408.012 268.325 403.051Z" fill="#434447"/>
<path d="M269.312 403.94C270.896 403.865 271.682 403.663 273.055 404.327C274.898 406.979 273.978 413.554 273.997 417.481C272.374 417.544 271.878 417.656 270.352 417.212C268.462 414.901 269.52 408.127 269.312 403.94Z" fill="#B2C1C5"/>
<path d="M307.007 428.075L362.035 428.062L362.052 488.253C362.053 493.163 362.348 511.05 361.554 514.835C345.524 515.67 323.608 514.995 307.044 515.05C306.552 486.551 307.003 456.681 307.007 428.075Z" fill="white"/>
<path d="M313.993 479L324.522 479.013L324.516 497.003L313.963 497.049L313.993 479Z" fill="#272729"/>
<path d="M315.108 480.16L323.289 480.146C323.218 485.385 323.222 490.625 323.301 495.865C321.316 496.061 317.176 495.956 315.035 495.966L315.108 480.16Z" fill="white"/>
<path d="M330.44 432.547C333.708 432.394 337.681 432.499 341.004 432.498L341.052 450.381L330.418 450.397C330.32 444.447 330.327 438.496 330.44 432.547Z" fill="#39393B"/>
<path d="M331.428 433.616L339.953 433.476C339.976 437.003 340.24 446.386 339.66 449.304C337.242 449.129 333.927 449.265 331.437 449.294L331.428 433.616Z" fill="white"/>
<path d="M330.483 478.969L340.962 478.945L340.99 497.047L330.463 497.081C330.551 491.097 330.482 484.965 330.483 478.969Z" fill="#272729"/>
<path d="M331.868 480.536L339.831 480.575L339.936 495.858L331.668 495.801C332.055 491.329 331.879 485.156 331.868 480.536Z" fill="#B2C1C5"/>
<path d="M314 455.638L324.478 455.685C324.512 461.689 324.49 467.693 324.411 473.697C320.948 473.635 317.424 473.819 313.957 473.951L314 455.638Z" fill="#434447"/>
<path d="M315.102 456.931L323.164 456.956C323.12 462.072 323.199 467.281 323.227 472.405L315.122 472.431C315.252 467.265 315.245 462.096 315.102 456.931Z" fill="#B2C1C5"/>
<path d="M346.784 478.978L357.122 478.954L357.222 497.033L346.643 497.036C346.953 491.259 346.802 484.812 346.784 478.978Z" fill="#434447"/>
<path d="M347.935 480.148C350.397 480.323 353.449 480.2 355.97 480.164C355.967 485.381 355.875 490.621 356.385 495.81C354.987 496.018 349.569 495.92 347.865 495.926C348.118 490.712 347.993 485.376 347.935 480.148Z" fill="#B2C1C5"/>
<path d="M346.732 455.845L357.044 455.846C357.023 460.782 357.365 469.579 356.859 474.007L346.743 474.001L346.732 455.845Z" fill="#272729"/>
<path d="M347.9 457.002L355.989 456.926C356.071 462.218 356.053 467.512 355.935 472.803C353.442 472.669 350.472 472.776 347.934 472.806C347.979 467.568 347.915 462.247 347.9 457.002Z" fill="white"/>
<path d="M330.51 455.996C333.539 455.803 337.889 455.922 341.018 455.91L341.02 473.797C338.171 474.017 333.503 473.938 330.519 473.974L330.51 455.996Z" fill="#272729"/>
<path d="M331.487 456.974L339.952 456.935C340.031 462.226 340.01 467.519 339.888 472.81C337.135 472.646 334.263 472.833 331.497 472.955L331.487 456.974Z" fill="white"/>
<path d="M346.716 432.49C350.102 432.431 353.627 432.465 357.025 432.454L357.122 450.432L346.631 450.376L346.716 432.49Z" fill="#39393B"/>
<path d="M347.906 433.499L355.979 433.478L356.01 449.243C353.375 449.198 350.586 449.266 347.938 449.286L347.906 433.499Z" fill="white"/>
<path d="M314.028 432.518C317.452 432.452 321.052 432.504 324.493 432.503L324.449 450.332L313.982 450.396L314.028 432.518Z" fill="#272729"/>
<path d="M315.122 433.503L323.247 433.458C323.1 438.82 323.16 443.861 323.255 449.227C320.609 449.178 317.745 449.288 315.082 449.337C315.124 444.059 315.137 438.781 315.122 433.503Z" fill="white"/>
<path d="M199.283 460.664C199.64 458.715 199.91 456.595 201.594 455.297C203.981 453.456 225.751 453.836 229.568 454.568C231.572 454.952 234.429 455.721 235.741 457.379C237.916 460.131 238.415 505.095 237.314 510.715C236.994 512.35 236.256 513.825 234.852 514.77C234.162 515.24 233.978 515.125 233.148 515.05C229.707 511.695 231.102 493.751 230.807 488.022L205.944 487.976C205.96 492.263 207.452 514.895 202.368 515.55C201.046 514.83 199.892 513.66 199.291 512.28C198.396 508.285 198.419 464.527 199.283 460.664Z" fill="white"/>
<path d="M199.291 512.28C198.396 508.285 198.419 464.527 199.283 460.664C199.854 468.808 199.409 480.584 199.491 489.083C199.546 494.863 199.78 507.15 199.291 512.28Z" fill="#878788"/>
<path d="M208.784 465.003C210.359 464.938 211.759 464.903 213.074 465.851C215.783 467.805 215.519 479.29 214.015 481.052L206.971 481.142C206.999 476.215 205.866 468.455 208.784 465.003Z" fill="#272729"/>
<path d="M213.748 479.938C212.125 480.04 209.705 480.288 208.417 479.361C207.917 475.935 206.728 467.674 210.371 465.88C212.162 466.011 212.39 466.276 213.798 467.435C214.341 469.986 214.308 477.432 213.748 479.938Z" fill="white"/>
<path d="M213.799 467.435C214.341 469.986 214.308 477.432 213.748 479.938C213.26 476.633 213.474 470.731 213.799 467.435Z" fill="#686668"/>
<path d="M223.778 464.924C226.427 465.069 226.276 464.855 228.071 466.137C229.742 468.901 230.167 479.167 228.541 481.13L221.903 481.233C221.968 476.587 220.65 468.129 223.778 464.924Z" fill="#39393B"/>
<path d="M223.568 465.929C224.112 465.93 224.724 465.971 225.268 465.977C229.922 466.024 228.243 477.23 227.941 480.103C226.393 480.073 224.372 480.281 223.251 479.385C222.79 476.521 222.761 468.647 223.568 465.929Z" fill="white"/>
<path d="M119.909 431.954C132.947 432.565 151.216 432.036 164.637 432.042C167.37 441.015 169.712 450.069 172.494 459.036L165.117 458.943C147.587 459.091 130.055 459.077 112.525 458.902C115.039 450.889 117.96 440.127 119.909 431.954Z" fill="#B2C1C5"/>
<path d="M240.12 454.069L261.015 454.046L261.087 493.99C261.093 497.727 261.379 510.53 260.619 513.3C259.253 514.76 259.833 514.54 258.125 514.985L236.658 515.02C242.06 505.925 235.252 461.311 240.12 454.069Z" fill="white"/>
<path d="M245.862 464.855C247.224 464.923 248.775 465 249.802 465.947C252.105 468.073 252.042 479.535 250.507 481.078L243.66 481.076C243.822 475.546 242.486 468.447 245.862 464.855Z" fill="#272729"/>
<path d="M245.497 465.867C247.087 465.899 247.702 465.745 248.955 466.585C251.159 469.596 250.115 476.119 249.863 479.984C248.139 479.977 246.184 480.224 245.1 479.216C244.703 476.422 244.648 468.466 245.497 465.867Z" fill="white"/>
<path d="M245.372 487.95C247.124 487.898 247.394 487.811 249.01 488.364C252.141 490.889 252.52 501.115 250.856 503.975H243.814C243.819 499.432 243.042 491.247 245.372 487.95Z" fill="#272729"/>
<path d="M245.594 488.806C251.605 489.032 250.133 493.675 250.18 498.226C250.195 499.687 249.976 501.435 249.834 502.91C248.282 502.85 246.066 503.09 245.129 502.285C244.714 499.353 244.691 491.58 245.594 488.806Z" fill="white"/>
<path d="M206.686 489.031L229.962 489.028C229.943 495.32 229.489 509.325 230.65 514.78C228.246 516.135 226.129 514.91 224.438 512.995C222.596 508.09 226.151 494.355 222.563 491.423C221.48 490.538 215.054 490.973 213.016 491.079C212.696 496.39 213.592 510.235 212.132 513.875C209.928 515.32 207.908 516.385 205.697 514.455L206.582 512.17C206.165 508.825 206.384 492.658 206.686 489.031Z" fill="white"/>
<path d="M206.582 512.17C206.165 508.825 206.384 492.658 206.686 489.031C207.159 492.719 207.373 508.65 206.582 512.17Z" fill="#686668"/>
<path d="M214.09 491.935C216.946 491.804 220.036 491.943 222.911 492.014C222.901 498.172 222.858 504.34 223.029 510.5C223.077 512.22 223.883 513.83 223.379 515.065L213.303 515.105C214.459 508.195 213.387 499.352 214.09 491.935Z" fill="white"/>
<path d="M743.246 405.166C750.286 404.867 757.536 405.014 764.601 405.065L764.671 425.965L783.421 425.875C787.191 433.451 794.026 442.077 797.426 450.025C797.161 451.812 797.031 449.904 795.016 451.739C794.796 456.407 794.336 478.691 795.111 482.58C796.151 483.069 797.876 482.987 798.756 482.188C799.421 477.497 799.001 459.319 798.976 453.617L850.791 453.745C851.186 459.004 851.111 470.494 850.591 475.578C849.701 472.531 850.071 458.709 850.106 454.756C833.666 455.07 816.441 454.834 799.946 454.848C799.916 460.79 800.506 478.584 799.711 483.327C797.691 484.858 797.376 483.172 795.291 484.626C794.476 489.866 794.981 508.9 795.011 515.005C803.476 514.975 811.946 514.995 820.416 515.06C820.961 512.23 820.591 502.145 820.446 498.925C821.486 494.246 827.511 493.492 829.811 496.403C832.951 500.385 832.036 509.79 832.001 515.005C836.476 514.945 852.756 515.53 855.916 514.495C856.351 509.37 855.196 490.432 855.041 483.931L822.431 483.981C817.856 483.988 809.236 484.318 805.156 483.66C804.261 482.382 804.591 482.396 804.601 480.455L805.361 479.723C808.621 478.781 850.266 479.236 856.461 479.351L856.551 473.014L863.976 473.095L864.011 441.815L871.966 441.698L871.986 425.94C879.926 425.84 888.026 425.908 895.976 425.894L895.986 441.87C898.551 441.782 901.526 441.868 904.121 441.878C904.221 447.094 904.146 452.484 904.136 457.714L904.596 457.787C910.341 458.647 918.981 457.491 924.571 458.371C918.606 458.934 910.301 458.762 904.116 458.756C921.976 459.477 940.311 458.209 958.191 458.909C958.901 458.937 959.756 459.581 960.276 460.051L960.946 459.796C962.241 462.074 968.006 471.592 967.641 473.499C965.476 474.007 964.126 473.567 963.176 474.621C962.976 478.1 963.031 481.479 963.051 484.958L976.566 484.978C978.511 486.501 987.976 493.532 988.306 495.085L987.996 495.559C986.731 495.584 985.101 495.338 983.821 495.188C983.716 501.805 983.666 508.42 983.676 515.04L1024 514.99V516.07L831.006 516.08C830.851 512.69 831.676 499.276 829.311 497.515C818.301 489.321 821.276 511.895 821.411 516.14C805.586 516.15 688.021 516.995 685.631 515.395C684.201 514.435 683.106 512.015 682.966 510.355C682.721 507.465 683.281 503.955 685.291 501.8C685.661 501.4 685.451 501.53 686.081 501.5C684.726 505.41 682.186 510.805 685.691 514.275C687.476 515.01 689.776 515.38 691.606 514.62C692.371 512.19 692.001 494.599 691.981 490.99C689.706 491.004 687.196 490.857 684.901 490.769C690.316 486.213 695.566 482.294 700.931 477.511L724.731 477.546C724.641 473.949 725.141 452.059 724.266 450.614C723.086 450.444 722.191 450.47 721.311 449.71C724.116 444.362 733.956 432.967 737.631 427.295C738.661 425.704 740.211 425.959 742.316 425.735C743.621 423.889 742.996 409.045 743.246 405.166Z" fill="#272729"/>
<path d="M904.114 458.755C921.974 459.477 940.309 458.208 958.189 458.909C958.899 458.937 959.754 459.581 960.274 460.05C961.754 463.819 964.854 469.332 966.959 472.807C964.924 472.77 961.794 472.335 960.329 473.531C956.524 474.336 947.884 473.924 943.869 473.797C942.944 473.2 941.029 473.794 939.789 473.672C936.944 473.394 928.774 470.553 926.534 472.047L928.614 472.467C924.984 472.467 919.714 472.3 916.459 473.797C914.799 472.774 907.734 473.819 904.514 473.026L904.134 472.188C903.949 468.342 904.104 463.389 904.129 459.468L904.114 458.755Z" fill="#B2C1C5"/>
<path d="M943.869 473.798C947.234 472.511 957.179 472.266 960.329 473.532C956.524 474.337 947.884 473.924 943.869 473.798Z" fill="#E9DFE2"/>
<path d="M904.129 459.468C904.614 463.826 904.739 467.831 904.134 472.189C903.949 468.343 904.104 463.389 904.129 459.468Z" fill="#272729"/>
<path d="M963.099 486.1L976.564 486.187C980.074 489.027 984.729 492.586 987.994 495.558C986.729 495.584 985.099 495.337 983.819 495.188C982.259 494.137 980.169 494.405 978.164 494.388C974.389 494.484 970.284 494.407 966.479 494.407C964.274 494.402 964.599 494.766 963.329 493.663C962.479 491.184 963.174 488.838 963.099 486.1Z" fill="#B2C1C5"/>
<path d="M966.48 494.407C970.545 493.777 974.09 493.587 978.165 494.388C974.39 494.484 970.285 494.407 966.48 494.407Z" fill="#272729"/>
<path d="M928.616 472.468C929.856 472.586 932.081 472.728 933.201 473.038L932.996 473.587L934.151 473.457C931.236 474.384 919.676 474.105 916.461 473.797C919.716 472.3 924.986 472.467 928.616 472.468Z" fill="white"/>
<path d="M873.1 427.039L894.815 426.995C894.67 432.333 894.63 437.673 894.69 443.012L902.97 442.918L902.94 474.395L910.515 474.452L910.48 515.01L895.25 515.005L857.645 515.045C857.49 501.295 857.93 488.01 857.65 474.029L865.025 474.028C864.89 463.705 864.955 453.228 864.925 442.892L873.06 442.853L873.1 427.039Z" fill="white"/>
<path d="M862.744 479.492C876.379 479.112 891.314 479.435 905.039 479.499L905.099 487.066C891.014 486.994 876.934 486.995 862.849 487.07L862.744 479.492Z" fill="#39393B"/>
<path d="M863.755 480.544C873.89 480.524 894.105 479.877 903.445 480.736C904.24 482.17 903.975 484.129 903.945 485.87C897.125 486.063 889.22 485.604 882.25 485.799C879.35 485.88 866.21 485.961 864.255 485.56C863.495 484.049 863.73 482.306 863.755 480.544Z" fill="white"/>
<path d="M863.06 491.774C866.8 492.529 899.07 492.292 904.57 492.085C905.265 494.151 905.06 497.4 905.04 499.678L862.475 499.624C862.46 496.99 862.29 494.279 863.06 491.774Z" fill="white"/>
<path d="M904.57 492.085C905.265 494.151 905.06 497.4 905.04 499.678L862.475 499.624C862.46 496.99 862.29 494.279 863.06 491.774L864.645 492.762L863.87 493.32C863.6 495.086 863.215 496.293 863.8 497.948C865.295 498.818 899.615 498.759 903.345 498.366C904.265 497.101 904.045 494.994 904.005 493.349L904.57 492.085Z" fill="#39393B"/>
<path d="M863.061 491.774C866.801 492.529 899.071 492.292 904.571 492.085L904.006 493.349C892.251 493.871 875.731 493.561 863.871 493.32L864.646 492.762L863.061 491.774Z" fill="#686668"/>
<path d="M869.57 454.02L898.46 454.127C898.505 456.991 898.5 459.065 898.28 461.912C889.665 461.38 878.255 461.711 869.425 461.741C869.41 459.189 869.505 456.576 869.57 454.02Z" fill="#39393B"/>
<path d="M870.555 455.22C876.655 455.362 891.37 454.898 896.385 455.63C897.3 457.168 897.02 458.824 896.98 460.695C890.05 460.341 877.15 461.121 871.085 460.275C870.245 458.844 870.52 456.979 870.555 455.22Z" fill="white"/>
<path d="M869.461 466.898C878.606 466.616 889.156 466.891 898.411 466.909L898.431 474.431C889.996 473.95 878.161 474.333 869.471 474.363L869.461 466.898Z" fill="#272729"/>
<path d="M870.505 467.966C875.08 467.987 893.165 467.754 896.395 468.304C897.31 469.653 897.05 471.454 897.04 473.196C893.3 473.222 873.51 473.507 871.155 472.902C870.18 471.341 870.455 469.876 870.505 467.966Z" fill="white"/>
<path d="M875.625 434.987L892.375 434.983L892.415 441.332C886.925 441.223 881.12 441.32 875.605 441.322L875.625 434.987Z" fill="#272729"/>
<path d="M876.771 436.073C881.611 436.222 885.856 435.298 890.191 436.535C891.471 437.884 891.076 437.884 891.181 440.116C886.606 439.969 881.256 440.917 877.501 439.617C876.376 438.343 876.761 438.16 876.771 436.073Z" fill="white"/>
<path d="M868.836 448.713C872.141 448.298 896.061 448.221 898.186 448.824L898.216 449.774C896.346 449.688 894.446 449.79 892.566 449.778C884.986 449.73 877.341 450.13 869.776 449.636C869.461 449.329 869.151 449.021 868.836 448.713Z" fill="#39393B"/>
<path d="M782.081 432.178C783.741 432.873 792.386 448.655 793.926 451.327C793.936 472.043 794.366 494.472 793.816 515.015H757.011C757.001 508.905 756.676 496.768 757.181 491.068C757.796 490.765 758.366 490.469 758.896 490.03C759.216 480.041 758.751 460.479 758.076 450.49L772.146 450.529C773.946 447.355 775.806 444.171 777.441 440.911C779.266 437.786 780.566 435.512 782.081 432.178Z" fill="white"/>
<path d="M770.871 494.775L771.421 494.753C772.886 496.498 772.206 505.685 772.151 508.485H764.631C763.966 507.22 764.266 497.092 764.286 494.961L770.871 494.775Z" fill="#272729"/>
<path d="M765.461 495.93L765.911 495.912C768.456 495.822 768.966 495.534 770.556 497.002C771.531 499.233 770.996 504.445 770.956 507.345C770.346 507.385 769.731 507.41 769.121 507.43C767.096 507.47 766.981 507.435 765.801 506.275C764.886 504.035 765.416 498.822 765.461 495.93Z" fill="white"/>
<path d="M779.135 494.979L787.085 494.93L787.065 508.42L779.055 508.41L779.135 494.979Z" fill="#272729"/>
<path d="M780.461 495.979C781.026 495.952 781.591 495.933 782.156 495.922C784.431 495.895 784.326 495.907 785.576 497.149C786.556 499.637 785.971 504.33 785.881 507.385C784.106 507.395 782.221 507.3 780.436 507.235L780.461 495.979Z" fill="white"/>
<path d="M766.135 456.715L772.49 456.781C772.51 459.614 772.8 467.779 772.145 470.024L771.065 470.383L764.555 470.374C764.515 467.396 764.205 459.619 764.88 457.256L766.135 456.715Z" fill="#39393B"/>
<path d="M765.58 457.986C768.49 457.876 769.115 457.482 770.965 459.053C771.915 461.134 771.41 466.365 771.39 469.169C767.175 469.314 765.045 469.46 765.485 464.175C765.635 462.411 765.575 459.806 765.58 457.986Z" fill="white"/>
<path d="M779.625 475.703L787.05 475.683L787 489.448L779.6 489.412L779.625 475.703Z" fill="#272729"/>
<path d="M780.53 476.593C782.38 476.504 783.705 476.181 785.16 477.18C787.07 480.011 785.84 484.111 786.02 488.198C778.38 492.205 780.35 480.475 780.53 476.593Z" fill="#B2C1C5"/>
<path d="M786.02 488.198C778.38 492.205 780.35 480.475 780.53 476.593C781.18 480.662 780.345 485.249 781.625 487.419C783.285 488.429 783.86 488.109 786.02 488.198Z" fill="#272729"/>
<path d="M764.69 475.591L772.23 475.617C772.19 478.424 772.45 487.277 771.89 489.362L764.66 489.369C764.73 484.809 764.69 480.159 764.69 475.591Z" fill="#434447"/>
<path d="M767.386 476.353C768.141 476.455 769.831 476.484 770.191 477.023C771.681 479.27 771.701 486.831 769.871 488.453C768.756 488.397 768.086 488.328 766.981 488.175C764.681 485.705 765.781 480.378 766.191 477.37C766.256 476.882 766.916 476.662 767.386 476.353Z" fill="#B2C1C5"/>
<path d="M779.615 456.977C781.59 456.714 784.97 456.805 787.08 456.802L787.105 470.445L779.635 470.426C779.81 465.872 779.705 461.528 779.615 456.977Z" fill="#39393B"/>
<path d="M780.66 457.958C783.255 457.948 783.435 457.536 785.355 458.674C786.94 461.353 785.91 465.569 786.01 469.207L780.765 469.301C780.3 466.722 780.19 460.528 780.66 457.958Z" fill="white"/>
<path d="M780.765 469.301C780.3 466.721 780.19 460.528 780.66 457.958C781.075 460.815 781.185 466.422 780.765 469.301Z" fill="#878788"/>
<path d="M747.26 438.381C749.91 441.213 754 446.904 757.08 450.435C757.665 463.071 757.595 475.925 757.65 488.589C753.565 485.906 749.575 483.079 745.685 480.116L742.015 477.525L725.855 477.516L725.85 450.352L736.12 450.476C739.94 446.072 743.155 442.508 747.26 438.381Z" fill="white"/>
<path d="M731.05 456.865L738.99 456.893L739.04 470.353L730.99 470.255L731.05 456.865Z" fill="#272729"/>
<path d="M732.341 457.903L732.82 457.887C735.305 457.816 735.93 457.542 737.495 459.01C738.46 461.226 737.905 466.234 737.865 469.096C734.26 469.256 731.646 469.573 732.081 464.716C732.281 462.492 732.311 460.145 732.341 457.903Z" fill="white"/>
<path d="M747.12 456.747L753.77 456.847C753.855 459.378 754.45 468.669 753.345 470.367L745.965 470.408C745.93 467.281 745.705 460.101 746.19 457.327L747.12 456.747Z" fill="#272729"/>
<path d="M747.099 457.895L747.575 457.879C751.86 457.752 753.129 458.159 752.969 462.967C752.904 464.923 752.87 467.048 752.815 469.019C752.235 469.068 751.655 469.11 751.07 469.145C745.025 469.494 747.054 462.586 747.099 457.895Z" fill="white"/>
<path d="M911.66 474.399C920.67 474.827 927.655 475.229 936.955 475.392C936.925 482.589 936.23 509.625 937.865 515.045L911.675 515.025L911.66 474.399Z" fill="white"/>
<path d="M960.879 474.81L961.244 474.647L961.784 474.981C962.159 478.463 961.914 485.049 961.904 488.853L961.909 514.97L939.639 515.005C937.059 512.06 938.204 480.939 938.244 475.04C945.619 475.164 953.569 475.448 960.879 474.81Z" fill="white"/>
<path d="M739.171 427.064C751.716 427.764 769.881 427.125 782.806 427.032C786.521 433.456 794.856 446.168 797.541 452.352C790.991 447.075 785.396 432.399 782.471 430.609L781.931 431.224L782.081 432.178C780.566 435.512 779.266 437.786 777.441 440.911L776.726 440.689C774.966 443.513 773.426 446.273 771.801 449.17C769.086 449.666 761.041 449.606 758.246 449.144C758.241 445.051 757.471 440.971 756.841 436.918L746.721 436.918C744.236 440.33 738.996 445.756 735.976 449.157L722.936 449.174C728.201 442.538 734.301 434.013 739.171 427.064Z" fill="#B2C1C5"/>
<path d="M758.244 449.145C761.324 448.951 768.859 448.66 771.799 449.171C769.084 449.666 761.039 449.606 758.244 449.145Z" fill="#272729"/>
<path d="M726.441 490.884L756.011 490.962C755.916 498.902 756.026 507.06 756.046 515.02L726.436 515.03L726.441 490.884Z" fill="white"/>
<path d="M746.846 494.693L753.931 494.861C753.986 497.426 754.506 506.71 753.351 508.385L745.986 508.375C745.961 505.62 745.386 496.296 746.846 494.693Z" fill="#272729"/>
<path d="M747.15 495.796C747.74 495.781 748.33 495.773 748.925 495.771C754.905 495.765 752.91 502.595 752.925 507.385L747.1 507.34L747.15 495.796Z" fill="white"/>
<path d="M731.5 494.931L739.365 494.842C739.175 499.771 739.225 503.385 739.455 508.315C737.88 508.555 733.285 508.465 731.475 508.47L731.5 494.931Z" fill="#39393B"/>
<path d="M732.634 495.892C737.644 495.782 738.599 496.2 738.149 501.735C738.019 503.32 738.069 505.67 738.064 507.32H732.619L732.634 495.892Z" fill="white"/>
<path d="M721.38 478.746L742.195 478.748C747.325 482.615 752.535 486.375 757.82 490.025C746.56 489.763 734.13 489.839 722.875 489.948L687.5 489.924C691.635 486.29 696.975 482.232 701.34 478.737C707.81 478.935 714.87 478.772 721.38 478.746Z" fill="white"/>
<path d="M693.24 490.936L725.05 490.917L725.03 515.065L715.155 515.06L715.085 505.875L715.075 496.866L704.815 496.84L704.72 515.04L693.215 515.055L693.24 490.936Z" fill="white"/>
<path d="M963.059 495.539C969.504 495.443 976.164 495.539 982.624 495.547L982.549 515.05L963.129 515.01C962.949 508.71 963.069 501.88 963.059 495.539Z" fill="white"/>
<path d="M965.65 499.513L979.685 499.544L979.835 508.97L965.655 509.035C965.76 505.985 965.665 502.595 965.65 499.513Z" fill="#272729"/>
<path d="M966.74 500.555C970.58 500.615 974.69 500.52 978.555 500.49L978.565 507.9L966.805 507.91L966.74 500.555Z" fill="white"/>
<path d="M744.005 406L763.555 405.987L763.505 425.957C761.535 426.031 759.28 426.322 757.505 425.656L757.175 424.539L757.205 417.656C754.35 417.648 751.425 417.713 748.565 417.744C748.595 419.883 748.95 424.088 747.92 425.763C746.21 425.957 746.115 425.987 744.47 425.578C743.665 423.614 743.99 409.085 744.005 406Z" fill="white"/>
<path d="M705.949 497.976H714.029L714.049 515.035L705.979 515.06L705.949 497.976Z" fill="white"/>
<path d="M805.01 480.617C808.905 480.082 855.215 480.201 856.285 480.798L856.835 482.895C845.01 482.116 831.395 483.035 819.425 482.761C816.805 482.702 807.915 483.089 805.815 482.552L805.01 480.617Z" fill="white"/>
<path d="M749.419 418.655C751.729 418.638 753.664 418.659 755.969 418.79L756.004 425.966L749.769 425.966C749.309 424.395 749.429 420.492 749.419 418.655Z" fill="#B2C1C5"/>
<path d="M749.419 418.655C751.729 418.638 753.664 418.659 755.969 418.79C753.509 418.928 751.604 418.625 749.999 420.201C749.664 422.142 749.749 424.003 749.769 425.966C749.309 424.395 749.429 420.492 749.419 418.655Z" fill="#272729"/>
<path d="M748.664 438.166L755.969 438.168C756.449 441.901 756.844 445.046 757.039 448.823C755.324 446.963 749.564 440.156 748.664 438.166Z" fill="#B2C1C5"/>
<path d="M68.3582 489.867L73.4683 489.877C81.2423 490.072 89.7253 489.917 97.5513 489.923L97.5787 515.05C89.4922 514.935 81.1197 515.06 73.0107 515.08L73.0337 497.564L63.1447 497.554L63.1937 515.03L56.0077 515.02C55.8992 506.715 56.0052 498.167 56.0082 489.841C60.1237 489.973 64.2422 489.982 68.3582 489.867Z" fill="white"/>
<path d="M79.4449 497.551L89.9854 497.607L90.0224 506.995L79.3984 507.035L79.4449 497.551Z" fill="#39393B"/>
<path d="M80.5124 498.853L89.0599 498.82L88.9809 505.89L80.4219 505.965L80.5124 498.853Z" fill="white"/>
<path d="M786.8 378.887L810.98 378.947C810.91 398.193 816.7 394.274 832.96 394.545C832.855 409.57 833.135 425.141 832.805 440.079C836.815 440.081 840.945 440.029 844.94 440.088C844.94 433.961 844.17 412.905 845.895 408.666C849.29 406.424 862.33 406.68 867.19 406.927C881.77 407.667 884.93 403.209 884.085 418.502L908.84 418.592C908.77 413.034 908.77 407.476 908.85 401.919C915.805 401.933 923.06 401.851 929.99 401.978L929.965 457.494C934.165 457.493 958.005 456.907 960.185 458.328L960.945 459.796L960.275 460.05C959.755 459.581 958.9 458.937 958.19 458.909C940.31 458.208 921.975 459.477 904.115 458.755C910.3 458.762 918.605 458.934 924.57 458.37C918.98 457.491 910.34 458.646 904.595 457.787L904.135 457.714C911.665 457.292 920.995 457.536 928.69 457.554C928.62 439.897 928.305 420.606 928.8 403.045L909.99 403.065L910.02 419.603L883.14 419.56C883.16 416.857 883.425 411.374 882.71 409.009C880.01 407.219 850.96 407.779 846.735 409.095C845.195 412.637 845.97 435.647 845.825 441.273L831.55 441.42C831.57 426.806 831.185 409.952 831.735 395.602C816.345 395.776 809.925 398.192 810.07 379.933L787.86 379.935C787.885 384.787 788.55 422.521 787.15 424.506C786.06 412.513 786.905 391.572 786.8 378.887Z" fill="#39393B"/>
<path d="M95.084 489.009C96.237 489.098 98.0035 489.007 98.732 489.604C98.516 498.28 98.6675 507.415 98.774 516.12C89.8455 516.075 80.917 516.075 71.989 516.12L72.0045 498.687L64.425 498.866L64.4125 516.11C43.4455 516.12 20.8349 516.56 0 515.99V515.255C2.4359 514.78 14.274 514.95 17.409 514.955L54.9375 515.01C54.894 509.845 54.516 493.765 55.4165 489.706L56.009 489.841C56.006 498.167 55.9 506.715 56.0085 515.02L63.1945 515.03L63.1455 497.554L73.0345 497.564L73.0115 515.08C81.1205 515.06 89.493 514.935 97.5795 515.05L97.552 489.923C89.726 489.917 81.243 490.072 73.469 489.877C78.214 488.785 89.4355 489.163 95.084 489.009Z" fill="#272729"/>
<path d="M141.525 401.046C145.651 402.877 144.197 411.302 143.865 415.213L143.274 415.323C141.998 410.641 144.628 405.153 141.764 401.917L141.525 401.046Z" fill="#272729"/>
<path d="M820.446 498.925C820.591 502.145 820.961 512.23 820.416 515.06C819.821 511.875 819.706 501.995 820.446 498.925Z" fill="#878788"/>
<path d="M578.955 335.396L633.94 335.405C635.375 338.341 638.32 344.224 638.605 347.244C639.775 359.623 639.12 375.003 639.02 387.494C643.6 387.474 648.425 387.384 652.98 387.512L652.96 364.991C659.105 364.972 689.88 364.34 693.655 365.825C695.52 370.552 694.625 423.062 694.495 431.501C697.825 431.439 708.635 431.065 711.22 431.789L710.99 432.585C708.305 432.105 696.835 432.383 693.485 432.414C693.885 410.881 693.75 387.538 693.475 366.009C680.53 365.806 667.045 366.008 654.055 366.014L654.05 388.484L637.985 388.442L637.945 347.566L575.135 347.544L575.18 409.461C579.835 409.431 599.965 408.493 602.625 410.762C604.355 416.37 603.73 443.725 603.73 450.94L603.685 514.99L614.005 514.965L613.99 436.583L607.735 436.398C613.795 426.174 623.975 412.563 631.09 402.586L654.37 402.624C656.865 406.821 674.37 434.056 674.13 436.303L670.71 436.594C669.75 437.803 669.7 507.875 670.255 514.47L670.775 514.825C672.695 515.025 673.335 515.155 675.255 514.745C680.41 510.22 669.735 502.22 679.48 496.35L680.045 496.011C678.765 492.403 677.7 487.413 674.34 485.479C674.44 477.8 673.665 468.202 680.675 463.043C685.015 459.847 686.95 461.945 690.665 461.409C693.415 442.113 717.7 443.42 720.385 449.449C717.815 449.714 710.6 444.232 702.68 447.492C692.915 451.511 689.85 459.348 693.165 469.387L693.385 470.039C695.755 470.422 697.85 471.039 700.155 471.672C701.145 469.32 702.09 466.994 703.405 464.797C704.63 462.745 709.025 459.776 711.315 461.333C703.11 464.264 704.21 464.784 700.715 472.793L693.085 470.883C686.51 472.919 686.57 473.142 684.355 479.79L683.63 479.013C683.03 474.616 688.89 471.341 692.325 469.853C691.48 467.724 690.93 463.829 690 462.619C689.285 462.231 688.15 461.666 687.335 461.806C674.28 464.058 675.855 475.257 675.95 484.729C677.44 486.57 681.86 495.473 681.095 497.579C679.39 497.431 679.275 497.361 677.83 498.143C672.285 505.065 684.36 515.2 672.295 515.88C664.795 516.305 656.945 516.11 649.405 516.12L608.72 516.15L561.1 516.17C552.135 516.17 541.46 516.405 532.605 515.895L532.425 515.51C534.505 515.225 536.22 515.185 537.585 513.785L537.54 423.254L537.615 399.315C537.63 396.439 537.835 386.778 537.295 384.495C535.385 376.384 531.445 366.357 528.66 358.215C525.295 359.538 522.415 360.365 518.97 361.369C519.56 412.639 518.86 464.708 519.05 516.095L467.475 516.14C458.502 516.14 448.839 515.82 439.961 516.17L440.009 403.633L448.828 403.599L448.785 396.978C465.162 396.692 481.542 396.684 497.919 396.954L497.858 403.582L506.47 403.686C505.965 440.34 506.37 478.325 506.385 515.05L517.67 515.03L517.6 406.989C517.595 391.888 517.94 375.819 517.65 360.835C520.145 359.993 526.385 357.826 528.73 357.562C538.665 356.444 550.87 356.924 560.99 356.93C563.71 364.608 568.01 374.926 570.275 382.22L569.53 383.051L569.42 383.447C569.4 388.661 569.06 404.601 569.685 408.938C570.865 409.482 572.155 409.271 573.485 409.204C575.875 405.152 572.03 352.985 575.025 344.805C576.175 341.657 577.615 338.484 578.955 335.396Z" fill="#39393B"/>
<path d="M529.926 358.255C539.596 358.271 550.631 358.521 560.191 358.068C563.106 366.468 566.221 374.798 569.531 383.051L569.421 383.447C563.031 382.323 546.236 383.375 538.526 383.068C535.541 375.206 532.541 366.244 529.926 358.255Z" fill="#B2C1C5"/>
<path d="M449.984 404.885L496.864 404.941L496.642 514.84C494.267 515.225 483.747 515.035 481.014 515.025L449.997 515.01L449.984 404.885Z" fill="white"/>
<path d="M480.954 454.957L490.076 454.938C490.112 457.805 490.372 463.16 489.772 465.759L480.924 465.775L480.954 454.957Z" fill="#B2C1C5"/>
<path d="M456.038 470.624L465.072 470.631C465.119 474.153 465.087 477.676 464.974 481.197L455.971 481.27L456.038 470.624Z" fill="#434447"/>
<path d="M457.128 471.911L463.923 471.974L463.96 480.082L457.008 480.019C457.323 476.941 457.243 475.028 457.128 471.911Z" fill="#B2C1C5"/>
<path d="M456.468 439.706L465.078 439.753C465.117 443.282 465.255 447.015 464.893 450.509L455.978 450.479C455.965 447.967 455.658 441.704 456.468 439.706Z" fill="#434447"/>
<path d="M457.247 440.871L463.998 440.956C464.091 443.377 464.628 447.579 463.286 449.405L462.132 449.419C455.094 450.021 456.72 446.442 457.247 440.871Z" fill="#B2C1C5"/>
<path d="M462.132 449.419C455.094 450.021 456.72 446.442 457.247 440.871L457.327 441.383C457.764 444.28 457.036 446.834 457.897 448.529C459.249 449.53 460.399 449.356 462.132 449.419Z" fill="#272729"/>
<path d="M468.6 470.648L477.373 470.619L477.396 481.108L468.566 481.15L468.6 470.648Z" fill="#434447"/>
<path d="M469.603 472L476.135 471.94L476.465 479.984L469.599 479.947L469.603 472Z" fill="#B2C1C5"/>
<path d="M538.9 384.398L568.07 384.4V515.01L538.93 514.985L538.9 384.398Z" fill="white"/>
<path d="M542.145 501.75C545.53 501.37 562.789 500.925 565.164 502.435C561.699 503.39 550.849 502.885 546.844 503.005C544.759 503.07 543.475 503.125 542.145 501.75Z" fill="#39393B"/>
<path d="M546.99 471.737C550.755 471.722 560.285 471.593 563.695 472.373L563.42 472.832L560.15 472.979C556.89 473.008 545.725 473.254 542.93 472.374C544.11 471.637 545.415 471.828 546.99 471.737Z" fill="#39393B"/>
<path d="M557.855 486.75C560.105 486.71 561.33 486.826 563.55 487.06L563.655 487.45C559.245 488.185 555.575 488.016 551.125 487.974C548.13 488.043 546.625 487.96 543.635 487.629L543.705 487.33C548.57 486.594 552.94 486.733 557.855 486.75Z" fill="#39393B"/>
<path d="M541.654 442.267C544.899 441.67 562.379 441.097 564.934 442.743C561.054 443.148 544.554 443.528 541.654 442.267Z" fill="#39393B"/>
<path d="M542.125 397.261C545.865 396.779 562.205 396.514 565.19 397.746C561.88 398.277 544.725 398.739 542.125 397.261Z" fill="#272729"/>
<path d="M541.855 412.255C545.445 411.761 562.5 411.461 565.255 412.745C561.74 413.216 544.505 413.612 541.855 412.255Z" fill="#272729"/>
<path d="M541.881 457.255C545.116 456.773 562.306 456.354 564.886 457.744C561.371 458.184 544.411 458.566 541.881 457.255Z" fill="#272729"/>
<path d="M542.006 427.258C545.481 426.77 562.296 426.452 564.971 427.751C561.621 428.218 544.436 428.606 542.006 427.258Z" fill="#272729"/>
<path d="M569.475 410.599C574.905 410.651 598.44 409.866 601.73 411.405C603.125 416.098 602.63 440 602.63 446.061L602.535 515.005L569.465 514.99L569.475 410.599Z" fill="white"/>
<path d="M633.21 408.402C634.05 409.369 634.91 410.813 635.62 411.922C640.6 419.656 645.305 427.542 650.495 435.14L650.49 515.015L632.75 514.985H615.07C614.65 489.089 614.795 460.904 615.115 434.981C619.875 426.942 627.685 416.169 633.21 408.402Z" fill="white"/>
<path d="M636.98 479.039L643.975 479.003L644 491.997L636.965 492.056L636.98 479.039Z" fill="#272729"/>
<path d="M638.046 479.987C640.486 479.891 641.041 479.6 642.591 480.996C643.601 483.446 643.046 488.057 642.961 491.065C640.601 491.105 639.961 491.394 638.446 490.033C637.451 487.664 638.011 482.901 638.046 479.987Z" fill="white"/>
<path d="M619.036 461.039L626.016 460.947L626.026 474.027L619.016 473.951L619.036 461.039Z" fill="#272729"/>
<path d="M620.04 461.926C622.48 461.857 623.045 461.576 624.58 462.972C625.53 465.397 624.995 469.854 624.935 472.851C621.365 473.043 619.59 472.961 619.84 468.562C619.965 466.353 620.015 464.141 620.04 461.926Z" fill="white"/>
<path d="M619.05 442.622L626.04 442.682V455.651L619.01 455.532L619.05 442.622Z" fill="#272729"/>
<path d="M620.13 443.681C622.625 443.621 623.035 443.295 624.575 444.716C625.53 447.148 624.995 451.601 624.95 454.573C622.615 454.593 621.95 454.877 620.475 453.516C619.54 451.14 620.085 446.619 620.13 443.681Z" fill="white"/>
<path d="M636.975 461.004C639.105 460.903 641.785 460.976 643.96 460.974L643.98 473.927L636.965 474.019L636.975 461.004Z" fill="#272729"/>
<path d="M638.015 461.993C640.43 461.938 641.035 461.642 642.6 463.001C643.59 465.403 643.035 469.89 642.975 472.884C638.695 473.133 637.54 472.767 637.875 467.939C638.005 466.085 637.995 463.88 638.015 461.993Z" fill="white"/>
<path d="M637.11 442.657L643.975 442.689L643.97 455.588L636.975 455.631C636.94 451.201 636.91 447.085 637.11 442.657Z" fill="#272729"/>
<path d="M638.055 443.585C642.275 443.417 643.445 443.732 643.15 448.608C643.04 450.51 643.01 452.739 642.975 454.67C640.51 454.642 639.945 454.93 638.415 453.505C637.43 451.061 637.98 446.591 638.055 443.585Z" fill="white"/>
<path d="M620.26 478.733L626.135 478.879C626.16 481.418 626.605 490.464 625.45 492.04L619.145 492.002C619.09 488.628 618.83 482.393 619.3 479.352L620.26 478.733Z" fill="#272729"/>
<path d="M620.06 480.952C620.66 479.754 620.22 480.229 621.525 479.588C622.52 479.829 623.74 479.825 624.185 480.825C625.74 484.288 626.55 487.491 624.025 490.754C622.68 491.4 621.675 491.16 620.165 491.049C619.565 489.282 619.965 483.133 620.06 480.952Z" fill="#B2C1C5"/>
<path d="M620.06 480.952C620.77 484.429 620.7 487.554 620.165 491.049C619.565 489.282 619.965 483.133 620.06 480.952Z" fill="#272729"/>
<path d="M631.264 423.26C633.909 422.636 636.569 424.241 637.249 426.872C637.929 429.504 636.379 432.196 633.764 432.931C632.019 433.42 630.149 432.929 628.874 431.647C627.594 430.365 627.114 428.492 627.609 426.752C628.104 425.012 629.504 423.676 631.264 423.26Z" fill="#272729"/>
<path d="M631.39 424.268C633.445 423.733 635.555 424.908 636.185 426.936C636.81 428.963 635.735 431.126 633.74 431.845C632.365 432.341 630.825 432.041 629.74 431.064C628.65 430.088 628.19 428.592 628.535 427.172C628.88 425.752 629.975 424.636 631.39 424.268Z" fill="white"/>
<path d="M651.595 436.533L668.945 436.563L668.93 515.045L651.735 515.06C651.06 490.068 651.635 461.802 651.595 436.533Z" fill="white"/>
<path d="M657.926 442.544L664.386 442.555L664.411 455.501L657.941 455.529L657.926 442.544Z" fill="#272729"/>
<path d="M658.915 443.634C661.01 443.473 660.995 443.167 662.8 443.978C664.435 446.529 663.65 450.854 663.43 454.028C661.88 454.792 660.815 455.024 659.455 453.964C658.64 451.414 658.935 446.598 658.915 443.634Z" fill="#B2C1C5"/>
<path d="M658.914 443.634C661.009 443.473 660.994 443.167 662.799 443.978C664.434 446.529 663.649 450.854 663.429 454.028C662.594 450.493 663.694 447.354 662.559 444.807C661.109 443.556 661.034 443.895 658.914 443.634Z" fill="#272729"/>
<path d="M658.16 478.681L664.395 478.682C664.445 483.129 664.57 487.66 664.3 492.092L657.815 492.053C657.825 489.394 657.555 480.604 658.16 478.681Z" fill="#434447"/>
<path d="M658.999 479.956C661.174 480.073 661.345 479.698 662.71 480.927C663.715 483.586 663.259 487.785 663.224 490.914C662.169 490.957 661.25 490.883 660.2 490.82C658.135 488.606 659.044 483.648 658.999 479.956Z" fill="#B2C1C5"/>
<path d="M446.108 404.749C446.92 404.707 447.523 404.774 448.327 404.828C448.5 405.063 448.828 405.46 448.808 405.739C447.978 417.237 450.274 512.075 448.214 515.16L445.625 515.185C443.932 515.275 442.621 515.56 441.185 514.775C440.817 511.68 440.999 504.685 441.002 501.305L441.041 476.077C441.089 452.83 440.661 428.52 441.17 405.421C442.454 404.52 444.413 404.762 446.108 404.749Z" fill="white"/>
<path d="M497.843 404.919L505.196 404.891L504.991 515.035L497.756 515.02L497.843 404.919Z" fill="white"/>
<path d="M631.54 403.962C638.77 404.105 646.71 403.93 653.995 403.896C659.68 414.218 666.955 425.432 673.275 435.513C666.52 435.265 658.815 435.405 651.985 435.379C648.165 429.595 644.42 423.763 640.75 417.883C638.42 414.06 636.105 409.977 633.285 406.527C628.23 412.537 617.28 431.416 613.345 435.13C611.91 435.455 611.77 435.551 610.375 435.262C610.165 433.465 629.095 407.443 631.54 403.962Z" fill="#B2C1C5"/>
<path d="M579.615 336.529L633.45 336.482C634.475 338.921 637.64 343.991 636.765 346.315L635.125 346.422C615.585 346.13 595.455 346.339 575.875 346.388L579.615 336.529Z" fill="#B2C1C5"/>
<path d="M449.924 397.842C454.769 397.35 493.275 396.902 496.99 397.697C496.972 399.814 496.861 401.573 496.707 403.676L468.123 403.579C462.871 403.573 455.394 403.771 450.393 403.293C449.767 402.088 449.937 399.342 449.924 397.842Z" fill="white"/>
<path d="M449.924 397.842C454.77 397.35 493.275 396.902 496.99 397.697C494.249 398.165 482.079 398.11 478.793 398.04C469.675 397.847 458.891 398.421 449.924 397.842Z" fill="#90968C"/>
<path d="M412.522 319.977L458.86 319.934C460.04 323.685 466.482 345.544 466.41 348.423C464.429 349.114 463.627 348.852 461.607 348.525L462.615 348.31L460.122 348.003L460.052 348.596C450.018 349.091 439.145 348.852 429.05 348.926C424.833 348.957 414.521 349.174 410.64 348.659C411.468 353.897 410.976 370.852 411.038 377.003L427.328 377.014C427.262 378.081 426.933 381.705 427.524 382.121C431.362 384.826 430.746 386.636 431.337 390.822C431.386 391.172 434.391 390.748 434.048 392.109C434.187 395.643 434.134 399.513 434.134 402.964L434.111 432.6L434.115 487.219C434.115 490.73 434.659 514.63 433.295 516.08L432.829 515.14C433.362 502.55 432.917 486.997 432.917 474.061L432.98 392.069C415.892 391.804 398.098 392.073 380.954 392.09L381.015 516.02L368.983 515.975C368.892 507.205 369.784 424.024 367.938 422.35C365.112 419.788 348.216 421.012 343.988 421.062C344.023 409.429 344.187 397.797 344.482 386.168C344.562 383.328 345.024 377.006 347.174 375.037C352.049 370.501 370.919 375.118 374.904 370.5C379.077 365.664 372.868 341.984 377.977 337.105C382.821 335.029 398.205 336.828 404.196 336.57C405.156 336.529 405.404 338.701 407.123 339.19C408.111 338.239 411.89 322.449 412.522 319.977Z" fill="#272729"/>
<path d="M413.317 320.922C427.858 321.131 443.663 321.208 458.2 320.948C459.167 324.494 465.041 347.395 466.41 348.423C464.429 349.115 463.627 348.852 461.607 348.526L462.615 348.31L460.122 348.004L460.052 348.596C450.018 349.091 439.145 348.852 429.05 348.926C424.833 348.957 414.521 349.174 410.64 348.659L409.943 348.858L407.168 348.63L407.08 348.013L406.188 347.532C406.175 344.292 412.293 325.813 413.317 320.922Z" fill="#B2C1C5"/>
<path d="M407.078 348.014C420.454 346.607 435.392 347.513 448.924 347.637C450.622 347.652 458.813 347.78 460.12 348.004L460.051 348.597C450.017 349.092 439.144 348.853 429.048 348.926C424.831 348.957 414.52 349.174 410.639 348.659L409.942 348.858L407.167 348.631L407.078 348.014Z" fill="#272729"/>
<path d="M407.167 348.63L409.942 348.858C409.874 353.937 410.386 373.066 409.536 376.624C408.049 377.075 408.771 377.072 407.292 376.658C406.732 375.435 406.734 351.473 407.167 348.63Z" fill="white"/>
<path d="M378.676 336.986C387.197 336.795 396.482 337.561 405.371 337.504C405.417 337.862 405.463 338.22 405.509 338.578C406.301 341.605 405.27 344.495 405.001 347.497C404.903 348.589 405.447 348.871 405.977 349.727C405.949 358.323 406.017 368.525 405.697 376.975L391.927 376.983L391.967 383.451L384.627 383.493C384.673 385.771 384.643 388.049 384.538 390.324C383.177 391.969 382.627 390.024 380.096 391.498C379.346 402.741 379.951 421.652 379.952 433.349L379.936 515.065L372.374 515.095L370.734 514.96C370.508 514.66 370.282 514.36 370.056 514.065C370.123 491.839 370.114 469.613 370.14 447.389C370.146 441.862 370.166 436.333 370.135 430.806C370.119 427.854 370.013 424.849 368.996 422.047C365.468 418.839 350.474 419.974 345.182 420.025C345.519 409.964 343.839 386.241 346.965 376.822C348.606 371.876 366.472 374.548 371.866 373.157C383.36 370.192 372.616 346.815 378.676 336.986Z" fill="white"/>
<path d="M385.476 384.574C400.25 384.8 415.123 384.28 430.01 384.598L430.046 390.991C424.832 390.927 387.907 391.391 386.068 390.497C385.227 388.734 385.467 386.606 385.476 384.574Z" fill="#B2C1C5"/>
<path d="M392.854 378.053C397.895 378.126 422.622 377.644 425.594 378.354C426.342 379.952 426.053 381.558 425.963 383.379C416.198 383.164 402.428 383.89 393.518 383.193C392.635 381.809 392.868 379.809 392.854 378.053Z" fill="white"/>
<path d="M212.271 409.157C213.613 397.379 222.813 397.887 225.286 409.341C242.922 415.27 246.937 423.291 250.644 440.645L250.845 442.308C250.609 442.487 250.194 442.837 249.91 442.827C242.488 442.56 189.811 444.147 187.054 442.318L186.479 440.422C188.674 424.02 195.372 413.432 212.271 409.157Z" fill="#272729"/>
<path d="M186.479 440.422C197.535 439.55 213.136 440.53 224.569 440.214C228.993 440.092 247.219 440.081 250.644 440.645L250.845 442.308C250.609 442.487 250.194 442.837 249.91 442.827C242.488 442.56 189.811 444.147 187.054 442.318L186.479 440.422Z" fill="#E9DFE2"/>
<path d="M187.053 442.318C190.88 441.684 212.546 441.963 217.42 441.973C222.299 441.983 247.3 441.623 250.844 442.307C250.608 442.486 250.193 442.837 249.909 442.826C242.487 442.559 189.81 444.146 187.053 442.318Z" fill="#39393B"/>
<path d="M217.349 409.697C224.983 410.616 226.822 433.231 227.022 439.586L220.626 439.528L209.641 439.533C209.471 429.507 211.479 417.968 217.349 409.697Z" fill="#B2C1C5"/>
<path d="M220.119 409.901C233.636 412.947 239.289 427.241 240.558 439.585C236.747 439.415 231.997 439.551 228.111 439.565C228.064 430.007 226.58 417.213 220.119 409.901Z" fill="#B2C1C5"/>
<path d="M214.544 409.75L215.351 410.187C214.548 412.753 212.284 416.024 211.428 418.698C209.332 425.249 208.842 432.847 208.405 439.652C205.335 439.254 200.764 439.344 197.562 439.312L196.654 438.947C196.186 436.949 197.011 432.451 197.553 430.423C200.148 420.719 206.068 414.675 214.544 409.75Z" fill="#B2C1C5"/>
<path d="M225.412 410.963C228.447 411.041 234.136 413.83 236.509 415.691C244.832 422.22 247.705 429.655 249.193 439.595L241.724 439.507C240.51 426.541 236.929 417.861 225.412 410.963Z" fill="#B2C1C5"/>
<path d="M209.51 411.021L210.249 411.276C197.712 419.42 197.973 427.081 194.672 438.978C193.269 439.527 190.993 439.155 189.382 439.034L188.621 438.976L188.039 438.259C188.63 425.24 197.597 415.294 209.51 411.021Z" fill="#B2C1C5"/>
<path d="M216.8 401.928C221.085 401.635 224.818 405.279 223.333 409.159L221.976 409.092C218.842 408.567 213.624 409.858 213.57 406.074C214.579 403.949 215.162 403.508 216.8 401.928Z" fill="#B2C1C5"/>
<path d="M538.415 294.568L538.76 295.001C539.775 301.021 539.315 345.608 538.225 351.392C537.83 353.486 537.495 354.102 535.75 355.293L535.12 355.061C535.5 352.747 537.61 352.651 537.615 350.369C537.635 345.482 537.555 340.435 537.555 335.545L537.615 295.968L484.674 312.405C485.156 318.125 484.923 325.868 484.905 331.75C484.878 339.44 485.646 388.86 484.084 392.658C483.242 388.469 483.555 371.646 483.558 366.392L483.534 311.773C488.331 309.921 496.582 307.587 501.79 305.952L538.415 294.568Z" fill="#39393B"/>
<path d="M411.539 423.065C416.572 423.188 421.956 423.095 427.018 423.099L427.072 438.977L411.473 439.013L411.539 423.065Z" fill="#39393B"/>
<path d="M412.58 423.973L425.953 424.033C426.028 428.589 426.002 433.146 425.874 437.701C421.428 437.636 416.981 437.676 412.537 437.819C412.606 433.237 412.569 428.564 412.58 423.973Z" fill="white"/>
<path d="M411.514 443.466L427.016 443.5L427.082 459.004L411.482 459.009L411.514 443.466Z" fill="#272729"/>
<path d="M412.592 444.475C416.887 444.631 421.639 444.509 425.976 444.475C426.012 448.96 425.984 453.445 425.892 457.929L412.506 457.93L412.592 444.475Z" fill="white"/>
<path d="M411.513 463.494L427.015 463.52L427.096 479.012L411.504 478.998L411.513 463.494Z" fill="#272729"/>
<path d="M412.582 464.616C417.017 464.646 421.542 464.573 425.985 464.548L425.929 478.02L412.533 478.045L412.582 464.616Z" fill="white"/>
<path d="M411.531 403.031L427.022 403.016L427.06 418.477L411.477 418.548L411.531 403.031Z" fill="#39393B"/>
<path d="M412.57 403.979L425.946 403.998L425.949 417.579L412.512 417.598C412.659 413.212 412.57 408.4 412.57 403.979Z" fill="white"/>
<path d="M411.534 483.984L427.048 483.933L427.044 499.573C422.071 499.404 416.546 499.549 411.529 499.581L411.534 483.984Z" fill="#272729"/>
<path d="M412.557 485.044L425.982 485.042L426.002 498.542L412.539 498.566C412.6 494.096 412.553 489.523 412.557 485.044Z" fill="white"/>
<path d="M583.515 356.347L593.625 356.338L593.73 374.996L583.49 375.052L583.515 356.347Z" fill="#39393B"/>
<path d="M584.596 357.493L592.511 357.481C592.606 362.962 592.586 368.444 592.451 373.924L584.506 373.892C584.686 368.586 584.586 362.836 584.596 357.493Z" fill="white"/>
<path d="M614.91 382.933L624.99 382.995L624.995 401.523L614.925 401.569L614.91 382.933Z" fill="#272729"/>
<path d="M615.946 384.058L623.986 384.059L624.011 400.493L615.926 400.488L615.946 384.058Z" fill="white"/>
<path d="M494.076 321.495L504.011 321.491L504.041 340.096L494.004 340.032L494.076 321.495Z" fill="#272729"/>
<path d="M495.105 322.672L502.995 322.553C503.07 327.98 502.985 333.557 502.965 338.997L495.018 338.976L495.105 322.672Z" fill="white"/>
<path d="M442.504 355.51L452.605 355.513C452.657 361.645 452.63 367.777 452.525 373.909L442.573 373.974L442.504 355.51Z" fill="#39393B"/>
<path d="M449.373 356.771C450.377 356.778 450.007 356.731 450.961 357.121C452.083 359.692 451.86 369.711 451.165 372.473C449.784 373.257 447.584 373.009 445.876 373L444.193 372.746C442.94 370.466 443.195 360.04 443.814 357.4C445.258 356.615 447.613 356.802 449.373 356.771Z" fill="white"/>
<path d="M614.876 356.509C617.616 356.502 622.496 356.235 624.896 357.054C624.881 362.597 625.051 369.237 624.831 374.686C622.411 375.216 617.491 375.032 614.836 375.022L614.876 356.509Z" fill="#B2C1C5"/>
<path d="M614.876 356.509C617.616 356.502 622.496 356.235 624.896 357.054C621.676 358.077 617.906 357.212 615.911 357.884C616.006 363.254 616.026 368.625 615.961 373.995L623.801 374.053L624.831 374.686C622.411 375.216 617.491 375.032 614.836 375.022L614.876 356.509Z" fill="#434447"/>
<path d="M624.895 357.053C624.88 362.596 625.05 369.236 624.83 374.686L623.8 374.053C623.27 371.285 623.715 361.598 623.74 358.135C620.885 358.152 618.755 358.108 615.91 357.884C617.905 357.212 621.675 358.077 624.895 357.053Z" fill="#272729"/>
<path d="M494.194 348.598C496.514 347.724 501.38 348.039 504.065 348.038L504.03 366.497C501.225 366.493 496.598 366.762 494.149 365.823L494.199 363.759C494.127 358.732 493.992 353.611 494.194 348.598Z" fill="#B2C1C5"/>
<path d="M494.193 348.598C496.513 347.724 501.379 348.039 504.064 348.038L504.029 366.497C501.224 366.493 496.597 366.762 494.148 365.823C496.906 365.209 500.399 366.124 503.034 365.126L503.024 348.959C500.359 348.987 496.703 349.185 494.193 348.598Z" fill="#272729"/>
<path d="M718.841 145.548C727.111 144.962 731.811 148.457 735.516 155.477C747.551 148.623 753.666 157.876 754.756 169.068C757.091 170.423 770.326 168.573 773.781 170.139C772.236 171.406 755.536 170.992 752.856 171.001C754.761 158.622 747.036 150.003 735.081 156.928C731.221 148.745 726.971 146.151 717.946 146.96C706.351 150.631 710.201 155.418 706.511 159.219C697.706 154.009 696.141 157.917 692.551 164.298C691.236 166.629 685.641 159.556 682.166 170.936C679.026 170.89 664.601 171.604 663.006 169.973C664.846 169.332 678.306 169.577 681.236 169.592C686.896 158.482 688.181 166.374 692.416 162.592C695.641 159.715 695.181 151.888 705.971 157.908C708.796 150.275 711.081 147.989 718.841 145.548Z" fill="#39393B"/>
<path d="M525.375 384.144L526.26 384.527C525.505 385.292 524.53 386.155 524.545 387.318C524.665 395.17 524.58 403.023 524.57 410.876L524.545 462.35L524.451 495.875C524.426 501.13 524.145 509.51 524.62 514.56C525.705 515.17 528.205 515.165 529.57 515.255L529.35 515.36C527.425 516.275 525.38 516.065 523.23 516.05C524.59 473.49 522.53 430.092 523.55 387.453C523.605 385.127 523.635 385.705 525.375 384.144Z" fill="#272729"/>
<path d="M461.582 534.075L461.81 534.63C459.38 535.95 452.112 538.245 449.06 539.355C437.082 543.645 425.077 547.865 413.046 552.01L297.746 592.11L297.395 591.83C299.905 589.655 443.83 540.35 461.582 534.075Z" fill="#878788"/>
<path d="M195.3 217.061C198.012 216.863 200.734 217.279 203.264 218.276C208.813 220.469 211.135 224.552 213.408 229.67C213.96 229.282 214.537 228.93 215.135 228.616C222.747 224.611 224.274 233.267 228.373 234.892C232.606 236.57 233.934 232.459 237.329 240.997C242.951 240.93 249.561 240.84 255.093 241.376L254.13 241.458L254.173 241.686C248.468 242.267 242.207 242.083 236.43 242.041C234.762 235.866 232.786 235.366 226.961 236.251C223.712 234.056 223.395 224.173 212.935 230.977C210.365 229.552 212.509 224.972 204.47 219.872C194.431 215.528 188.366 219.246 183.825 228.58C172.241 221.903 163.147 229.617 166.254 242.469C162.357 242.439 149.079 242.499 146.104 241.762C152.195 241.329 158.566 241.461 164.692 241.485C163.36 228.613 171.135 221.193 183.442 227.182C183.641 226.781 183.845 226.382 184.054 225.986C186.929 220.543 189.584 218.806 195.3 217.061Z" fill="#39393B"/>
<path d="M852.364 209.548C861.034 208.753 867.629 212.956 872.004 220.196C879.854 217.452 885.629 217.818 891.214 225.989C891.964 227.086 891.559 228.15 891.164 229.271L890.674 229.191C887.239 219.41 880.859 217.286 871.794 221.628C864.024 208.953 850.329 206.003 840.569 218.346C839.719 220.363 838.894 222.483 838.069 224.522C831.164 221.161 828.844 223.777 826.284 230.256C815.874 229.596 804.074 230.453 793.359 229.825C796.824 228.419 820.084 229.108 825.264 229.127C832.219 215.115 835.794 229.616 841.144 216.099C842.549 212.554 849.074 210.441 852.364 209.548Z" fill="#39393B"/>
<path d="M480.115 535.405L480.646 535.56C480.018 537.015 378.063 591.27 368.288 596.505L367.732 596.735L367.817 596.13C370.949 593.9 376.732 591.04 380.371 589.09L401.982 577.505L480.115 535.405Z" fill="#878788"/>
<path d="M680.934 397.95L689.064 397.975L689.079 408.102L680.914 408.139L680.934 397.95Z" fill="#B2C1C5"/>
<path d="M658.465 372.682L666.525 372.666L666.51 382.576L658.4 382.503L658.465 372.682Z" fill="#272729"/>
<path d="M659.66 374.13L665.095 374.102L665.14 381.363L659.65 381.315L659.66 374.13Z" fill="#B2C1C5"/>
<path d="M669.8 397.976L677.515 397.983L677.605 408.13L669.68 408.143C669.64 404.814 669.75 401.319 669.8 397.976Z" fill="#B2C1C5"/>
<path d="M715.145 391.995L715.95 393.13C716.115 399.451 716.775 438.696 715.39 441.663C713.68 442.304 714.38 442.179 712.505 441.887C709.91 439.868 711.05 435.863 710.99 432.585L711.22 431.789C712.515 433.864 711.585 437.218 712.4 440.544C713.615 441.329 712.95 441.134 714.495 441.007C715.395 439.607 714.835 397.999 715.145 391.995Z" fill="#272729"/>
<path d="M145.34 245.25C156.911 244.278 172.421 245.438 184.437 245.085C187.316 245 203.505 244.966 205.727 245.318L206.167 246.152L161.385 246.112C159.053 246.105 146.86 246.284 145.289 245.93L145.34 245.25Z" fill="#686668"/>
<path d="M432.828 515.14L433.294 516.08C427.556 515.965 384.918 516.52 383.125 515.54C387.622 514.165 425.783 514.905 432.828 515.14Z" fill="#272729"/>
<path d="M460.12 348.004L462.614 348.31L461.606 348.526C461.244 358.244 461.79 368.796 461.528 378.579C461.429 382.256 461.707 388.663 461.093 392.073C459.011 382.536 461.199 368.418 460.558 358.387C460.355 355.223 460.864 351.707 460.051 348.597L460.12 348.004Z" fill="#39393B"/>
<path d="M267.837 386.031C276.638 386.094 285.422 386.105 294.223 385.973C297.079 385.93 300.309 385.571 301.824 388.585L301.45 388.884L299.89 387.25C289.641 387.346 278.682 387.051 268.627 387.238C267.815 388.079 267.566 388.433 266.502 388.978C266.501 387.839 267.172 387.144 267.837 386.031Z" fill="#686668"/>
<path d="M533.605 314.315C535.83 319.125 531.705 348.515 534.415 354.846C533.925 354.547 533.14 353.846 533.095 353.432C532.58 348.172 532.665 317.059 533.605 314.315Z" fill="#686668"/>
<path d="M715.145 391.995C718.41 391.995 741.58 391.804 743.365 392.618C734.83 393.757 724.455 392.605 715.95 393.13L715.145 391.995Z" fill="#686668"/>
</g>
<defs>
<clipPath id="clip0_1_34">
<rect width="1024" height="704" fill="white"/>
</clipPath>
</defs>
</svg>
