<svg width="758" height="748" viewBox="0 0 758 748" fill="none" xmlns="http://www.w3.org/2000/svg">
<g clip-path="url(#clip0_23_855)">
<rect width="758" height="748" rx="24" fill="#0065F4"/>
<g opacity="0.37" clip-path="url(#clip1_23_855)">
<path d="M382.846 495.138L381.63 486.886L382.226 486.701C382.621 489.425 382.864 492.133 383.872 494.684L384.603 494.734C386.873 494.91 387.474 494.791 389.389 496.077C391.11 505.178 389.947 537.562 389.984 549.085C413.285 549.033 441.324 548.293 464.231 549.564L464.465 550.169C449.774 552.548 407.234 551.342 390.008 551.353C390.002 555.171 389.513 560.82 391.039 564.02C403.184 565.103 423 564.56 435.808 564.565L514.505 564.557C514.597 584.914 516.597 750.289 512.688 759.897C500.122 764.995 391.217 762.607 366.374 762.618L317.282 762.629C310.717 762.629 296.765 763.007 290.677 762.252C289.765 760.563 289.811 760.652 289.498 758.753C287.298 759.108 286.201 760.574 284.521 762.163C274.336 763.163 255.728 762.674 244.946 762.674L167.994 762.563C97.0417 762.707 19.4348 764.196 -51.0085 762.374C-60.3258 755.743 -61.8221 752.332 -64.3102 740.891C-65.9187 733.482 -65.6921 710.674 -62.5818 704.183C-66.8728 704.623 -68.4657 704.257 -72.6579 703.7C-74.2763 702.372 -78.2007 702.574 -80.7622 702.378C-93.3109 702.72 -118.24 701.879 -128.782 704.306L-140.134 704.284C-149.278 704.539 -158.428 704.519 -167.571 704.226L-168.887 703.926C-175.975 704.776 -178.579 704.651 -185.772 704.166C-179.884 696.798 -168.965 686.685 -161.936 679.81L-161.515 650.485C-155.284 650.187 -150.126 648.623 -146.266 653.651C-145.776 657.395 -145.389 660.149 -145.288 663.963C-140.281 660.194 -126.176 646.001 -120.954 640.995L-60.4669 699.606C-51.6405 689.675 -50.2287 693.309 -39.6239 690.454C-34.6076 678.095 -67.0994 667.974 -66.3163 644.15C-65.3088 613.498 -68.5635 579.609 -65.1245 548.774C-64.5924 544.006 -57.7932 537.018 -54.6574 533.646C-53.921 526.031 -53.4878 514.69 -47.2895 509.895C-37.8977 502.63 11.3338 505.338 22.4107 506.96L22.9417 508.895C10.9328 507.85 -36.2371 504.678 -46.6119 512.096C-51.2728 515.429 -51.746 528.162 -52.3048 534.332C-66.7584 550.198 -64.6824 557.976 -64.2203 578.984C-63.676 603.707 -65.3199 630.455 -63.0006 654.954C-55.0629 667.261 -40.5059 675.558 -34.9464 688.764C-34.4754 690.938 -34.5054 691.715 -33.2246 693.529C-32.647 675.68 -33.5334 655.204 -32.4626 638.069C-36.4348 638.064 -40.4737 638.554 -43.7916 636.717C-43.3728 628.309 -30.0944 583.649 -27.2563 573.553C6.6174 573.554 42.0706 573.018 75.8133 573.592C81.2406 593.371 89.3217 618.558 93.3616 637.929C89.4239 637.98 84.4975 637.368 81.535 639.045C79.9143 675.88 82.8013 716.135 80.6886 752.832L80.0721 752.555C78.026 736.515 78.8658 719.97 78.9191 703.712L78.9013 638.006L-30.02 637.97C-29.9922 678.436 -30.4332 719.834 -29.8911 760.219L41.8551 760.175C53.5485 760.197 73.1496 760.808 84.2187 759.686C86.0548 756.875 85.285 756.731 84.9818 752.455L84.3786 751.51C88.3097 751.11 91.6232 751.122 95.5477 751.077C102.556 746.989 99.6487 728.128 99.5832 720.227L99.3888 653.927C99.3 646.326 97.6293 628.773 100.918 623.242C103.483 622.613 105.143 622.259 107.755 621.873C112.297 617.325 109.872 611.039 110.17 604.712C163.587 604.613 224.013 603.177 276.723 604.794C276.833 609.186 276.23 619.664 278.467 622.19C282.209 622.643 282.879 622.753 286.552 622.012C287.005 621.224 287.46 620.437 287.913 619.649C287.815 583.524 287.93 529.756 287.854 495.045C319.012 495.13 351.822 495.754 382.846 495.138Z" fill="white"/>
<path d="M112.824 607.301C165.54 608.515 221.621 607.567 274.505 607.592L274.391 622.535C268.689 622.399 245.446 620.777 240.545 623.663C237.795 625.283 240.746 628.812 235.056 633.629C231.348 631.98 230.727 627.436 224.288 623.727C205.59 622.104 186.654 622.832 167.905 622.695C155.106 622.603 148.449 627.231 148.933 640.953C150.741 671.682 148.638 704.042 149.358 734.916C149.488 740.481 149.417 746.979 148.887 752.477C149.345 754.888 149.83 757.287 150.345 759.675C143.29 760.153 93.7915 760.664 88.0032 759.486C86.9468 757.043 87.1145 756.643 87.039 754.032C86.2848 753.344 85.806 752.699 84.9818 752.455L84.3787 751.511C88.3098 751.111 91.6233 751.122 95.5477 751.078C102.556 746.99 99.6488 728.129 99.5832 720.228L99.3888 653.928C99.3 646.326 97.6293 628.774 100.918 623.243C101.479 658.159 102.691 717.485 100.863 751.689C96.8684 755.054 91.8721 750.567 90.7135 754.343C95.1656 755.654 98.8145 755.199 103.47 755.043C103.522 711.857 104.052 667.769 103.572 624.666C107.606 624.679 133.76 625.093 135.814 623.116C126.991 622.459 121.518 622.358 112.725 622.564L112.824 607.301Z" fill="white"/>
<path d="M148.933 640.953C150.741 671.682 148.638 704.042 149.358 734.915C149.488 740.48 149.417 746.979 148.887 752.477C146.84 743.968 147.203 650.463 148.933 640.953Z" fill="#878788"/>
<path d="M124.413 648.95C128.534 648.917 129.628 648.7 133.175 650.669C138.749 656.582 139.727 679.98 135.67 684.733L120.238 684.802C120.415 673.183 117.441 656.822 124.413 648.95Z" fill="#39393B"/>
<path d="M124.648 650.794C128.368 650.947 128.937 650.747 131.996 652.589C136.021 658.299 136.943 678.546 132.273 682.694C129.011 682.513 125.374 682.838 123.065 680.8C122.296 674.044 121.856 656.753 124.648 650.794Z" fill="white"/>
<path d="M123.993 699.945C127.431 699.888 130.039 699.838 133.018 701.629C139.616 705.595 138.814 732.016 135.575 735.604L120.24 735.693C120.053 725.136 118.048 707.734 123.993 699.945Z" fill="#39393B"/>
<path d="M124.116 702.178C128.107 702.133 128.849 701.825 132.055 703.841C136.975 710.565 134.937 724.751 134.177 733.227C130.223 733.26 125.687 733.882 123.194 731.494C122.089 724.757 122.04 708.591 124.116 702.178Z" fill="white"/>
<path d="M290.208 497.605C322.809 497.712 355.409 497.648 388.01 497.41C386.95 569.745 388.501 642.519 387.951 714.877C387.843 729.072 388.881 746.201 387.426 760.108L291.114 760.263C289.825 722.666 290.671 683.943 290.806 646.297L290.208 497.605Z" fill="#0553C1"/>
<path d="M332.192 559.019L347.775 559.145L347.92 593.681L331.988 593.729L332.192 559.019Z" fill="#B2C1C5"/>
<path d="M360.147 559.041L375.529 559.057L375.507 593.66L360.04 593.698L360.147 559.041Z" fill="#272729"/>
<path d="M363.121 562.131C366.563 562.05 367.073 561.89 370.251 562.986C373.993 568.078 372.18 582.582 372.78 591.028C369.639 591.078 368.673 591.062 365.581 590.591C361.239 586.288 363.403 570.328 363.121 562.131Z" fill="#B2C1C5"/>
<path d="M304.628 608.415L318.923 608.221C319.099 619.793 319.033 631.369 318.729 642.937L303.279 642.626C303.212 636.449 302.132 612.311 304.628 608.415Z" fill="#B2C1C5"/>
<path d="M304.109 511.416L319.014 511.396L319.079 545.55L303.947 545.358C304.338 534.423 304.111 522.436 304.109 511.416Z" fill="#434447"/>
<path d="M306.301 513.389C309.82 513.223 311.566 512.774 314.615 514.249C318.711 520.14 316.667 534.747 316.709 543.471C313.104 543.612 312.001 543.86 308.61 542.875C304.412 537.739 306.763 522.691 306.301 513.389Z" fill="#B2C1C5"/>
<path d="M390.046 567.006L512.295 566.978L512.332 700.697C512.335 711.605 512.991 751.344 511.227 759.753C475.614 761.608 426.927 760.108 390.128 760.23C389.035 696.916 390.037 630.557 390.046 567.006Z" fill="white"/>
<path d="M405.565 680.143L428.954 680.173L428.941 720.138L405.497 720.241L405.565 680.143Z" fill="#272729"/>
<path d="M408.041 682.719L426.217 682.687C426.059 694.327 426.068 705.968 426.244 717.608C421.833 718.044 412.636 717.811 407.88 717.833L408.041 682.719Z" fill="white"/>
<path d="M442.101 576.943C449.36 576.603 458.188 576.835 465.57 576.832L465.677 616.561L442.053 616.596C441.834 603.379 441.85 590.159 442.101 576.943Z" fill="#39393B"/>
<path d="M444.297 579.318L463.236 579.006C463.289 586.84 463.875 607.687 462.585 614.169C457.214 613.781 449.849 614.083 444.317 614.148L444.297 579.318Z" fill="white"/>
<path d="M442.197 680.074L465.478 680.021L465.539 720.237L442.154 720.31C442.349 707.017 442.195 693.395 442.197 680.074Z" fill="#272729"/>
<path d="M445.274 683.556L462.966 683.641L463.199 717.593L444.83 717.466C445.689 707.531 445.299 693.819 445.274 683.556Z" fill="#B2C1C5"/>
<path d="M405.577 628.242L428.855 628.344C428.932 641.683 428.883 655.022 428.707 668.36C421.014 668.223 413.184 668.631 405.483 668.924L405.577 628.242Z" fill="#434447"/>
<path d="M408.029 631.112L425.94 631.169C425.842 642.533 426.018 654.106 426.08 665.489L408.074 665.547C408.363 654.07 408.348 642.588 408.029 631.112Z" fill="#B2C1C5"/>
<path d="M478.413 680.093L501.38 680.041L501.603 720.204L478.1 720.211C478.789 707.378 478.454 693.054 478.413 680.093Z" fill="#434447"/>
<path d="M480.968 682.693C486.439 683.082 493.218 682.809 498.819 682.729C498.813 694.319 498.609 705.959 499.741 717.488C496.636 717.949 484.599 717.731 480.814 717.744C481.376 706.162 481.097 694.308 480.968 682.693Z" fill="#B2C1C5"/>
<path d="M478.297 628.702L501.206 628.703C501.159 639.67 501.918 659.213 500.794 669.05L478.32 669.037L478.297 628.702Z" fill="#272729"/>
<path d="M480.89 631.27L498.86 631.102C499.043 642.859 499.003 654.619 498.74 666.375C493.201 666.077 486.604 666.314 480.966 666.38C481.065 654.745 480.923 642.924 480.89 631.27Z" fill="white"/>
<path d="M442.258 629.037C448.987 628.609 458.652 628.873 465.603 628.847L465.607 668.584C459.278 669.073 448.907 668.897 442.279 668.977L442.258 629.037Z" fill="#272729"/>
<path d="M444.427 631.209L463.234 631.123C463.411 642.879 463.363 654.636 463.091 666.391C456.975 666.026 450.595 666.443 444.451 666.713L444.427 631.209Z" fill="white"/>
<path d="M478.26 576.817C485.782 576.685 493.615 576.76 501.163 576.737L501.379 616.676L478.071 616.553L478.26 576.817Z" fill="#39393B"/>
<path d="M480.905 579.057L498.839 579.01L498.907 614.034C493.054 613.933 486.859 614.085 480.975 614.129L480.905 579.057Z" fill="white"/>
<path d="M405.644 576.877C413.251 576.731 421.248 576.846 428.892 576.844L428.795 616.453L405.542 616.596L405.644 576.877Z" fill="#272729"/>
<path d="M408.07 579.066L426.12 578.965C425.795 590.878 425.927 602.076 426.138 613.998C420.261 613.889 413.897 614.133 407.982 614.243C408.075 602.517 408.104 590.791 408.07 579.066Z" fill="white"/>
<path d="M150.724 639.408C151.517 635.078 152.118 630.366 155.858 627.482C161.161 623.394 209.525 624.239 218.005 625.864C222.458 626.717 228.804 628.425 231.719 632.11C236.552 638.223 237.661 738.114 235.215 750.6C234.504 754.232 232.864 757.509 229.744 759.608C228.212 760.652 227.802 760.397 225.959 760.23C218.315 752.777 221.414 712.913 220.759 700.184L165.523 700.084C165.559 709.608 168.873 759.886 157.578 761.341C154.642 759.741 152.078 757.142 150.742 754.077C148.755 745.201 148.805 647.989 150.724 639.408Z" fill="white"/>
<path d="M150.742 754.077C148.755 745.202 148.805 647.989 150.724 639.408C151.994 657.501 151.005 683.661 151.186 702.544C151.31 715.384 151.829 742.68 150.742 754.077Z" fill="#878788"/>
<path d="M171.832 649.045C175.329 648.902 178.44 648.823 181.361 650.929C187.38 655.27 186.794 680.786 183.453 684.7L167.804 684.901C167.865 673.954 165.348 656.715 171.832 649.045Z" fill="#272729"/>
<path d="M182.86 682.226C179.255 682.453 173.879 683.004 171.016 680.944C169.905 673.334 167.264 654.98 175.357 650.995C179.337 651.286 179.844 651.875 182.972 654.449C184.177 660.116 184.104 676.659 182.86 682.226Z" fill="white"/>
<path d="M182.972 654.448C184.177 660.116 184.104 676.659 182.859 682.226C181.775 674.885 182.25 661.771 182.972 654.448Z" fill="#686668"/>
<path d="M205.143 648.872C211.028 649.194 210.693 648.719 214.681 651.566C218.394 657.707 219.338 680.513 215.726 684.875L200.978 685.103C201.123 674.78 198.195 655.991 205.143 648.872Z" fill="#39393B"/>
<path d="M204.676 651.104C205.885 651.106 207.245 651.197 208.453 651.21C218.792 651.316 215.063 676.211 214.392 682.592C210.953 682.526 206.462 682.989 203.972 680.997C202.948 674.635 202.883 657.143 204.676 651.104Z" fill="white"/>
<path d="M-25.6124 575.626C3.35274 576.983 43.9379 575.807 73.7538 575.822C79.8255 595.756 85.0295 615.869 91.2089 635.791L74.8202 635.583C35.8757 635.912 -3.07211 635.882 -42.0166 635.493C-36.4326 617.692 -29.9422 593.782 -25.6124 575.626Z" fill="#B2C1C5"/>
<path d="M241.447 624.755L287.869 624.703L288.029 713.442C288.042 721.746 288.677 750.189 286.989 756.342C283.954 759.586 285.243 759.097 281.448 760.086L233.757 760.164C245.757 739.958 230.634 640.843 241.447 624.755Z" fill="white"/>
<path d="M254.207 648.719C257.232 648.87 260.679 649.041 262.959 651.145C268.076 655.868 267.935 681.332 264.525 684.759L249.314 684.754C249.674 672.47 246.706 656.699 254.207 648.719Z" fill="#272729"/>
<path d="M253.395 650.967C256.927 651.037 258.292 650.694 261.076 652.56C265.974 659.249 263.653 673.741 263.093 682.328C259.263 682.311 254.921 682.862 252.512 680.623C251.631 674.415 251.509 656.741 253.395 650.967Z" fill="white"/>
<path d="M253.117 700.025C257.011 699.908 257.609 699.716 261.199 700.944C268.156 706.553 268.997 729.272 265.302 735.626H249.657C249.667 725.533 247.941 707.348 253.117 700.025Z" fill="#272729"/>
<path d="M253.611 701.927C266.964 702.429 263.694 712.744 263.798 722.854C263.831 726.099 263.344 729.983 263.029 733.26C259.582 733.127 254.658 733.66 252.577 731.872C251.656 725.358 251.604 708.089 253.611 701.927Z" fill="white"/>
<path d="M167.171 702.428L218.879 702.42C218.837 716.397 217.83 747.512 220.409 759.63C215.067 762.641 210.364 759.919 206.608 755.665C202.515 744.768 210.413 714.253 202.443 707.741C200.036 705.774 185.761 706.74 181.233 706.976C180.521 718.774 182.513 749.533 179.268 757.62C174.372 760.83 169.885 763.196 164.974 758.908L166.938 753.832C166.012 746.401 166.5 710.484 167.171 702.428Z" fill="white"/>
<path d="M166.939 753.832C166.012 746.401 166.5 710.484 167.171 702.428C168.222 710.62 168.697 746.012 166.939 753.832Z" fill="#686668"/>
<path d="M183.623 708.877C189.966 708.586 196.831 708.896 203.219 709.053C203.196 722.734 203.1 736.437 203.481 750.122C203.588 753.943 205.379 757.52 204.259 760.263L181.873 760.352C184.442 745.001 182.061 725.355 183.623 708.877Z" fill="white"/>
<path d="M22.4106 506.96C31.5769 511.027 28.3457 529.745 27.6092 538.432L26.2951 538.678C23.4604 528.276 29.3043 516.083 22.9416 508.895L22.4106 506.96Z" fill="white"/>
<path d="M994.201 361.114L1116.36 361.134C1119.54 367.657 1126.09 380.726 1126.72 387.434C1129.32 414.936 1127.86 449.105 1127.64 476.854C1137.82 476.81 1148.54 476.61 1158.65 476.895L1158.61 426.861C1172.26 426.82 1240.63 425.415 1249.02 428.715C1253.16 439.216 1251.17 555.872 1250.88 574.62C1258.28 574.481 1282.3 573.652 1288.04 575.26L1287.53 577.027C1281.56 575.961 1256.08 576.579 1248.64 576.647C1249.53 528.811 1249.23 476.951 1248.62 429.123C1219.86 428.672 1189.9 429.12 1161.04 429.135L1161.03 479.053L1125.34 478.96L1125.25 388.151L985.715 388.102L985.815 525.656C996.156 525.589 1040.88 523.506 1046.79 528.547C1050.63 541.004 1049.24 601.776 1049.24 617.805L1049.14 760.098L1072.07 760.042L1072.03 585.91L1058.14 585.498C1071.6 562.785 1094.22 532.547 1110.02 510.383L1161.74 510.467C1167.29 519.791 1206.17 580.296 1205.64 585.288L1198.04 585.934C1195.91 588.62 1195.8 744.291 1197.03 758.942L1198.19 759.731C1202.45 760.175 1203.87 760.464 1208.14 759.553C1219.59 749.501 1195.88 731.728 1217.53 718.687L1218.78 717.934C1215.94 709.92 1213.57 698.834 1206.11 694.536C1206.33 677.477 1204.61 656.155 1220.18 644.694C1229.82 637.592 1234.12 642.253 1242.38 641.062C1248.48 598.196 1302.44 601.099 1308.4 614.492C1302.69 615.081 1286.66 602.903 1269.07 610.145C1247.37 619.074 1240.56 636.485 1247.93 658.786L1248.42 660.235C1253.68 661.087 1258.34 662.456 1263.46 663.863C1265.66 658.637 1267.76 653.47 1270.68 648.59C1273.4 644.032 1283.16 637.435 1288.25 640.894C1270.02 647.405 1272.47 648.56 1264.7 666.353L1247.75 662.111C1233.14 666.633 1233.28 667.129 1228.36 681.899L1226.75 680.172C1225.41 670.403 1238.43 663.128 1246.06 659.822C1244.19 655.092 1242.96 646.44 1240.9 643.752C1239.31 642.889 1236.79 641.633 1234.98 641.946C1205.97 646.949 1209.47 671.828 1209.68 692.87C1212.99 696.961 1222.81 716.74 1221.11 721.417C1217.33 721.089 1217.07 720.933 1213.86 722.67C1201.54 738.048 1228.37 760.564 1201.56 762.075C1184.9 763.019 1167.46 762.586 1150.71 762.608L1060.33 762.675L954.535 762.719C934.618 762.719 910.903 763.241 891.23 762.108L890.83 761.253C895.451 760.62 899.262 760.531 902.294 757.42L902.194 556.299L902.361 503.116C902.394 496.727 902.849 475.264 901.65 470.191C897.406 452.173 888.653 429.896 882.466 411.809C874.991 414.747 868.592 416.584 860.939 418.814C862.25 532.717 860.695 648.393 861.117 762.552L746.539 762.652C726.605 762.652 705.137 761.941 685.413 762.719L685.52 512.709L705.111 512.632L705.017 497.924C741.4 497.288 777.79 497.27 814.173 497.871L814.038 512.595L833.169 512.826C832.047 594.257 832.947 678.643 832.98 760.231L858.051 760.186L857.895 520.165C857.884 486.615 858.651 450.918 858.007 417.628C863.549 415.759 877.412 410.945 882.622 410.358C904.693 407.873 931.808 408.94 954.29 408.953C960.333 426.011 969.886 448.933 974.918 465.138L973.263 466.983L973.018 467.863C972.974 479.447 972.219 514.859 973.607 524.493C976.228 525.703 979.094 525.233 982.049 525.084C987.359 516.084 978.817 400.19 985.47 382.017C988.025 375.023 991.224 367.973 994.201 361.114Z" fill="#39393B"/>
<path d="M707.682 515.49L811.829 515.615L811.334 759.764C806.059 760.62 782.688 760.197 776.617 760.175L707.709 760.142L707.682 515.49Z" fill="white"/>
<path d="M721.131 661.534L741.201 661.55C741.306 669.374 741.234 677.201 740.984 685.022L720.982 685.184L721.131 661.534Z" fill="#434447"/>
<path d="M723.551 664.394L738.647 664.535L738.729 682.547L723.285 682.406C723.986 675.567 723.807 671.317 723.551 664.394Z" fill="#B2C1C5"/>
<path d="M722.086 592.846L741.214 592.951C741.3 600.792 741.606 609.083 740.803 616.847L720.997 616.78C720.968 611.199 720.286 597.284 722.086 592.846Z" fill="#434447"/>
<path d="M723.814 595.435L738.813 595.625C739.019 601.002 740.211 610.338 737.23 614.394L734.666 614.425C719.03 615.762 722.643 607.812 723.814 595.435Z" fill="#B2C1C5"/>
<path d="M734.666 614.425C719.03 615.762 722.643 607.812 723.814 595.435L723.991 596.572C724.963 603.009 723.345 608.682 725.258 612.449C728.261 614.672 730.817 614.285 734.666 614.425Z" fill="#272729"/>
<path d="M749.036 661.587L768.527 661.522L768.577 684.825L748.962 684.918L749.036 661.587Z" fill="#434447"/>
<path d="M751.265 664.59L765.777 664.458L766.51 682.33L751.258 682.245L751.265 664.59Z" fill="#B2C1C5"/>
<path d="M699.071 515.187C700.874 515.095 702.213 515.242 704 515.362C704.384 515.883 705.112 516.766 705.068 517.385C703.225 542.929 708.326 753.621 703.749 760.475L697.997 760.53C694.237 760.73 691.323 761.364 688.134 759.62C687.315 752.744 687.72 737.204 687.726 729.695L687.813 673.647C687.919 622.003 686.97 567.996 688.099 516.679C690.952 514.677 695.304 515.216 699.071 515.187Z" fill="white"/>
<path d="M707.547 499.841C718.312 498.748 803.856 497.753 812.108 499.52C812.07 504.223 811.822 508.13 811.48 512.802L747.978 512.587C736.311 512.574 719.699 513.014 708.589 511.952C707.198 509.275 707.576 503.174 707.547 499.841Z" fill="white"/>
<path d="M707.547 499.841C718.312 498.748 803.856 497.753 812.108 499.52C806.019 500.558 778.983 500.436 771.683 500.282C751.426 499.853 727.468 501.127 707.547 499.841Z" fill="#90968C"/>
<path d="M624.454 326.858L727.398 326.763C730.02 335.097 744.33 383.658 744.17 390.054C739.769 391.59 737.988 391.007 733.501 390.281L735.74 389.803L730.201 389.122L730.046 390.439C707.755 391.539 683.599 391.008 661.171 391.171C651.803 391.24 628.895 391.723 620.273 390.579C622.111 402.216 621.019 439.882 621.156 453.547L657.346 453.571C657.199 455.942 656.469 463.993 657.781 464.918C666.309 470.926 664.939 474.948 666.252 484.248C666.362 485.026 673.038 484.084 672.276 487.106C672.585 494.957 672.466 503.555 672.466 511.223L672.415 577.061L672.425 698.403C672.425 706.203 673.632 759.298 670.602 762.519L669.567 760.431C670.752 732.461 669.763 697.908 669.763 669.17L669.903 487.017C631.94 486.43 592.409 487.026 554.323 487.065L554.457 762.386L527.727 762.286C527.525 742.802 529.508 558.008 525.406 554.29C519.127 548.599 481.592 551.318 472.199 551.429C472.276 525.585 472.642 499.742 473.296 473.908C473.475 467.599 474.5 453.554 479.277 449.179C490.108 439.103 532.028 449.359 540.882 439.1C550.153 428.356 536.359 375.749 547.708 364.911C558.471 360.299 592.647 364.295 605.957 363.722C608.09 363.631 608.641 368.456 612.459 369.542C614.653 367.43 623.049 332.351 624.454 326.858Z" fill="#272729"/>
<path d="M626.219 328.956C658.524 329.42 693.637 329.594 725.931 329.015C728.079 336.893 741.129 387.769 744.17 390.053C739.769 391.589 737.988 391.006 733.501 390.281L735.74 389.802L730.201 389.121L730.046 390.439C707.755 391.538 683.599 391.007 661.171 391.171C651.803 391.239 628.895 391.723 620.273 390.578L618.725 391.02L612.56 390.514L612.363 389.143L610.381 388.074C610.353 380.875 623.945 339.823 626.219 328.956Z" fill="#B2C1C5"/>
<path d="M612.363 389.144C642.079 386.019 675.265 388.032 705.328 388.306C709.1 388.341 727.297 388.624 730.201 389.122L730.046 390.439C707.755 391.539 683.599 391.008 661.171 391.171C651.803 391.24 628.895 391.723 620.273 390.579L618.725 391.02L612.56 390.515L612.363 389.144Z" fill="#272729"/>
<path d="M612.56 390.515L618.725 391.02C618.575 402.302 619.712 444.8 617.823 452.705C614.519 453.707 616.124 453.7 612.838 452.78C611.593 450.064 611.599 396.83 612.56 390.515Z" fill="white"/>
<path d="M549.264 364.645C568.196 364.222 588.822 365.921 608.571 365.795C608.673 366.59 608.774 367.385 608.876 368.181C610.637 374.905 608.346 381.327 607.748 387.997C607.53 390.423 608.739 391.05 609.917 392.95C609.855 412.048 610.006 434.713 609.294 453.485L578.703 453.503L578.792 467.871L562.486 467.966C562.587 473.025 562.521 478.087 562.287 483.141C559.264 486.795 558.043 482.474 552.42 485.748C550.754 510.726 552.097 552.738 552.1 578.723L552.064 760.264L535.265 760.33L531.622 760.03C531.119 759.364 530.617 758.697 530.115 758.042C530.263 708.664 530.243 659.288 530.301 609.915C530.315 597.637 530.359 585.353 530.291 573.076C530.254 566.517 530.02 559.842 527.76 553.616C519.922 546.488 486.612 549.009 474.856 549.123C475.604 526.771 471.871 474.069 478.816 453.143C482.461 442.155 522.153 448.092 534.135 445.002C559.671 438.415 535.802 386.481 549.264 364.645Z" fill="white"/>
<path d="M564.369 470.366C597.192 470.87 630.232 469.714 663.306 470.42L663.386 484.623C651.803 484.481 569.771 485.512 565.685 483.525C563.816 479.609 564.35 474.881 564.369 470.366Z" fill="#B2C1C5"/>
<path d="M580.762 455.88C591.962 456.042 646.894 454.971 653.498 456.548C655.159 460.099 654.518 463.667 654.317 467.711C632.623 467.233 602.033 468.846 582.238 467.299C580.277 464.224 580.793 459.78 580.762 455.88Z" fill="white"/>
<path d="M179.579 524.978C182.56 498.812 202.998 499.942 208.493 525.387C247.672 538.559 256.593 556.378 264.827 594.932L265.274 598.626C264.75 599.024 263.828 599.803 263.198 599.779C246.708 599.186 129.682 602.712 123.556 598.649L122.279 594.437C127.155 557.999 142.037 534.475 179.579 524.978Z" fill="#272729"/>
<path d="M122.279 594.438C146.842 592.5 181.5 594.678 206.899 593.975C216.728 593.704 257.218 593.679 264.827 594.932L265.274 598.627C264.75 599.024 263.828 599.803 263.198 599.78C246.708 599.187 129.682 602.712 123.556 598.65L122.279 594.438Z" fill="#E9DFE2"/>
<path d="M123.556 598.65C132.058 597.243 180.191 597.861 191.021 597.884C201.859 597.907 257.402 597.106 265.274 598.627C264.75 599.024 263.828 599.803 263.198 599.78C246.708 599.187 129.682 602.712 123.556 598.65Z" fill="#39393B"/>
<path d="M190.859 526.178C207.819 528.219 211.905 578.461 212.349 592.579L198.138 592.45L173.734 592.462C173.357 570.187 177.818 544.553 190.859 526.178Z" fill="#B2C1C5"/>
<path d="M197.017 526.634C227.046 533.4 239.603 565.155 242.423 592.578C233.957 592.202 223.405 592.502 214.77 592.534C214.666 571.3 211.37 542.878 197.017 526.634Z" fill="#B2C1C5"/>
<path d="M184.628 526.296L186.421 527.268C184.637 532.967 179.608 540.235 177.707 546.175C173.049 560.729 171.96 577.61 170.99 592.728C164.169 591.843 154.014 592.042 146.901 591.972L144.885 591.16C143.844 586.721 145.677 576.729 146.882 572.225C152.647 550.666 165.798 537.238 184.628 526.296Z" fill="#B2C1C5"/>
<path d="M208.774 528.992C215.517 529.164 228.154 535.363 233.426 539.497C251.917 554.001 258.3 570.518 261.605 592.602L245.012 592.405C242.316 563.6 234.36 544.317 208.774 528.992Z" fill="#B2C1C5"/>
<path d="M173.444 529.119L175.086 529.686C147.233 547.778 147.814 564.799 140.479 591.229C137.362 592.45 132.306 591.622 128.727 591.354L127.038 591.225L125.745 589.632C127.056 560.708 146.979 538.613 173.444 529.119Z" fill="#B2C1C5"/>
<path d="M189.642 508.918C199.163 508.269 207.456 516.363 204.157 524.983L201.142 524.834C194.179 523.668 182.586 526.537 182.467 518.129C184.709 513.409 186.003 512.429 189.642 508.918Z" fill="#B2C1C5"/>
<path d="M622.273 555.877C633.454 556.149 645.415 555.945 656.661 555.952L656.782 591.227L622.126 591.308L622.273 555.877Z" fill="#39393B"/>
<path d="M624.585 557.894L654.294 558.028C654.462 568.149 654.404 578.273 654.119 588.392C644.242 588.248 634.363 588.336 624.491 588.655C624.644 578.475 624.561 568.093 624.585 557.894Z" fill="white"/>
<path d="M622.215 601.199L656.654 601.277L656.8 635.719L622.144 635.729L622.215 601.199Z" fill="#272729"/>
<path d="M624.61 603.442C634.15 603.789 644.707 603.517 654.343 603.441C654.422 613.405 654.36 623.369 654.157 633.332L624.417 633.334L624.61 603.442Z" fill="white"/>
<path d="M622.212 645.693L656.651 645.752L656.833 680.169L622.192 680.137L622.212 645.693Z" fill="#272729"/>
<path d="M624.589 648.187C634.441 648.254 644.495 648.092 654.365 648.035L654.241 677.964L624.479 678.02L624.589 648.187Z" fill="white"/>
<path d="M622.255 511.371L656.669 511.336L656.754 545.684L622.133 545.844L622.255 511.371Z" fill="#39393B"/>
<path d="M624.563 513.475L654.278 513.518L654.284 543.688L624.433 543.732C624.761 533.987 624.562 523.296 624.563 513.475Z" fill="white"/>
<path d="M622.263 691.215L656.728 691.103L656.719 725.848C645.67 725.473 633.397 725.794 622.251 725.865L622.263 691.215Z" fill="#272729"/>
<path d="M624.531 693.57L654.355 693.566L654.401 723.557L624.492 723.611C624.626 713.681 624.523 703.521 624.531 693.57Z" fill="white"/>
<path d="M691.062 405.799L713.503 405.803C713.618 419.427 713.558 433.051 713.324 446.674L691.215 446.817L691.062 405.799Z" fill="#39393B"/>
<path d="M706.321 408.6C708.551 408.616 707.729 408.512 709.849 409.378C712.341 415.09 711.847 437.346 710.303 443.482C707.235 445.225 702.347 444.674 698.553 444.653L694.813 444.088C692.03 439.024 692.596 415.861 693.971 409.996C697.18 408.252 702.411 408.668 706.321 408.6Z" fill="white"/>
<path d="M653.102 52.1068C659.127 51.6669 665.174 52.59 670.795 54.806C683.123 59.6769 688.281 68.7487 693.33 80.1188C694.558 79.2557 695.839 78.4737 697.167 77.7761C714.078 68.8787 717.47 88.1088 726.578 91.7189C735.982 95.4467 738.931 86.3137 746.474 105.283C758.964 105.133 773.649 104.933 785.937 106.124L783.798 106.306L783.895 106.812C771.219 108.104 757.311 107.695 744.476 107.601C740.77 93.8827 736.381 92.7708 723.441 94.738C716.222 89.8616 715.518 67.9056 692.281 83.0224C686.571 79.8555 691.333 69.6818 673.475 58.3506C651.171 48.7 637.698 56.961 627.609 77.6962C601.874 62.8637 581.672 80.0011 588.573 108.553C579.917 108.485 550.418 108.62 543.808 106.982C557.34 106.019 571.495 106.314 585.104 106.367C582.144 77.7695 599.418 61.2864 626.759 74.5915C627.201 73.7006 627.655 72.8142 628.118 71.9345C634.505 59.8412 640.403 55.9823 653.102 52.1068Z" fill="white"/>
<path d="M542.114 114.73C567.819 112.572 602.277 115.148 628.971 114.364C635.368 114.175 671.331 114.098 676.269 114.88L677.245 116.734L577.76 116.645C572.579 116.631 545.49 117.027 542 116.242L542.114 114.73Z" fill="white"/>
<path d="M730.201 389.121L735.74 389.802L733.501 390.281C732.697 411.871 733.911 435.313 733.328 457.046C733.108 465.215 733.725 479.449 732.362 487.024C727.736 465.837 732.598 434.474 731.173 412.189C730.723 405.159 731.854 397.348 730.046 390.438L730.201 389.121Z" fill="#39393B"/>
<path d="M303.024 473.604C322.577 473.744 342.091 473.769 361.642 473.474C367.988 473.379 375.163 472.581 378.53 479.278L377.698 479.941L374.232 476.311C351.464 476.526 327.118 475.87 304.779 476.286C302.975 478.153 302.421 478.94 300.057 480.15C300.055 477.62 301.547 476.077 303.024 473.604Z" fill="#C8C8C8"/>
</g>
<path d="M58 380C58 366.745 68.7452 356 82 356H372C385.255 356 396 366.745 396 380V432C396 445.255 385.255 456 372 456H82C68.7452 456 58 445.255 58 432V380Z" fill="white"/>
<path d="M124.833 416.298C123.242 416.298 121.825 416.025 120.582 415.478C119.347 414.924 118.37 414.164 117.653 413.198C116.942 412.225 116.577 411.103 116.555 409.832H121.2C121.229 410.364 121.403 410.833 121.722 411.238C122.049 411.636 122.482 411.945 123.022 412.165C123.562 412.385 124.169 412.495 124.844 412.495C125.547 412.495 126.168 412.371 126.708 412.122C127.248 411.874 127.67 411.529 127.976 411.089C128.281 410.648 128.434 410.141 128.434 409.565C128.434 408.983 128.271 408.468 127.944 408.021C127.624 407.566 127.163 407.211 126.559 406.955C125.962 406.7 125.252 406.572 124.428 406.572H122.393V403.184H124.428C125.124 403.184 125.739 403.063 126.271 402.822C126.811 402.58 127.23 402.246 127.528 401.82C127.827 401.387 127.976 400.883 127.976 400.308C127.976 399.761 127.844 399.281 127.582 398.869C127.326 398.45 126.964 398.124 126.495 397.889C126.033 397.655 125.494 397.538 124.876 397.538C124.251 397.538 123.679 397.651 123.161 397.879C122.642 398.099 122.227 398.415 121.914 398.827C121.602 399.239 121.435 399.722 121.413 400.276H116.992C117.013 399.018 117.372 397.911 118.068 396.952C118.764 395.993 119.702 395.244 120.881 394.704C122.067 394.157 123.406 393.884 124.897 393.884C126.403 393.884 127.72 394.157 128.849 394.704C129.979 395.251 130.856 395.989 131.481 396.92C132.113 397.843 132.425 398.88 132.418 400.031C132.425 401.252 132.045 402.271 131.278 403.088C130.518 403.905 129.528 404.423 128.306 404.643V404.814C129.911 405.02 131.133 405.577 131.971 406.487C132.816 407.388 133.235 408.518 133.228 409.874C133.235 411.117 132.876 412.222 132.152 413.188C131.435 414.153 130.444 414.913 129.18 415.467C127.915 416.021 126.467 416.298 124.833 416.298ZM141.253 416.309C140.209 416.309 139.278 416.128 138.461 415.766C137.645 415.396 136.998 414.853 136.523 414.136C136.054 413.411 135.819 412.509 135.819 411.43C135.819 410.521 135.986 409.757 136.32 409.139C136.654 408.521 137.108 408.024 137.684 407.648C138.259 407.271 138.912 406.987 139.644 406.795C140.383 406.604 141.157 406.469 141.966 406.391C142.918 406.291 143.685 406.199 144.268 406.114C144.85 406.021 145.273 405.886 145.535 405.709C145.798 405.531 145.93 405.268 145.93 404.92V404.857C145.93 404.182 145.716 403.66 145.29 403.29C144.871 402.921 144.275 402.737 143.501 402.737C142.684 402.737 142.034 402.918 141.551 403.28C141.068 403.635 140.748 404.082 140.592 404.622L136.395 404.281C136.608 403.287 137.027 402.428 137.652 401.703C138.277 400.972 139.083 400.411 140.07 400.02C141.064 399.622 142.215 399.423 143.522 399.423C144.431 399.423 145.301 399.53 146.132 399.743C146.97 399.956 147.712 400.286 148.358 400.734C149.012 401.181 149.527 401.756 149.903 402.46C150.28 403.156 150.468 403.99 150.468 404.963V416H146.164V413.731H146.036C145.773 414.242 145.422 414.693 144.981 415.084C144.541 415.467 144.012 415.769 143.394 415.989C142.776 416.202 142.062 416.309 141.253 416.309ZM142.552 413.177C143.22 413.177 143.809 413.045 144.321 412.783C144.832 412.513 145.233 412.151 145.525 411.696C145.816 411.241 145.961 410.727 145.961 410.151V408.415C145.819 408.507 145.624 408.592 145.376 408.67C145.134 408.741 144.861 408.809 144.555 408.873C144.25 408.93 143.944 408.983 143.639 409.033C143.334 409.075 143.057 409.114 142.808 409.15C142.275 409.228 141.81 409.352 141.412 409.523C141.015 409.693 140.706 409.924 140.486 410.215C140.265 410.499 140.155 410.854 140.155 411.281C140.155 411.898 140.379 412.371 140.827 412.697C141.281 413.017 141.856 413.177 142.552 413.177ZM152.71 420.794V412.399H153.968C154.33 412.172 154.621 411.81 154.841 411.312C155.068 410.815 155.253 410.229 155.395 409.555C155.544 408.88 155.658 408.152 155.736 407.371C155.821 406.582 155.896 405.787 155.96 404.984L156.386 399.636H168.936V412.399H171.471V420.794H167.146V416H157.142V420.794H152.71ZM158.485 412.399H164.653V403.131H160.242L160.072 404.984C159.951 406.732 159.777 408.216 159.55 409.438C159.323 410.652 158.968 411.639 158.485 412.399ZM178.782 416.309C177.738 416.309 176.808 416.128 175.991 415.766C175.174 415.396 174.528 414.853 174.052 414.136C173.583 413.411 173.349 412.509 173.349 411.43C173.349 410.521 173.516 409.757 173.849 409.139C174.183 408.521 174.638 408.024 175.213 407.648C175.788 407.271 176.442 406.987 177.173 406.795C177.912 406.604 178.686 406.469 179.496 406.391C180.447 406.291 181.214 406.199 181.797 406.114C182.379 406.021 182.802 405.886 183.065 405.709C183.327 405.531 183.459 405.268 183.459 404.92V404.857C183.459 404.182 183.246 403.66 182.82 403.29C182.401 402.921 181.804 402.737 181.03 402.737C180.213 402.737 179.563 402.918 179.08 403.28C178.597 403.635 178.278 404.082 178.121 404.622L173.924 404.281C174.137 403.287 174.556 402.428 175.181 401.703C175.806 400.972 176.612 400.411 177.599 400.02C178.594 399.622 179.744 399.423 181.051 399.423C181.96 399.423 182.83 399.53 183.661 399.743C184.499 399.956 185.241 400.286 185.888 400.734C186.541 401.181 187.056 401.756 187.433 402.46C187.809 403.156 187.997 403.99 187.997 404.963V416H183.693V413.731H183.565C183.303 414.242 182.951 414.693 182.511 415.084C182.07 415.467 181.541 415.769 180.923 415.989C180.305 416.202 179.592 416.309 178.782 416.309ZM180.082 413.177C180.749 413.177 181.339 413.045 181.85 412.783C182.362 412.513 182.763 412.151 183.054 411.696C183.345 411.241 183.491 410.727 183.491 410.151V408.415C183.349 408.507 183.153 408.592 182.905 408.67C182.663 408.741 182.39 408.809 182.085 408.873C181.779 408.93 181.474 408.983 181.168 409.033C180.863 409.075 180.586 409.114 180.337 409.15C179.805 409.228 179.339 409.352 178.942 409.523C178.544 409.693 178.235 409.924 178.015 410.215C177.795 410.499 177.685 410.854 177.685 411.281C177.685 411.898 177.908 412.371 178.356 412.697C178.81 413.017 179.386 413.177 180.082 413.177ZM189.875 403.205V399.636H204.704V403.205H199.431V416H195.106V403.205H189.875ZM210.3 404.665H215.19C217.356 404.665 219.047 405.183 220.261 406.22C221.475 407.25 222.083 408.628 222.083 410.354C222.083 411.476 221.809 412.463 221.262 413.315C220.716 414.161 219.927 414.821 218.897 415.297C217.868 415.766 216.632 416 215.19 416H207.456V399.636H211.792V412.431H215.19C215.95 412.431 216.575 412.239 217.065 411.856C217.555 411.472 217.804 410.982 217.811 410.386C217.804 409.754 217.555 409.239 217.065 408.841C216.575 408.436 215.95 408.234 215.19 408.234H210.3V404.665ZM232.036 416V399.636H239.014C241.031 399.636 242.625 400.02 243.797 400.787C244.969 401.554 245.555 402.644 245.555 404.058C245.555 404.945 245.225 405.684 244.564 406.273C243.904 406.863 242.987 407.261 241.816 407.467C242.796 407.538 243.63 407.761 244.319 408.138C245.015 408.507 245.544 408.987 245.906 409.576C246.276 410.165 246.46 410.819 246.46 411.536C246.46 412.467 246.212 413.266 245.715 413.933C245.225 414.601 244.504 415.112 243.552 415.467C242.607 415.822 241.453 416 240.09 416H232.036ZM236.265 412.602H240.09C240.722 412.602 241.215 412.452 241.57 412.154C241.933 411.849 242.114 411.433 242.114 410.908C242.114 410.325 241.933 409.867 241.57 409.533C241.215 409.2 240.722 409.033 240.09 409.033H236.265V412.602ZM236.265 406.369H239.11C239.564 406.369 239.951 406.305 240.271 406.178C240.597 406.043 240.846 405.851 241.017 405.602C241.194 405.354 241.283 405.059 241.283 404.718C241.283 404.214 241.08 403.82 240.676 403.536C240.271 403.251 239.717 403.109 239.014 403.109H236.265V406.369ZM256.714 416.32C255.059 416.32 253.628 415.968 252.421 415.265C251.221 414.555 250.294 413.567 249.64 412.303C248.987 411.032 248.66 409.558 248.66 407.882C248.66 406.192 248.987 404.714 249.64 403.45C250.294 402.179 251.221 401.192 252.421 400.489C253.628 399.778 255.059 399.423 256.714 399.423C258.369 399.423 259.797 399.778 260.997 400.489C262.204 401.192 263.135 402.179 263.788 403.45C264.442 404.714 264.768 406.192 264.768 407.882C264.768 409.558 264.442 411.032 263.788 412.303C263.135 413.567 262.204 414.555 260.997 415.265C259.797 415.968 258.369 416.32 256.714 416.32ZM256.736 412.804C257.488 412.804 258.117 412.591 258.621 412.165C259.126 411.732 259.506 411.142 259.761 410.396C260.024 409.651 260.155 408.802 260.155 407.85C260.155 406.898 260.024 406.05 259.761 405.304C259.506 404.558 259.126 403.969 258.621 403.536C258.117 403.102 257.488 402.886 256.736 402.886C255.976 402.886 255.336 403.102 254.818 403.536C254.307 403.969 253.92 404.558 253.657 405.304C253.401 406.05 253.273 406.898 253.273 407.85C253.273 408.802 253.401 409.651 253.657 410.396C253.92 411.142 254.307 411.732 254.818 412.165C255.336 412.591 255.976 412.804 256.736 412.804ZM267.719 416V399.636H282.027V416H277.691V403.205H272.002V416H267.719ZM285.649 422.136V399.636H290.123V402.385H290.326C290.525 401.945 290.812 401.497 291.189 401.043C291.572 400.581 292.069 400.197 292.68 399.892C293.298 399.58 294.065 399.423 294.981 399.423C296.175 399.423 297.275 399.736 298.284 400.361C299.292 400.979 300.099 401.913 300.702 403.163C301.306 404.406 301.608 405.964 301.608 407.839C301.608 409.665 301.313 411.206 300.724 412.463C300.141 413.713 299.346 414.661 298.337 415.308C297.336 415.947 296.214 416.266 294.971 416.266C294.09 416.266 293.341 416.121 292.723 415.83C292.112 415.538 291.611 415.173 291.221 414.732C290.83 414.285 290.532 413.834 290.326 413.379H290.187V422.136H285.649ZM290.091 407.818C290.091 408.791 290.226 409.64 290.496 410.364C290.766 411.089 291.157 411.653 291.668 412.058C292.18 412.456 292.801 412.655 293.532 412.655C294.271 412.655 294.896 412.452 295.407 412.048C295.919 411.636 296.306 411.067 296.569 410.343C296.839 409.612 296.974 408.77 296.974 407.818C296.974 406.874 296.842 406.043 296.579 405.325C296.317 404.608 295.93 404.047 295.418 403.642C294.907 403.237 294.278 403.035 293.532 403.035C292.794 403.035 292.169 403.23 291.657 403.621C291.153 404.011 290.766 404.565 290.496 405.283C290.226 406 290.091 406.845 290.091 407.818ZM312.027 416.32C310.372 416.32 308.941 415.968 307.733 415.265C306.533 414.555 305.606 413.567 304.953 412.303C304.3 411.032 303.973 409.558 303.973 407.882C303.973 406.192 304.3 404.714 304.953 403.45C305.606 402.179 306.533 401.192 307.733 400.489C308.941 399.778 310.372 399.423 312.027 399.423C313.682 399.423 315.109 399.778 316.309 400.489C317.517 401.192 318.447 402.179 319.101 403.45C319.754 404.714 320.081 406.192 320.081 407.882C320.081 409.558 319.754 411.032 319.101 412.303C318.447 413.567 317.517 414.555 316.309 415.265C315.109 415.968 313.682 416.32 312.027 416.32ZM312.048 412.804C312.801 412.804 313.43 412.591 313.934 412.165C314.438 411.732 314.818 411.142 315.074 410.396C315.336 409.651 315.468 408.802 315.468 407.85C315.468 406.898 315.336 406.05 315.074 405.304C314.818 404.558 314.438 403.969 313.934 403.536C313.43 403.102 312.801 402.886 312.048 402.886C311.288 402.886 310.649 403.102 310.131 403.536C309.619 403.969 309.232 404.558 308.969 405.304C308.714 406.05 308.586 406.898 308.586 407.85C308.586 408.802 308.714 409.651 308.969 410.396C309.232 411.142 309.619 411.732 310.131 412.165C310.649 412.591 311.288 412.804 312.048 412.804ZM330.425 416.32C328.749 416.32 327.307 415.964 326.1 415.254C324.9 414.537 323.976 413.543 323.33 412.271C322.691 411 322.371 409.537 322.371 407.882C322.371 406.206 322.694 404.736 323.341 403.472C323.994 402.2 324.921 401.21 326.121 400.499C327.322 399.782 328.749 399.423 330.404 399.423C331.831 399.423 333.081 399.683 334.154 400.201C335.226 400.719 336.075 401.447 336.7 402.385C337.325 403.322 337.67 404.423 337.733 405.688H333.451C333.33 404.871 333.01 404.214 332.492 403.717C331.981 403.212 331.309 402.96 330.479 402.96C329.775 402.96 329.161 403.152 328.635 403.536C328.117 403.912 327.712 404.462 327.421 405.187C327.13 405.911 326.984 406.788 326.984 407.818C326.984 408.862 327.126 409.75 327.41 410.482C327.702 411.213 328.11 411.771 328.635 412.154C329.161 412.538 329.775 412.729 330.479 412.729C330.997 412.729 331.462 412.623 331.874 412.41C332.293 412.197 332.638 411.888 332.907 411.483C333.184 411.071 333.366 410.577 333.451 410.002H337.733C337.662 411.252 337.322 412.353 336.711 413.305C336.107 414.249 335.273 414.988 334.207 415.521C333.142 416.053 331.881 416.32 330.425 416.32Z" fill="#0065F4"/>
<path d="M60.4659 256V235.636H62.9318V244.705H73.7898V235.636H76.2557V256H73.7898V246.892H62.9318V256H60.4659ZM85.3686 256.358C84.4008 256.358 83.5225 256.176 82.7337 255.811C81.9448 255.44 81.3184 254.906 80.8544 254.21C80.3904 253.508 80.1584 252.659 80.1584 251.665C80.1584 250.79 80.3307 250.08 80.6754 249.537C81.0201 248.987 81.4808 248.556 82.0575 248.244C82.6342 247.933 83.2706 247.701 83.9666 247.548C84.6693 247.389 85.3752 247.263 86.0845 247.17C87.0125 247.051 87.7649 246.962 88.3416 246.902C88.925 246.836 89.3492 246.726 89.6143 246.574C89.8861 246.421 90.022 246.156 90.022 245.778V245.699C90.022 244.718 89.7536 243.955 89.2166 243.412C88.6863 242.868 87.8809 242.597 86.8004 242.597C85.6802 242.597 84.8018 242.842 84.1655 243.332C83.5291 243.823 83.0817 244.347 82.8232 244.903L80.5959 244.108C80.9936 243.18 81.5239 242.457 82.1868 241.94C82.8563 241.417 83.5855 241.052 84.3743 240.847C85.1697 240.634 85.9519 240.528 86.7209 240.528C87.2114 240.528 87.7749 240.588 88.4112 240.707C89.0542 240.82 89.674 241.055 90.2706 241.413C90.8738 241.771 91.3743 242.312 91.772 243.034C92.1697 243.757 92.3686 244.724 92.3686 245.938V256H90.022V253.932H89.9027C89.7436 254.263 89.4785 254.618 89.1072 254.996C88.736 255.374 88.2422 255.695 87.6257 255.96C87.0092 256.225 86.2569 256.358 85.3686 256.358ZM85.7266 254.25C86.6546 254.25 87.4368 254.068 88.0732 253.703C88.7161 253.339 89.2 252.868 89.5249 252.291C89.8563 251.714 90.022 251.108 90.022 250.472V248.324C89.9226 248.443 89.7038 248.553 89.3658 248.652C89.0343 248.745 88.6499 248.828 88.2124 248.901C87.7815 248.967 87.3606 249.027 86.9496 249.08C86.5452 249.126 86.2171 249.166 85.9652 249.199C85.3554 249.278 84.7853 249.408 84.255 249.587C83.7313 249.759 83.3071 250.021 82.9822 250.372C82.6641 250.717 82.505 251.187 82.505 251.784C82.505 252.599 82.8066 253.216 83.4098 253.634C84.0196 254.045 84.7919 254.25 85.7266 254.25ZM96.6516 256V240.727H108.663V256H106.316V242.915H98.9982V256H96.6516ZM115.295 252.54L122.653 240.727H125.358V256H123.011V244.188L115.693 256H112.949V240.727H115.295V252.54ZM129.656 240.727H132.002V253.812H137.769V240.727H140.116V253.812H145.883V240.727H148.229V256H129.656V240.727ZM154.862 252.54L162.219 240.727H164.924V256H162.577V244.188L155.259 256H152.515V240.727H154.862V252.54ZM167.144 242.915V240.727H179.553V242.915H174.542V256H172.195V242.915H167.144ZM188.586 256.318C187.115 256.318 185.845 255.993 184.778 255.344C183.717 254.688 182.899 253.773 182.322 252.599C181.752 251.42 181.467 250.047 181.467 248.483C181.467 246.919 181.752 245.54 182.322 244.347C182.899 243.147 183.701 242.212 184.728 241.543C185.762 240.866 186.969 240.528 188.348 240.528C189.143 240.528 189.929 240.661 190.704 240.926C191.48 241.191 192.186 241.622 192.822 242.219C193.458 242.809 193.966 243.591 194.343 244.565C194.721 245.54 194.91 246.74 194.91 248.165V249.159H183.137V247.131H192.524C192.524 246.269 192.351 245.5 192.007 244.824C191.669 244.148 191.185 243.614 190.555 243.223C189.932 242.832 189.196 242.636 188.348 242.636C187.413 242.636 186.604 242.868 185.922 243.332C185.245 243.79 184.725 244.386 184.36 245.122C183.996 245.858 183.814 246.647 183.814 247.489V248.841C183.814 249.994 184.012 250.972 184.41 251.774C184.815 252.57 185.375 253.176 186.091 253.594C186.806 254.005 187.638 254.21 188.586 254.21C189.203 254.21 189.76 254.124 190.257 253.952C190.761 253.773 191.195 253.508 191.559 253.156C191.924 252.798 192.206 252.354 192.404 251.824L194.672 252.46C194.433 253.229 194.032 253.905 193.468 254.489C192.905 255.065 192.209 255.516 191.38 255.841C190.552 256.159 189.62 256.318 188.586 256.318ZM216.576 247.29V249.477H208.145V247.29H216.576ZM208.701 240.727V256H206.355V240.727H208.701ZM218.366 240.727V256H216.02V240.727H218.366ZM227.146 256.358C226.178 256.358 225.3 256.176 224.511 255.811C223.722 255.44 223.096 254.906 222.632 254.21C222.168 253.508 221.936 252.659 221.936 251.665C221.936 250.79 222.108 250.08 222.453 249.537C222.797 248.987 223.258 248.556 223.835 248.244C224.412 247.933 225.048 247.701 225.744 247.548C226.447 247.389 227.153 247.263 227.862 247.17C228.79 247.051 229.542 246.962 230.119 246.902C230.702 246.836 231.127 246.726 231.392 246.574C231.663 246.421 231.799 246.156 231.799 245.778V245.699C231.799 244.718 231.531 243.955 230.994 243.412C230.464 242.868 229.658 242.597 228.578 242.597C227.458 242.597 226.579 242.842 225.943 243.332C225.306 243.823 224.859 244.347 224.6 244.903L222.373 244.108C222.771 243.18 223.301 242.457 223.964 241.94C224.634 241.417 225.363 241.052 226.152 240.847C226.947 240.634 227.729 240.528 228.498 240.528C228.989 240.528 229.552 240.588 230.189 240.707C230.832 240.82 231.451 241.055 232.048 241.413C232.651 241.771 233.152 242.312 233.549 243.034C233.947 243.757 234.146 244.724 234.146 245.938V256H231.799V253.932H231.68C231.521 254.263 231.256 254.618 230.885 254.996C230.513 255.374 230.02 255.695 229.403 255.96C228.787 256.225 228.034 256.358 227.146 256.358ZM227.504 254.25C228.432 254.25 229.214 254.068 229.85 253.703C230.493 253.339 230.977 252.868 231.302 252.291C231.634 251.714 231.799 251.108 231.799 250.472V248.324C231.7 248.443 231.481 248.553 231.143 248.652C230.812 248.745 230.427 248.828 229.99 248.901C229.559 248.967 229.138 249.027 228.727 249.08C228.323 249.126 227.994 249.166 227.743 249.199C227.133 249.278 226.563 249.408 226.032 249.587C225.509 249.759 225.084 250.021 224.76 250.372C224.441 250.717 224.282 251.187 224.282 251.784C224.282 252.599 224.584 253.216 225.187 253.634C225.797 254.045 226.569 254.25 227.504 254.25ZM246.781 252.818L252.111 240.727H254.338L247.736 256H245.827L239.344 240.727H241.531L246.781 252.818ZM240.776 240.727V256H238.429V240.727H240.776ZM252.787 256V240.727H255.134V256H252.787ZM293.156 246.176V248.364H265.156V246.176H293.156ZM309.384 256.318C308.005 256.318 306.795 255.99 305.754 255.334C304.72 254.678 303.911 253.759 303.328 252.58C302.751 251.4 302.463 250.021 302.463 248.443C302.463 246.852 302.751 245.464 303.328 244.277C303.911 243.09 304.72 242.169 305.754 241.513C306.795 240.857 308.005 240.528 309.384 240.528C310.762 240.528 311.969 240.857 313.003 241.513C314.044 242.169 314.852 243.09 315.429 244.277C316.012 245.464 316.304 246.852 316.304 248.443C316.304 250.021 316.012 251.4 315.429 252.58C314.852 253.759 314.044 254.678 313.003 255.334C311.969 255.99 310.762 256.318 309.384 256.318ZM309.384 254.21C310.431 254.21 311.293 253.942 311.969 253.405C312.645 252.868 313.145 252.162 313.47 251.287C313.795 250.412 313.957 249.464 313.957 248.443C313.957 247.422 313.795 246.471 313.47 245.589C313.145 244.708 312.645 243.995 311.969 243.452C311.293 242.908 310.431 242.636 309.384 242.636C308.336 242.636 307.474 242.908 306.798 243.452C306.122 243.995 305.622 244.708 305.297 245.589C304.972 246.471 304.81 247.422 304.81 248.443C304.81 249.464 304.972 250.412 305.297 251.287C305.622 252.162 306.122 252.868 306.798 253.405C307.474 253.942 308.336 254.21 309.384 254.21ZM317.89 242.915V240.727H330.299V242.915H325.288V256H322.941V242.915H317.89ZM333.722 256V240.727H339.966C341.61 240.727 342.916 241.098 343.884 241.841C344.852 242.583 345.336 243.564 345.336 244.784C345.336 245.712 345.06 246.431 344.51 246.942C343.96 247.446 343.254 247.787 342.392 247.966C342.956 248.045 343.503 248.244 344.033 248.562C344.57 248.881 345.014 249.318 345.365 249.875C345.717 250.425 345.892 251.101 345.892 251.903C345.892 252.686 345.694 253.385 345.296 254.001C344.898 254.618 344.328 255.105 343.586 255.463C342.843 255.821 341.955 256 340.921 256H333.722ZM335.949 253.852H340.921C341.73 253.852 342.363 253.66 342.82 253.276C343.277 252.891 343.506 252.367 343.506 251.705C343.506 250.916 343.277 250.296 342.82 249.845C342.363 249.388 341.73 249.159 340.921 249.159H335.949V253.852ZM335.949 247.131H339.966C340.596 247.131 341.136 247.045 341.587 246.872C342.038 246.693 342.382 246.441 342.621 246.116C342.866 245.785 342.989 245.394 342.989 244.943C342.989 244.3 342.721 243.796 342.184 243.432C341.647 243.061 340.908 242.875 339.966 242.875H335.949V247.131ZM355.848 256.318C354.376 256.318 353.107 255.993 352.04 255.344C350.979 254.688 350.161 253.773 349.584 252.599C349.014 251.42 348.729 250.047 348.729 248.483C348.729 246.919 349.014 245.54 349.584 244.347C350.161 243.147 350.963 242.212 351.99 241.543C353.024 240.866 354.231 240.528 355.609 240.528C356.405 240.528 357.19 240.661 357.966 240.926C358.741 241.191 359.447 241.622 360.084 242.219C360.72 242.809 361.227 243.591 361.605 244.565C361.983 245.54 362.172 246.74 362.172 248.165V249.159H350.399V247.131H359.786C359.786 246.269 359.613 245.5 359.268 244.824C358.93 244.148 358.446 243.614 357.817 243.223C357.194 242.832 356.458 242.636 355.609 242.636C354.675 242.636 353.866 242.868 353.183 243.332C352.507 243.79 351.987 244.386 351.622 245.122C351.258 245.858 351.075 246.647 351.075 247.489V248.841C351.075 249.994 351.274 250.972 351.672 251.774C352.076 252.57 352.636 253.176 353.352 253.594C354.068 254.005 354.9 254.21 355.848 254.21C356.464 254.21 357.021 254.124 357.518 253.952C358.022 253.773 358.456 253.508 358.821 253.156C359.186 252.798 359.467 252.354 359.666 251.824L361.933 252.46C361.695 253.229 361.294 253.905 360.73 254.489C360.167 255.065 359.471 255.516 358.642 255.841C357.813 256.159 356.882 256.318 355.848 256.318ZM364.32 242.915V240.727H376.729V242.915H371.717V256H369.371V242.915H364.32ZM382.498 252.54L389.856 240.727H392.561V256H390.214V244.188L382.896 256H380.152V240.727H382.498V252.54ZM405.211 252.818L410.54 240.727H412.768L406.165 256H404.256L397.773 240.727H399.961L405.211 252.818ZM399.205 240.727V256H396.859V240.727H399.205ZM411.217 256V240.727H413.563V256H411.217ZM425.734 256V240.727H431.978C433.622 240.727 434.928 241.098 435.896 241.841C436.863 242.583 437.347 243.564 437.347 244.784C437.347 245.712 437.072 246.431 436.522 246.942C435.972 247.446 435.266 247.787 434.404 247.966C434.968 248.045 435.514 248.244 436.045 248.562C436.582 248.881 437.026 249.318 437.377 249.875C437.728 250.425 437.904 251.101 437.904 251.903C437.904 252.686 437.705 253.385 437.308 254.001C436.91 254.618 436.34 255.105 435.597 255.463C434.855 255.821 433.967 256 432.933 256H425.734ZM427.961 253.852H432.933C433.741 253.852 434.374 253.66 434.832 253.276C435.289 252.891 435.518 252.367 435.518 251.705C435.518 250.916 435.289 250.296 434.832 249.845C434.374 249.388 433.741 249.159 432.933 249.159H427.961V253.852ZM427.961 247.131H431.978C432.608 247.131 433.148 247.045 433.599 246.872C434.049 246.693 434.394 246.441 434.633 246.116C434.878 245.785 435.001 245.394 435.001 244.943C435.001 244.3 434.732 243.796 434.195 243.432C433.658 243.061 432.919 242.875 431.978 242.875H427.961V247.131ZM59.2727 284.915V282.727H71.6818V284.915H66.6705V298H64.3239V284.915H59.2727ZM80.7152 298.318C79.2436 298.318 77.9742 297.993 76.907 297.344C75.8464 296.688 75.0277 295.773 74.451 294.599C73.8809 293.42 73.5959 292.047 73.5959 290.483C73.5959 288.919 73.8809 287.54 74.451 286.347C75.0277 285.147 75.8298 284.212 76.8572 283.543C77.8913 282.866 79.0978 282.528 80.4766 282.528C81.272 282.528 82.0575 282.661 82.8331 282.926C83.6087 283.191 84.3146 283.622 84.951 284.219C85.5874 284.809 86.0945 285.591 86.4723 286.565C86.8501 287.54 87.0391 288.74 87.0391 290.165V291.159H75.2663V289.131H84.6527C84.6527 288.269 84.4804 287.5 84.1357 286.824C83.7976 286.148 83.3137 285.614 82.6839 285.223C82.0608 284.832 81.325 284.636 80.4766 284.636C79.5419 284.636 78.7332 284.868 78.0504 285.332C77.3743 285.79 76.8539 286.386 76.4893 287.122C76.1248 287.858 75.9425 288.647 75.9425 289.489V290.841C75.9425 291.994 76.1413 292.972 76.5391 293.774C76.9434 294.57 77.5036 295.176 78.2195 295.594C78.9354 296.005 79.7673 296.21 80.7152 296.21C81.3317 296.21 81.8885 296.124 82.3857 295.952C82.8894 295.773 83.3236 295.508 83.6882 295.156C84.0528 294.798 84.3345 294.354 84.5334 293.824L86.8004 294.46C86.5618 295.229 86.1607 295.905 85.5973 296.489C85.0339 297.065 84.3378 297.516 83.5092 297.841C82.6806 298.159 81.7493 298.318 80.7152 298.318ZM102.381 282.727V298H100.035V282.727H102.381ZM101.467 290.006V292.193C100.936 292.392 100.409 292.568 99.8857 292.72C99.362 292.866 98.8118 292.982 98.2351 293.068C97.6584 293.148 97.0253 293.188 96.3359 293.188C94.6058 293.188 93.2171 292.72 92.1697 291.786C91.129 290.851 90.6087 289.449 90.6087 287.58V282.688H92.9553V287.58C92.9553 288.362 93.1044 289.005 93.4027 289.509C93.701 290.012 94.1054 290.387 94.6158 290.632C95.1262 290.877 95.6996 291 96.3359 291C97.3303 291 98.2285 290.911 99.0305 290.732C99.8393 290.546 100.651 290.304 101.467 290.006ZM113.09 298.318C111.619 298.318 110.349 297.993 109.282 297.344C108.221 296.688 107.403 295.773 106.826 294.599C106.256 293.42 105.971 292.047 105.971 290.483C105.971 288.919 106.256 287.54 106.826 286.347C107.403 285.147 108.205 284.212 109.232 283.543C110.266 282.866 111.473 282.528 112.852 282.528C113.647 282.528 114.433 282.661 115.208 282.926C115.984 283.191 116.69 283.622 117.326 284.219C117.962 284.809 118.469 285.591 118.847 286.565C119.225 287.54 119.414 288.74 119.414 290.165V291.159H107.641V289.131H117.028C117.028 288.269 116.855 287.5 116.511 286.824C116.173 286.148 115.689 285.614 115.059 285.223C114.436 284.832 113.7 284.636 112.852 284.636C111.917 284.636 111.108 284.868 110.425 285.332C109.749 285.79 109.229 286.386 108.864 287.122C108.5 287.858 108.317 288.647 108.317 289.489V290.841C108.317 291.994 108.516 292.972 108.914 293.774C109.318 294.57 109.879 295.176 110.594 295.594C111.31 296.005 112.142 296.21 113.09 296.21C113.707 296.21 114.263 296.124 114.761 295.952C115.264 295.773 115.699 295.508 116.063 295.156C116.428 294.798 116.71 294.354 116.908 293.824L119.175 294.46C118.937 295.229 118.536 295.905 117.972 296.489C117.409 297.065 116.713 297.516 115.884 297.841C115.056 298.159 114.124 298.318 113.09 298.318ZM133.205 289.29V291.477H124.773V289.29H133.205ZM125.33 282.727V298H122.984V282.727H125.33ZM134.995 282.727V298H132.648V282.727H134.995ZM141.627 294.54L148.985 282.727H151.69V298H149.343V286.188L142.025 298H139.281V282.727H141.627V294.54ZM162.391 298.318C160.919 298.318 159.65 297.993 158.583 297.344C157.522 296.688 156.703 295.773 156.127 294.599C155.557 293.42 155.272 292.047 155.272 290.483C155.272 288.919 155.557 287.54 156.127 286.347C156.703 285.147 157.506 284.212 158.533 283.543C159.567 282.866 160.774 282.528 162.152 282.528C162.948 282.528 163.733 282.661 164.509 282.926C165.284 283.191 165.99 283.622 166.627 284.219C167.263 284.809 167.77 285.591 168.148 286.565C168.526 287.54 168.715 288.74 168.715 290.165V291.159H156.942V289.131H166.328C166.328 288.269 166.156 287.5 165.811 286.824C165.473 286.148 164.989 285.614 164.36 285.223C163.737 284.832 163.001 284.636 162.152 284.636C161.218 284.636 160.409 284.868 159.726 285.332C159.05 285.79 158.53 286.386 158.165 287.122C157.801 287.858 157.618 288.647 157.618 289.489V290.841C157.618 291.994 157.817 292.972 158.215 293.774C158.619 294.57 159.179 295.176 159.895 295.594C160.611 296.005 161.443 296.21 162.391 296.21C163.007 296.21 163.564 296.124 164.061 295.952C164.565 295.773 164.999 295.508 165.364 295.156C165.729 294.798 166.01 294.354 166.209 293.824L168.476 294.46C168.238 295.229 167.837 295.905 167.273 296.489C166.71 297.065 166.014 297.516 165.185 297.841C164.356 298.159 163.425 298.318 162.391 298.318ZM191.932 282.727V298H189.586V282.727H191.932ZM191.017 290.006V292.193C190.487 292.392 189.96 292.568 189.436 292.72C188.913 292.866 188.363 292.982 187.786 293.068C187.209 293.148 186.576 293.188 185.887 293.188C184.157 293.188 182.768 292.72 181.721 291.786C180.68 290.851 180.159 289.449 180.159 287.58V282.688H182.506V287.58C182.506 288.362 182.655 289.005 182.953 289.509C183.252 290.012 183.656 290.387 184.167 290.632C184.677 290.877 185.25 291 185.887 291C186.881 291 187.779 290.911 188.581 290.732C189.39 290.546 190.202 290.304 191.017 290.006ZM200.732 298.358C199.764 298.358 198.886 298.176 198.097 297.811C197.308 297.44 196.682 296.906 196.218 296.21C195.754 295.508 195.522 294.659 195.522 293.665C195.522 292.79 195.694 292.08 196.039 291.537C196.383 290.987 196.844 290.556 197.421 290.244C197.998 289.933 198.634 289.701 199.33 289.548C200.033 289.389 200.739 289.263 201.448 289.17C202.376 289.051 203.128 288.962 203.705 288.902C204.288 288.836 204.712 288.726 204.978 288.574C205.249 288.421 205.385 288.156 205.385 287.778V287.699C205.385 286.718 205.117 285.955 204.58 285.412C204.05 284.868 203.244 284.597 202.164 284.597C201.043 284.597 200.165 284.842 199.529 285.332C198.892 285.823 198.445 286.347 198.186 286.903L195.959 286.108C196.357 285.18 196.887 284.457 197.55 283.94C198.22 283.417 198.949 283.052 199.738 282.847C200.533 282.634 201.315 282.528 202.084 282.528C202.575 282.528 203.138 282.588 203.775 282.707C204.417 282.82 205.037 283.055 205.634 283.413C206.237 283.771 206.738 284.312 207.135 285.034C207.533 285.757 207.732 286.724 207.732 287.938V298H205.385V295.932H205.266C205.107 296.263 204.842 296.618 204.471 296.996C204.099 297.374 203.605 297.695 202.989 297.96C202.373 298.225 201.62 298.358 200.732 298.358ZM201.09 296.25C202.018 296.25 202.8 296.068 203.436 295.703C204.079 295.339 204.563 294.868 204.888 294.291C205.22 293.714 205.385 293.108 205.385 292.472V290.324C205.286 290.443 205.067 290.553 204.729 290.652C204.398 290.745 204.013 290.828 203.576 290.901C203.145 290.967 202.724 291.027 202.313 291.08C201.908 291.126 201.58 291.166 201.328 291.199C200.719 291.278 200.149 291.408 199.618 291.587C199.095 291.759 198.67 292.021 198.346 292.372C198.027 292.717 197.868 293.187 197.868 293.784C197.868 294.599 198.17 295.216 198.773 295.634C199.383 296.045 200.155 296.25 201.09 296.25ZM218.219 298.318C216.788 298.318 215.555 297.98 214.521 297.304C213.487 296.628 212.691 295.696 212.134 294.51C211.577 293.323 211.299 291.968 211.299 290.443C211.299 288.892 211.584 287.523 212.154 286.337C212.731 285.143 213.533 284.212 214.56 283.543C215.594 282.866 216.801 282.528 218.18 282.528C219.254 282.528 220.221 282.727 221.083 283.125C221.945 283.523 222.651 284.08 223.201 284.795C223.751 285.511 224.093 286.347 224.225 287.301H221.879C221.7 286.605 221.302 285.989 220.685 285.452C220.076 284.908 219.254 284.636 218.219 284.636C217.305 284.636 216.503 284.875 215.813 285.352C215.13 285.823 214.597 286.489 214.212 287.351C213.835 288.206 213.646 289.21 213.646 290.364C213.646 291.544 213.831 292.571 214.202 293.446C214.58 294.321 215.111 295 215.793 295.484C216.483 295.968 217.291 296.21 218.219 296.21C218.829 296.21 219.383 296.104 219.88 295.892C220.377 295.68 220.798 295.375 221.143 294.977C221.487 294.58 221.733 294.102 221.879 293.545H224.225C224.093 294.447 223.764 295.259 223.241 295.982C222.724 296.697 222.038 297.268 221.183 297.692C220.334 298.109 219.346 298.318 218.219 298.318ZM232.15 298.358C231.182 298.358 230.304 298.176 229.515 297.811C228.726 297.44 228.1 296.906 227.636 296.21C227.172 295.508 226.94 294.659 226.94 293.665C226.94 292.79 227.112 292.08 227.457 291.537C227.801 290.987 228.262 290.556 228.839 290.244C229.415 289.933 230.052 289.701 230.748 289.548C231.451 289.389 232.156 289.263 232.866 289.17C233.794 289.051 234.546 288.962 235.123 288.902C235.706 288.836 236.13 288.726 236.396 288.574C236.667 288.421 236.803 288.156 236.803 287.778V287.699C236.803 286.718 236.535 285.955 235.998 285.412C235.468 284.868 234.662 284.597 233.582 284.597C232.461 284.597 231.583 284.842 230.947 285.332C230.31 285.823 229.863 286.347 229.604 286.903L227.377 286.108C227.775 285.18 228.305 284.457 228.968 283.94C229.638 283.417 230.367 283.052 231.156 282.847C231.951 282.634 232.733 282.528 233.502 282.528C233.993 282.528 234.556 282.588 235.192 282.707C235.835 282.82 236.455 283.055 237.052 283.413C237.655 283.771 238.156 284.312 238.553 285.034C238.951 285.757 239.15 286.724 239.15 287.938V298H236.803V295.932H236.684C236.525 296.263 236.26 296.618 235.888 296.996C235.517 297.374 235.023 297.695 234.407 297.96C233.79 298.225 233.038 298.358 232.15 298.358ZM232.508 296.25C233.436 296.25 234.218 296.068 234.854 295.703C235.497 295.339 235.981 294.868 236.306 294.291C236.638 293.714 236.803 293.108 236.803 292.472V290.324C236.704 290.443 236.485 290.553 236.147 290.652C235.816 290.745 235.431 290.828 234.994 290.901C234.563 290.967 234.142 291.027 233.731 291.08C233.326 291.126 232.998 291.166 232.746 291.199C232.137 291.278 231.567 291.408 231.036 291.587C230.513 291.759 230.088 292.021 229.763 292.372C229.445 292.717 229.286 293.187 229.286 293.784C229.286 294.599 229.588 295.216 230.191 295.634C230.801 296.045 231.573 296.25 232.508 296.25ZM251.308 298V282.727H257.552C259.196 282.727 260.502 283.098 261.47 283.841C262.438 284.583 262.922 285.564 262.922 286.784C262.922 287.712 262.646 288.431 262.096 288.942C261.546 289.446 260.84 289.787 259.978 289.966C260.542 290.045 261.089 290.244 261.619 290.562C262.156 290.881 262.6 291.318 262.951 291.875C263.303 292.425 263.478 293.101 263.478 293.903C263.478 294.686 263.279 295.385 262.882 296.001C262.484 296.618 261.914 297.105 261.172 297.463C260.429 297.821 259.541 298 258.507 298H251.308ZM253.535 295.852H258.507C259.315 295.852 259.949 295.66 260.406 295.276C260.863 294.891 261.092 294.367 261.092 293.705C261.092 292.916 260.863 292.296 260.406 291.845C259.949 291.388 259.315 291.159 258.507 291.159H253.535V295.852ZM253.535 289.131H257.552C258.182 289.131 258.722 289.045 259.173 288.872C259.624 288.693 259.968 288.441 260.207 288.116C260.452 287.785 260.575 287.394 260.575 286.943C260.575 286.3 260.306 285.796 259.77 285.432C259.233 285.061 258.493 284.875 257.552 284.875H253.535V289.131ZM274.906 303.727V282.727H277.173V285.153H277.451C277.623 284.888 277.862 284.55 278.167 284.139C278.478 283.722 278.923 283.35 279.499 283.026C280.083 282.694 280.871 282.528 281.866 282.528C283.152 282.528 284.285 282.85 285.266 283.493C286.247 284.136 287.013 285.047 287.563 286.227C288.113 287.407 288.388 288.799 288.388 290.403C288.388 292.021 288.113 293.423 287.563 294.609C287.013 295.789 286.251 296.704 285.276 297.354C284.302 297.997 283.178 298.318 281.906 298.318C280.924 298.318 280.139 298.156 279.549 297.831C278.959 297.5 278.505 297.125 278.187 296.707C277.869 296.283 277.623 295.932 277.451 295.653H277.252V303.727H274.906ZM277.212 290.364C277.212 291.517 277.381 292.535 277.719 293.416C278.058 294.291 278.551 294.977 279.201 295.474C279.851 295.965 280.646 296.21 281.587 296.21C282.568 296.21 283.387 295.952 284.043 295.435C284.706 294.911 285.203 294.208 285.535 293.327C285.873 292.438 286.042 291.451 286.042 290.364C286.042 289.29 285.876 288.322 285.545 287.46C285.22 286.592 284.726 285.906 284.063 285.402C283.407 284.892 282.582 284.636 281.587 284.636C280.633 284.636 279.831 284.878 279.181 285.362C278.531 285.839 278.041 286.509 277.71 287.371C277.378 288.226 277.212 289.223 277.212 290.364ZM296.462 298.358C295.495 298.358 294.616 298.176 293.827 297.811C293.039 297.44 292.412 296.906 291.948 296.21C291.484 295.508 291.252 294.659 291.252 293.665C291.252 292.79 291.424 292.08 291.769 291.537C292.114 290.987 292.575 290.556 293.151 290.244C293.728 289.933 294.364 289.701 295.06 289.548C295.763 289.389 296.469 289.263 297.178 289.17C298.106 289.051 298.859 288.962 299.435 288.902C300.019 288.836 300.443 288.726 300.708 288.574C300.98 288.421 301.116 288.156 301.116 287.778V287.699C301.116 286.718 300.847 285.955 300.31 285.412C299.78 284.868 298.975 284.597 297.894 284.597C296.774 284.597 295.896 284.842 295.259 285.332C294.623 285.823 294.175 286.347 293.917 286.903L291.69 286.108C292.087 285.18 292.618 284.457 293.281 283.94C293.95 283.417 294.679 283.052 295.468 282.847C296.263 282.634 297.046 282.528 297.815 282.528C298.305 282.528 298.869 282.588 299.505 282.707C300.148 282.82 300.768 283.055 301.364 283.413C301.968 283.771 302.468 284.312 302.866 285.034C303.263 285.757 303.462 286.724 303.462 287.938V298H301.116V295.932H300.996C300.837 296.263 300.572 296.618 300.201 296.996C299.83 297.374 299.336 297.695 298.719 297.96C298.103 298.225 297.351 298.358 296.462 298.358ZM296.82 296.25C297.748 296.25 298.531 296.068 299.167 295.703C299.81 295.339 300.294 294.868 300.619 294.291C300.95 293.714 301.116 293.108 301.116 292.472V290.324C301.016 290.443 300.798 290.553 300.46 290.652C300.128 290.745 299.744 290.828 299.306 290.901C298.875 290.967 298.454 291.027 298.043 291.08C297.639 291.126 297.311 291.166 297.059 291.199C296.449 291.278 295.879 291.408 295.349 291.587C294.825 291.759 294.401 292.021 294.076 292.372C293.758 292.717 293.599 293.187 293.599 293.784C293.599 294.599 293.9 295.216 294.504 295.634C295.113 296.045 295.886 296.25 296.82 296.25ZM319.081 277L320.274 278.432C319.81 278.883 319.273 279.197 318.663 279.376C318.053 279.555 317.364 279.665 316.595 279.705C315.826 279.744 314.971 279.784 314.029 279.824C312.969 279.864 312.091 280.122 311.395 280.599C310.699 281.077 310.162 281.766 309.784 282.668C309.406 283.569 309.164 284.676 309.058 285.989H309.257C309.774 285.034 310.49 284.331 311.404 283.881C312.319 283.43 313.3 283.205 314.348 283.205C315.541 283.205 316.615 283.483 317.569 284.04C318.524 284.597 319.279 285.422 319.836 286.516C320.393 287.609 320.672 288.958 320.672 290.562C320.672 292.16 320.386 293.539 319.816 294.699C319.253 295.859 318.461 296.754 317.44 297.384C316.426 298.007 315.236 298.318 313.87 298.318C312.505 298.318 311.308 297.997 310.281 297.354C309.253 296.704 308.455 295.743 307.885 294.47C307.315 293.191 307.029 291.61 307.029 289.727V288.097C307.029 284.696 307.606 282.117 308.76 280.361C309.92 278.604 311.663 277.696 313.99 277.636C314.812 277.61 315.544 277.603 316.187 277.616C316.83 277.63 317.39 277.6 317.868 277.527C318.345 277.454 318.749 277.278 319.081 277ZM313.87 296.21C314.792 296.21 315.584 295.978 316.247 295.514C316.916 295.05 317.43 294.397 317.788 293.555C318.146 292.707 318.325 291.709 318.325 290.562C318.325 289.449 318.143 288.501 317.778 287.719C317.42 286.937 316.906 286.34 316.237 285.929C315.567 285.518 314.765 285.312 313.831 285.312C313.148 285.312 312.535 285.429 311.991 285.661C311.448 285.893 310.984 286.234 310.599 286.685C310.215 287.135 309.916 287.686 309.704 288.335C309.499 288.985 309.389 289.727 309.376 290.562C309.376 292.273 309.777 293.642 310.579 294.669C311.381 295.696 312.478 296.21 313.87 296.21ZM330.466 298.318C329.087 298.318 327.877 297.99 326.836 297.334C325.802 296.678 324.993 295.759 324.41 294.58C323.833 293.4 323.545 292.021 323.545 290.443C323.545 288.852 323.833 287.464 324.41 286.277C324.993 285.09 325.802 284.169 326.836 283.513C327.877 282.857 329.087 282.528 330.466 282.528C331.844 282.528 333.051 282.857 334.085 283.513C335.126 284.169 335.934 285.09 336.511 286.277C337.094 287.464 337.386 288.852 337.386 290.443C337.386 292.021 337.094 293.4 336.511 294.58C335.934 295.759 335.126 296.678 334.085 297.334C333.051 297.99 331.844 298.318 330.466 298.318ZM330.466 296.21C331.513 296.21 332.375 295.942 333.051 295.405C333.727 294.868 334.227 294.162 334.552 293.287C334.877 292.412 335.039 291.464 335.039 290.443C335.039 289.422 334.877 288.471 334.552 287.589C334.227 286.708 333.727 285.995 333.051 285.452C332.375 284.908 331.513 284.636 330.466 284.636C329.418 284.636 328.556 284.908 327.88 285.452C327.204 285.995 326.704 286.708 326.379 287.589C326.054 288.471 325.892 289.422 325.892 290.443C325.892 291.464 326.054 292.412 326.379 293.287C326.704 294.162 327.204 294.868 327.88 295.405C328.556 295.942 329.418 296.21 330.466 296.21ZM352.741 282.727V298H350.394V282.727H352.741ZM351.826 290.006V292.193C351.296 292.392 350.769 292.568 350.245 292.72C349.721 292.866 349.171 292.982 348.594 293.068C348.018 293.148 347.385 293.188 346.695 293.188C344.965 293.188 343.576 292.72 342.529 291.786C341.488 290.851 340.968 289.449 340.968 287.58V282.688H343.315V287.58C343.315 288.362 343.464 289.005 343.762 289.509C344.06 290.012 344.465 290.387 344.975 290.632C345.486 290.877 346.059 291 346.695 291C347.69 291 348.588 290.911 349.39 290.732C350.199 290.546 351.011 290.304 351.826 290.006ZM363.45 298.318C361.978 298.318 360.709 297.993 359.641 297.344C358.581 296.688 357.762 295.773 357.185 294.599C356.615 293.42 356.33 292.047 356.33 290.483C356.33 288.919 356.615 287.54 357.185 286.347C357.762 285.147 358.564 284.212 359.592 283.543C360.626 282.866 361.832 282.528 363.211 282.528C364.006 282.528 364.792 282.661 365.567 282.926C366.343 283.191 367.049 283.622 367.685 284.219C368.322 284.809 368.829 285.591 369.207 286.565C369.585 287.54 369.773 288.74 369.773 290.165V291.159H358.001V289.131H367.387C367.387 288.269 367.215 287.5 366.87 286.824C366.532 286.148 366.048 285.614 365.418 285.223C364.795 284.832 364.059 284.636 363.211 284.636C362.276 284.636 361.468 284.868 360.785 285.332C360.109 285.79 359.588 286.386 359.224 287.122C358.859 287.858 358.677 288.647 358.677 289.489V290.841C358.677 291.994 358.876 292.972 359.273 293.774C359.678 294.57 360.238 295.176 360.954 295.594C361.67 296.005 362.502 296.21 363.45 296.21C364.066 296.21 364.623 296.124 365.12 295.952C365.624 295.773 366.058 295.508 366.423 295.156C366.787 294.798 367.069 294.354 367.268 293.824L369.535 294.46C369.296 295.229 368.895 295.905 368.332 296.489C367.768 297.065 367.072 297.516 366.244 297.841C365.415 298.159 364.484 298.318 363.45 298.318ZM379.746 298.318C378.275 298.318 377.005 297.993 375.938 297.344C374.878 296.688 374.059 295.773 373.482 294.599C372.912 293.42 372.627 292.047 372.627 290.483C372.627 288.919 372.912 287.54 373.482 286.347C374.059 285.147 374.861 284.212 375.888 283.543C376.923 282.866 378.129 282.528 379.508 282.528C380.303 282.528 381.089 282.661 381.864 282.926C382.64 283.191 383.346 283.622 383.982 284.219C384.619 284.809 385.126 285.591 385.504 286.565C385.881 287.54 386.07 288.74 386.07 290.165V291.159H374.298V289.131H383.684C383.684 288.269 383.512 287.5 383.167 286.824C382.829 286.148 382.345 285.614 381.715 285.223C381.092 284.832 380.356 284.636 379.508 284.636C378.573 284.636 377.764 284.868 377.082 285.332C376.406 285.79 375.885 286.386 375.521 287.122C375.156 287.858 374.974 288.647 374.974 289.489V290.841C374.974 291.994 375.173 292.972 375.57 293.774C375.975 294.57 376.535 295.176 377.251 295.594C377.967 296.005 378.799 296.21 379.746 296.21C380.363 296.21 380.92 296.124 381.417 295.952C381.921 295.773 382.355 295.508 382.719 295.156C383.084 294.798 383.366 294.354 383.565 293.824L385.832 294.46C385.593 295.229 385.192 295.905 384.629 296.489C384.065 297.065 383.369 297.516 382.54 297.841C381.712 298.159 380.781 298.318 379.746 298.318ZM397.515 298V282.727H403.759C405.403 282.727 406.709 283.098 407.677 283.841C408.645 284.583 409.129 285.564 409.129 286.784C409.129 287.712 408.853 288.431 408.303 288.942C407.753 289.446 407.047 289.787 406.185 289.966C406.749 290.045 407.296 290.244 407.826 290.562C408.363 290.881 408.807 291.318 409.158 291.875C409.51 292.425 409.685 293.101 409.685 293.903C409.685 294.686 409.487 295.385 409.089 296.001C408.691 296.618 408.121 297.105 407.379 297.463C406.636 297.821 405.748 298 404.714 298H397.515ZM399.742 295.852H404.714C405.522 295.852 406.156 295.66 406.613 295.276C407.07 294.891 407.299 294.367 407.299 293.705C407.299 292.916 407.07 292.296 406.613 291.845C406.156 291.388 405.522 291.159 404.714 291.159H399.742V295.852ZM399.742 289.131H403.759C404.389 289.131 404.929 289.045 405.38 288.872C405.831 288.693 406.175 288.441 406.414 288.116C406.659 287.785 406.782 287.394 406.782 286.943C406.782 286.3 406.513 285.796 405.977 285.432C405.44 285.061 404.701 284.875 403.759 284.875H399.742V289.131ZM413.238 303.727V282.727H415.505V285.153H415.783C415.955 284.888 416.194 284.55 416.499 284.139C416.81 283.722 417.255 283.35 417.831 283.026C418.415 282.694 419.203 282.528 420.198 282.528C421.484 282.528 422.617 282.85 423.598 283.493C424.579 284.136 425.345 285.047 425.895 286.227C426.445 287.407 426.721 288.799 426.721 290.403C426.721 292.021 426.445 293.423 425.895 294.609C425.345 295.789 424.583 296.704 423.608 297.354C422.634 297.997 421.51 298.318 420.238 298.318C419.257 298.318 418.471 298.156 417.881 297.831C417.291 297.5 416.837 297.125 416.519 296.707C416.201 296.283 415.955 295.932 415.783 295.653H415.584V303.727H413.238ZM415.544 290.364C415.544 291.517 415.713 292.535 416.051 293.416C416.39 294.291 416.883 294.977 417.533 295.474C418.183 295.965 418.978 296.21 419.919 296.21C420.9 296.21 421.719 295.952 422.375 295.435C423.038 294.911 423.535 294.208 423.867 293.327C424.205 292.438 424.374 291.451 424.374 290.364C424.374 289.29 424.208 288.322 423.877 287.46C423.552 286.592 423.058 285.906 422.395 285.402C421.739 284.892 420.914 284.636 419.919 284.636C418.965 284.636 418.163 284.878 417.513 285.362C416.864 285.839 416.373 286.509 416.042 287.371C415.71 288.226 415.544 289.223 415.544 290.364ZM436.703 298.318C435.232 298.318 433.962 297.993 432.895 297.344C431.835 296.688 431.016 295.773 430.439 294.599C429.869 293.42 429.584 292.047 429.584 290.483C429.584 288.919 429.869 287.54 430.439 286.347C431.016 285.147 431.818 284.212 432.846 283.543C433.88 282.866 435.086 282.528 436.465 282.528C437.26 282.528 438.046 282.661 438.821 282.926C439.597 283.191 440.303 283.622 440.939 284.219C441.576 284.809 442.083 285.591 442.461 286.565C442.838 287.54 443.027 288.74 443.027 290.165V291.159H431.255V289.131H440.641C440.641 288.269 440.469 287.5 440.124 286.824C439.786 286.148 439.302 285.614 438.672 285.223C438.049 284.832 437.313 284.636 436.465 284.636C435.53 284.636 434.721 284.868 434.039 285.332C433.363 285.79 432.842 286.386 432.478 287.122C432.113 287.858 431.931 288.647 431.931 289.489V290.841C431.931 291.994 432.13 292.972 432.527 293.774C432.932 294.57 433.492 295.176 434.208 295.594C434.924 296.005 435.756 296.21 436.703 296.21C437.32 296.21 437.877 296.124 438.374 295.952C438.878 295.773 439.312 295.508 439.676 295.156C440.041 294.798 440.323 294.354 440.522 293.824L442.789 294.46C442.55 295.229 442.149 295.905 441.586 296.489C441.022 297.065 440.326 297.516 439.498 297.841C438.669 298.159 437.738 298.318 436.703 298.318ZM454.949 294.818L460.279 282.727H462.506L455.904 298H453.995L447.512 282.727H449.699L454.949 294.818ZM448.944 282.727V298H446.597V282.727H448.944ZM460.955 298V282.727H463.301V298H460.955ZM476.784 298V284.875H472.728C471.813 284.875 471.094 285.087 470.57 285.511C470.046 285.936 469.784 286.519 469.784 287.261C469.784 287.991 470.02 288.564 470.49 288.982C470.968 289.399 471.621 289.608 472.449 289.608H477.381V291.795H472.449C471.415 291.795 470.524 291.613 469.775 291.249C469.025 290.884 468.449 290.364 468.044 289.688C467.64 289.005 467.438 288.196 467.438 287.261C467.438 286.32 467.65 285.511 468.074 284.835C468.498 284.159 469.105 283.639 469.894 283.274C470.689 282.91 471.634 282.727 472.728 282.727H479.012V298H476.784ZM466.603 298L470.938 290.403H473.483L469.148 298H466.603Z" fill="white"/>
<path d="M61.0341 130V95.0909H68.4148V109.494H83.3977V95.0909H90.7614V130H83.3977V115.58H68.4148V130H61.0341ZM108.642 130.511C105.949 130.511 103.631 129.966 101.688 128.875C99.7557 127.773 98.267 126.216 97.2216 124.205C96.1761 122.182 95.6534 119.79 95.6534 117.028C95.6534 114.335 96.1761 111.972 97.2216 109.938C98.267 107.903 99.7386 106.318 101.636 105.182C103.545 104.045 105.784 103.477 108.352 103.477C110.08 103.477 111.688 103.756 113.176 104.312C114.676 104.858 115.983 105.682 117.097 106.784C118.222 107.886 119.097 109.273 119.722 110.943C120.347 112.602 120.659 114.545 120.659 116.773V118.767H98.5511V114.267H113.824C113.824 113.222 113.597 112.295 113.142 111.489C112.688 110.682 112.057 110.051 111.25 109.597C110.455 109.131 109.528 108.898 108.472 108.898C107.369 108.898 106.392 109.153 105.54 109.665C104.699 110.165 104.04 110.841 103.562 111.693C103.085 112.534 102.841 113.472 102.83 114.506V118.784C102.83 120.08 103.068 121.199 103.545 122.142C104.034 123.085 104.722 123.812 105.608 124.324C106.494 124.835 107.545 125.091 108.761 125.091C109.568 125.091 110.307 124.977 110.977 124.75C111.648 124.523 112.222 124.182 112.699 123.727C113.176 123.273 113.54 122.716 113.79 122.057L120.506 122.5C120.165 124.114 119.466 125.523 118.409 126.727C117.364 127.92 116.011 128.852 114.352 129.523C112.705 130.182 110.801 130.511 108.642 130.511ZM154.729 114.011V119.722H141.058V114.011H154.729ZM143.445 103.818V130H136.507V103.818H143.445ZM159.28 103.818V130H152.393V103.818H159.28ZM172.379 130.494C170.709 130.494 169.22 130.205 167.913 129.625C166.607 129.034 165.572 128.165 164.811 127.017C164.061 125.858 163.686 124.415 163.686 122.688C163.686 121.233 163.953 120.011 164.487 119.023C165.021 118.034 165.749 117.239 166.669 116.636C167.589 116.034 168.635 115.58 169.805 115.273C170.987 114.966 172.226 114.75 173.521 114.625C175.044 114.466 176.271 114.318 177.203 114.182C178.135 114.034 178.811 113.818 179.232 113.534C179.652 113.25 179.862 112.83 179.862 112.273V112.17C179.862 111.091 179.521 110.256 178.839 109.665C178.169 109.074 177.214 108.778 175.976 108.778C174.669 108.778 173.629 109.068 172.857 109.648C172.084 110.216 171.572 110.932 171.322 111.795L164.607 111.25C164.947 109.659 165.618 108.284 166.618 107.125C167.618 105.955 168.908 105.057 170.487 104.432C172.078 103.795 173.919 103.477 176.01 103.477C177.464 103.477 178.857 103.648 180.186 103.989C181.527 104.33 182.714 104.858 183.749 105.574C184.794 106.29 185.618 107.21 186.22 108.335C186.822 109.449 187.124 110.784 187.124 112.341V130H180.237V126.369H180.033C179.612 127.188 179.05 127.909 178.345 128.534C177.641 129.148 176.794 129.631 175.805 129.983C174.817 130.324 173.675 130.494 172.379 130.494ZM174.459 125.483C175.527 125.483 176.47 125.273 177.288 124.852C178.107 124.42 178.749 123.841 179.214 123.114C179.68 122.386 179.913 121.562 179.913 120.642V117.864C179.686 118.011 179.374 118.148 178.976 118.273C178.589 118.386 178.152 118.494 177.663 118.597C177.175 118.687 176.686 118.773 176.197 118.852C175.709 118.92 175.266 118.983 174.868 119.04C174.016 119.165 173.271 119.364 172.635 119.636C171.999 119.909 171.504 120.278 171.152 120.744C170.8 121.199 170.624 121.767 170.624 122.449C170.624 123.438 170.982 124.193 171.697 124.716C172.425 125.227 173.345 125.483 174.459 125.483ZM192.757 103.818H199.695V124.239H207.075V103.818H214.013V124.239H221.393V103.818H228.331V130H192.757V103.818ZM232.426 130L232.392 124.239H233.261C233.875 124.239 234.403 124.091 234.847 123.795C235.301 123.489 235.676 122.994 235.972 122.312C236.267 121.631 236.5 120.727 236.67 119.602C236.841 118.466 236.955 117.068 237.011 115.409L237.438 103.818H257.347V130H250.426V109.528H243.966L243.557 117.523C243.455 119.716 243.188 121.602 242.756 123.182C242.335 124.761 241.75 126.057 241 127.068C240.25 128.068 239.347 128.807 238.29 129.284C237.233 129.761 236.006 130 234.608 130H232.426ZM269.913 120.42L279.339 103.818H286.499V130H279.578V113.347L270.186 130H262.976V103.818H269.913V120.42ZM315.259 130.511C312.611 130.511 310.321 129.949 308.389 128.824C306.469 127.687 304.986 126.108 303.94 124.085C302.895 122.051 302.372 119.693 302.372 117.011C302.372 114.307 302.895 111.943 303.94 109.92C304.986 107.886 306.469 106.307 308.389 105.182C310.321 104.045 312.611 103.477 315.259 103.477C317.906 103.477 320.19 104.045 322.111 105.182C324.043 106.307 325.531 107.886 326.577 109.92C327.622 111.943 328.145 114.307 328.145 117.011C328.145 119.693 327.622 122.051 326.577 124.085C325.531 126.108 324.043 127.687 322.111 128.824C320.19 129.949 317.906 130.511 315.259 130.511ZM315.293 124.886C316.497 124.886 317.503 124.545 318.31 123.864C319.116 123.17 319.724 122.227 320.134 121.034C320.554 119.841 320.764 118.483 320.764 116.96C320.764 115.438 320.554 114.08 320.134 112.886C319.724 111.693 319.116 110.75 318.31 110.057C317.503 109.364 316.497 109.017 315.293 109.017C314.077 109.017 313.054 109.364 312.224 110.057C311.406 110.75 310.787 111.693 310.366 112.886C309.957 114.08 309.753 115.438 309.753 116.96C309.753 118.483 309.957 119.841 310.366 121.034C310.787 122.227 311.406 123.17 312.224 123.864C313.054 124.545 314.077 124.886 315.293 124.886ZM330.331 109.528V103.818H354.058V109.528H345.621V130H338.7V109.528H330.331ZM358.46 130V103.818H369.625C372.852 103.818 375.403 104.432 377.278 105.659C379.153 106.886 380.091 108.631 380.091 110.892C380.091 112.312 379.563 113.494 378.506 114.438C377.449 115.381 375.983 116.017 374.108 116.347C375.676 116.46 377.011 116.818 378.114 117.42C379.227 118.011 380.074 118.778 380.653 119.722C381.244 120.665 381.54 121.71 381.54 122.858C381.54 124.347 381.142 125.625 380.347 126.693C379.563 127.761 378.409 128.58 376.886 129.148C375.375 129.716 373.528 130 371.347 130H358.46ZM365.227 124.562H371.347C372.358 124.562 373.148 124.324 373.716 123.847C374.295 123.358 374.585 122.693 374.585 121.852C374.585 120.92 374.295 120.187 373.716 119.653C373.148 119.119 372.358 118.852 371.347 118.852H365.227V124.562ZM365.227 114.591H369.778C370.506 114.591 371.125 114.489 371.636 114.284C372.159 114.068 372.557 113.761 372.83 113.364C373.114 112.966 373.256 112.494 373.256 111.949C373.256 111.142 372.932 110.511 372.284 110.057C371.636 109.602 370.75 109.375 369.625 109.375H365.227V114.591ZM398.048 130.511C395.355 130.511 393.037 129.966 391.094 128.875C389.162 127.773 387.673 126.216 386.628 124.205C385.582 122.182 385.06 119.79 385.06 117.028C385.06 114.335 385.582 111.972 386.628 109.938C387.673 107.903 389.145 106.318 391.043 105.182C392.952 104.045 395.19 103.477 397.759 103.477C399.486 103.477 401.094 103.756 402.582 104.312C404.082 104.858 405.389 105.682 406.503 106.784C407.628 107.886 408.503 109.273 409.128 110.943C409.753 112.602 410.065 114.545 410.065 116.773V118.767H387.957V114.267H403.23C403.23 113.222 403.003 112.295 402.548 111.489C402.094 110.682 401.463 110.051 400.656 109.597C399.861 109.131 398.935 108.898 397.878 108.898C396.776 108.898 395.798 109.153 394.946 109.665C394.105 110.165 393.446 110.841 392.969 111.693C392.491 112.534 392.247 113.472 392.236 114.506V118.784C392.236 120.08 392.474 121.199 392.952 122.142C393.44 123.085 394.128 123.812 395.014 124.324C395.901 124.835 396.952 125.091 398.168 125.091C398.974 125.091 399.713 124.977 400.384 124.75C401.054 124.523 401.628 124.182 402.105 123.727C402.582 123.273 402.946 122.716 403.196 122.057L409.912 122.5C409.571 124.114 408.872 125.523 407.815 126.727C406.77 127.92 405.418 128.852 403.759 129.523C402.111 130.182 400.207 130.511 398.048 130.511ZM412.784 109.528V103.818H436.511V109.528H428.074V130H421.153V109.528H412.784ZM79.1193 178.011V183.722H65.4489V178.011H79.1193ZM67.8352 167.818V194H60.8977V167.818H67.8352ZM83.6705 167.818V194H76.7841V167.818H83.6705ZM96.7699 194.494C95.0994 194.494 93.6108 194.205 92.304 193.625C90.9972 193.034 89.9631 192.165 89.2017 191.017C88.4517 189.858 88.0767 188.415 88.0767 186.688C88.0767 185.233 88.3438 184.011 88.8778 183.023C89.4119 182.034 90.1392 181.239 91.0597 180.636C91.9801 180.034 93.0256 179.58 94.196 179.273C95.3778 178.966 96.6165 178.75 97.9119 178.625C99.4347 178.466 100.662 178.318 101.594 178.182C102.526 178.034 103.202 177.818 103.622 177.534C104.043 177.25 104.253 176.83 104.253 176.273V176.17C104.253 175.091 103.912 174.256 103.23 173.665C102.56 173.074 101.605 172.778 100.366 172.778C99.0597 172.778 98.0199 173.068 97.2472 173.648C96.4744 174.216 95.9631 174.932 95.7131 175.795L88.9972 175.25C89.3381 173.659 90.0085 172.284 91.0085 171.125C92.0085 169.955 93.2983 169.057 94.8778 168.432C96.4688 167.795 98.3097 167.477 100.401 167.477C101.855 167.477 103.247 167.648 104.577 167.989C105.918 168.33 107.105 168.858 108.139 169.574C109.185 170.29 110.009 171.21 110.611 172.335C111.213 173.449 111.514 174.784 111.514 176.341V194H104.628V190.369H104.423C104.003 191.188 103.44 191.909 102.736 192.534C102.031 193.148 101.185 193.631 100.196 193.983C99.2074 194.324 98.0653 194.494 96.7699 194.494ZM98.8494 189.483C99.9176 189.483 100.861 189.273 101.679 188.852C102.497 188.42 103.139 187.841 103.605 187.114C104.071 186.386 104.304 185.562 104.304 184.642V181.864C104.077 182.011 103.764 182.148 103.366 182.273C102.98 182.386 102.543 182.494 102.054 182.597C101.565 182.687 101.077 182.773 100.588 182.852C100.099 182.92 99.6562 182.983 99.2585 183.04C98.4063 183.165 97.6619 183.364 97.0256 183.636C96.3892 183.909 95.8949 184.278 95.5426 184.744C95.1903 185.199 95.0142 185.767 95.0142 186.449C95.0142 187.438 95.3722 188.193 96.0881 188.716C96.8153 189.227 97.7358 189.483 98.8494 189.483ZM140.087 194.511C137.405 194.511 135.098 193.943 133.166 192.807C131.246 191.659 129.768 190.068 128.734 188.034C127.712 186 127.2 183.659 127.2 181.011C127.2 178.33 127.717 175.977 128.751 173.955C129.797 171.92 131.28 170.335 133.2 169.199C135.121 168.051 137.405 167.477 140.053 167.477C142.337 167.477 144.337 167.892 146.053 168.722C147.768 169.551 149.126 170.716 150.126 172.216C151.126 173.716 151.678 175.477 151.78 177.5H144.928C144.734 176.193 144.223 175.142 143.393 174.347C142.575 173.54 141.501 173.136 140.172 173.136C139.047 173.136 138.064 173.443 137.223 174.057C136.393 174.659 135.746 175.54 135.28 176.699C134.814 177.858 134.581 179.261 134.581 180.909C134.581 182.58 134.808 184 135.263 185.17C135.729 186.341 136.382 187.233 137.223 187.847C138.064 188.46 139.047 188.767 140.172 188.767C141.001 188.767 141.746 188.597 142.405 188.256C143.075 187.915 143.626 187.42 144.058 186.773C144.501 186.114 144.791 185.324 144.928 184.403H151.78C151.666 186.403 151.121 188.165 150.143 189.688C149.178 191.199 147.842 192.381 146.138 193.233C144.433 194.085 142.416 194.511 140.087 194.511ZM156.429 194V167.818H167.594C170.821 167.818 173.372 168.432 175.247 169.659C177.122 170.886 178.06 172.631 178.06 174.892C178.06 176.312 177.531 177.494 176.474 178.438C175.418 179.381 173.952 180.017 172.077 180.347C173.645 180.46 174.98 180.818 176.082 181.42C177.196 182.011 178.043 182.778 178.622 183.722C179.213 184.665 179.509 185.71 179.509 186.858C179.509 188.347 179.111 189.625 178.315 190.693C177.531 191.761 176.378 192.58 174.855 193.148C173.344 193.716 171.497 194 169.315 194H156.429ZM163.196 188.562H169.315C170.327 188.562 171.116 188.324 171.685 187.847C172.264 187.358 172.554 186.693 172.554 185.852C172.554 184.92 172.264 184.187 171.685 183.653C171.116 183.119 170.327 182.852 169.315 182.852H163.196V188.562ZM163.196 178.591H167.747C168.474 178.591 169.094 178.489 169.605 178.284C170.128 178.068 170.526 177.761 170.798 177.364C171.082 176.966 171.224 176.494 171.224 175.949C171.224 175.142 170.901 174.511 170.253 174.057C169.605 173.602 168.719 173.375 167.594 173.375H163.196V178.591ZM195.915 194.511C193.267 194.511 190.977 193.949 189.045 192.824C187.125 191.687 185.642 190.108 184.597 188.085C183.551 186.051 183.028 183.693 183.028 181.011C183.028 178.307 183.551 175.943 184.597 173.92C185.642 171.886 187.125 170.307 189.045 169.182C190.977 168.045 193.267 167.477 195.915 167.477C198.562 167.477 200.847 168.045 202.767 169.182C204.699 170.307 206.188 171.886 207.233 173.92C208.278 175.943 208.801 178.307 208.801 181.011C208.801 183.693 208.278 186.051 207.233 188.085C206.188 190.108 204.699 191.687 202.767 192.824C200.847 193.949 198.562 194.511 195.915 194.511ZM195.949 188.886C197.153 188.886 198.159 188.545 198.966 187.864C199.773 187.17 200.381 186.227 200.79 185.034C201.21 183.841 201.42 182.483 201.42 180.96C201.42 179.438 201.21 178.08 200.79 176.886C200.381 175.693 199.773 174.75 198.966 174.057C198.159 173.364 197.153 173.017 195.949 173.017C194.733 173.017 193.71 173.364 192.881 174.057C192.063 174.75 191.443 175.693 191.023 176.886C190.614 178.08 190.409 179.438 190.409 180.96C190.409 182.483 190.614 183.841 191.023 185.034C191.443 186.227 192.063 187.17 192.881 187.864C193.71 188.545 194.733 188.886 195.949 188.886ZM220.46 184.42L229.886 167.818H237.045V194H230.125V177.347L220.733 194H213.523V167.818H220.46V184.42ZM228.642 158.682H233.705C233.693 160.75 232.926 162.415 231.403 163.676C229.892 164.937 227.847 165.568 225.267 165.568C222.676 165.568 220.625 164.937 219.114 163.676C217.602 162.415 216.847 160.75 216.847 158.682H221.875C221.864 159.466 222.114 160.17 222.625 160.795C223.148 161.42 224.028 161.733 225.267 161.733C226.472 161.733 227.335 161.426 227.858 160.812C228.381 160.199 228.642 159.489 228.642 158.682ZM253.976 194V167.818H265.141C268.368 167.818 270.919 168.432 272.794 169.659C274.669 170.886 275.607 172.631 275.607 174.892C275.607 176.312 275.078 177.494 274.021 178.438C272.964 179.381 271.499 180.017 269.624 180.347C271.192 180.46 272.527 180.818 273.629 181.42C274.743 182.011 275.589 182.778 276.169 183.722C276.76 184.665 277.055 185.71 277.055 186.858C277.055 188.347 276.658 189.625 275.862 190.693C275.078 191.761 273.925 192.58 272.402 193.148C270.891 193.716 269.044 194 266.862 194H253.976ZM260.743 188.562H266.862C267.874 188.562 268.663 188.324 269.232 187.847C269.811 187.358 270.101 186.693 270.101 185.852C270.101 184.92 269.811 184.187 269.232 183.653C268.663 183.119 267.874 182.852 266.862 182.852H260.743V188.562ZM260.743 178.591H265.294C266.021 178.591 266.641 178.489 267.152 178.284C267.675 178.068 268.072 177.761 268.345 177.364C268.629 176.966 268.771 176.494 268.771 175.949C268.771 175.142 268.447 174.511 267.8 174.057C267.152 173.602 266.266 173.375 265.141 173.375H260.743V178.591ZM293.462 194.511C290.814 194.511 288.524 193.949 286.592 192.824C284.672 191.687 283.189 190.108 282.143 188.085C281.098 186.051 280.575 183.693 280.575 181.011C280.575 178.307 281.098 175.943 282.143 173.92C283.189 171.886 284.672 170.307 286.592 169.182C288.524 168.045 290.814 167.477 293.462 167.477C296.109 167.477 298.393 168.045 300.314 169.182C302.246 170.307 303.734 171.886 304.78 173.92C305.825 175.943 306.348 178.307 306.348 181.011C306.348 183.693 305.825 186.051 304.78 188.085C303.734 190.108 302.246 191.687 300.314 192.824C298.393 193.949 296.109 194.511 293.462 194.511ZM293.496 188.886C294.7 188.886 295.706 188.545 296.513 187.864C297.32 187.17 297.928 186.227 298.337 185.034C298.757 183.841 298.967 182.483 298.967 180.96C298.967 179.438 298.757 178.08 298.337 176.886C297.928 175.693 297.32 174.75 296.513 174.057C295.706 173.364 294.7 173.017 293.496 173.017C292.28 173.017 291.257 173.364 290.428 174.057C289.609 174.75 288.99 175.693 288.57 176.886C288.161 178.08 287.956 179.438 287.956 180.96C287.956 182.483 288.161 183.841 288.57 185.034C288.99 186.227 289.609 187.17 290.428 187.864C291.257 188.545 292.28 188.886 293.496 188.886ZM311.07 194V167.818H333.962V194H327.024V173.528H317.922V194H311.07ZM339.757 203.818V167.818H346.916V172.216H347.24C347.558 171.511 348.018 170.795 348.621 170.068C349.234 169.33 350.03 168.716 351.007 168.227C351.996 167.727 353.223 167.477 354.689 167.477C356.598 167.477 358.359 167.977 359.973 168.977C361.587 169.966 362.876 171.46 363.842 173.46C364.808 175.449 365.291 177.943 365.291 180.943C365.291 183.864 364.82 186.33 363.876 188.341C362.945 190.341 361.672 191.858 360.058 192.892C358.456 193.915 356.661 194.426 354.672 194.426C353.263 194.426 352.064 194.193 351.075 193.727C350.098 193.261 349.297 192.676 348.672 191.972C348.047 191.256 347.57 190.534 347.24 189.807H347.018V203.818H339.757ZM346.865 180.909C346.865 182.466 347.081 183.824 347.513 184.983C347.945 186.142 348.57 187.045 349.388 187.693C350.206 188.33 351.2 188.648 352.371 188.648C353.553 188.648 354.553 188.324 355.371 187.676C356.189 187.017 356.808 186.108 357.229 184.949C357.661 183.778 357.876 182.432 357.876 180.909C357.876 179.398 357.666 178.068 357.246 176.92C356.825 175.773 356.206 174.875 355.388 174.227C354.57 173.58 353.564 173.256 352.371 173.256C351.189 173.256 350.189 173.568 349.371 174.193C348.564 174.818 347.945 175.705 347.513 176.852C347.081 178 346.865 179.352 346.865 180.909ZM381.962 194.511C379.314 194.511 377.024 193.949 375.092 192.824C373.172 191.687 371.689 190.108 370.643 188.085C369.598 186.051 369.075 183.693 369.075 181.011C369.075 178.307 369.598 175.943 370.643 173.92C371.689 171.886 373.172 170.307 375.092 169.182C377.024 168.045 379.314 167.477 381.962 167.477C384.609 167.477 386.893 168.045 388.814 169.182C390.746 170.307 392.234 171.886 393.28 173.92C394.325 175.943 394.848 178.307 394.848 181.011C394.848 183.693 394.325 186.051 393.28 188.085C392.234 190.108 390.746 191.687 388.814 192.824C386.893 193.949 384.609 194.511 381.962 194.511ZM381.996 188.886C383.2 188.886 384.206 188.545 385.013 187.864C385.82 187.17 386.428 186.227 386.837 185.034C387.257 183.841 387.467 182.483 387.467 180.96C387.467 179.438 387.257 178.08 386.837 176.886C386.428 175.693 385.82 174.75 385.013 174.057C384.206 173.364 383.2 173.017 381.996 173.017C380.78 173.017 379.757 173.364 378.928 174.057C378.109 174.75 377.49 175.693 377.07 176.886C376.661 178.08 376.456 179.438 376.456 180.96C376.456 182.483 376.661 183.841 377.07 185.034C377.49 186.227 378.109 187.17 378.928 187.864C379.757 188.545 380.78 188.886 381.996 188.886ZM411.399 194.511C408.717 194.511 406.411 193.943 404.479 192.807C402.558 191.659 401.081 190.068 400.047 188.034C399.024 186 398.513 183.659 398.513 181.011C398.513 178.33 399.03 175.977 400.064 173.955C401.109 171.92 402.592 170.335 404.513 169.199C406.433 168.051 408.717 167.477 411.365 167.477C413.649 167.477 415.649 167.892 417.365 168.722C419.081 169.551 420.439 170.716 421.439 172.216C422.439 173.716 422.99 175.477 423.092 177.5H416.24C416.047 176.193 415.536 175.142 414.706 174.347C413.888 173.54 412.814 173.136 411.484 173.136C410.359 173.136 409.376 173.443 408.536 174.057C407.706 174.659 407.058 175.54 406.592 176.699C406.126 177.858 405.893 179.261 405.893 180.909C405.893 182.58 406.121 184 406.575 185.17C407.041 186.341 407.695 187.233 408.536 187.847C409.376 188.46 410.359 188.767 411.484 188.767C412.314 188.767 413.058 188.597 413.717 188.256C414.388 187.915 414.939 187.42 415.371 186.773C415.814 186.114 416.104 185.324 416.24 184.403H423.092C422.979 186.403 422.433 188.165 421.456 189.688C420.49 191.199 419.155 192.381 417.45 193.233C415.746 194.085 413.729 194.511 411.399 194.511ZM433.98 183.534V182.955C433.991 180.966 434.168 179.381 434.509 178.199C434.861 177.017 435.372 176.062 436.043 175.335C436.713 174.608 437.52 173.949 438.463 173.358C439.168 172.903 439.798 172.432 440.355 171.943C440.912 171.455 441.355 170.915 441.685 170.324C442.014 169.722 442.179 169.051 442.179 168.312C442.179 167.528 441.991 166.841 441.616 166.25C441.241 165.659 440.736 165.205 440.099 164.886C439.474 164.568 438.781 164.409 438.02 164.409C437.281 164.409 436.582 164.574 435.923 164.903C435.264 165.222 434.724 165.699 434.304 166.335C433.884 166.96 433.656 167.739 433.622 168.67H426.668C426.724 166.398 427.27 164.523 428.304 163.045C429.338 161.557 430.707 160.449 432.412 159.722C434.116 158.983 435.997 158.614 438.054 158.614C440.315 158.614 442.315 158.989 444.054 159.739C445.793 160.477 447.156 161.551 448.145 162.96C449.134 164.369 449.628 166.068 449.628 168.057C449.628 169.386 449.406 170.568 448.963 171.602C448.531 172.625 447.923 173.534 447.139 174.33C446.355 175.114 445.429 175.824 444.361 176.46C443.463 176.994 442.724 177.551 442.145 178.131C441.577 178.71 441.151 179.381 440.866 180.142C440.594 180.903 440.452 181.841 440.44 182.955V183.534H433.98ZM437.355 194.443C436.219 194.443 435.247 194.045 434.44 193.25C433.645 192.443 433.253 191.477 433.264 190.352C433.253 189.239 433.645 188.284 434.44 187.489C435.247 186.693 436.219 186.295 437.355 186.295C438.435 186.295 439.384 186.693 440.202 187.489C441.02 188.284 441.435 189.239 441.446 190.352C441.435 191.102 441.236 191.79 440.849 192.415C440.474 193.028 439.98 193.523 439.366 193.898C438.753 194.261 438.082 194.443 437.355 194.443Z" fill="white"/>
</g>
<defs>
<clipPath id="clip0_23_855">
<rect width="758" height="748" rx="24" fill="white"/>
</clipPath>
<clipPath id="clip1_23_855">
<rect width="1137.45" height="782" fill="white" transform="matrix(2 0 0 2 -292 -384)"/>
</clipPath>
</defs>
</svg>
