<svg width="917" height="666" viewBox="0 0 917 666" fill="none" xmlns="http://www.w3.org/2000/svg">
<path d="M561.79 374.324C569.65 370.522 580.718 359.138 584.46 351.195L594.235 364.603L641.531 365.195C645.488 365.257 662.76 365.891 664.904 365.244C665.817 365.469 665.392 365.529 666.215 365.294C667.133 365.677 686.423 366.645 690.134 367.276C690.805 367.689 691.262 368.068 692.005 368.249C706.556 370.744 722.843 380.926 735.769 387.751C742.375 391.237 751.537 395.835 757.338 400.228C763.81 405.197 769.526 411.081 774.306 417.694C785.151 432.928 792.813 459.334 801.859 476.669L801.465 477.644C797.732 478.361 769.302 485.455 768.201 486.829L768.044 486.448L766.979 486.05C766.281 484.058 764.687 480.375 763.233 478.898L762.776 479.878C762.006 491.255 758.215 500.641 749.443 508.219C737.448 518.585 724.821 517.971 710.199 517.886C698.307 527.917 683.608 541.939 671.837 551.088C695.496 551.249 719.15 551.285 742.81 551.195C796.193 551.182 788.024 548.707 825.549 586.304L856.858 617.746C857.305 618.207 857.744 618.673 858.174 619.152L486.95 619.102H373.155L338.262 619.098C332.643 619.093 323.57 619.353 318.126 618.793L317.834 618.426L317.133 618.498L317.105 618.368C322.72 617.37 332.008 617.737 338.066 617.742L372.279 617.746L510.726 617.769L553.147 617.777C557.037 617.782 569.283 618.046 572.581 617.648C572.613 616.932 572.76 613.454 572.993 613.15C576.771 608.119 583.73 599.977 587.862 595.618C579.313 582.911 571.324 567.671 563.016 554.601C561.432 552.108 552.494 537.468 551.961 535.785L550.838 534.402C541.716 519.31 533.481 508.228 536.743 489.143C539.527 472.873 548.099 464.007 560.805 454.974C560.707 451 560.658 446.963 560.707 442.99C560.98 420.162 560.197 397.082 560.823 374.282L561.723 374.584L561.79 374.324Z" fill="#F9FCFF"/>
<path d="M561.789 374.324C569.649 370.522 580.717 359.138 584.459 351.195L594.234 364.603L641.53 365.195C645.487 365.257 662.759 365.891 664.903 365.244C665.816 365.469 665.391 365.529 666.214 365.294C667.132 365.677 686.423 366.645 690.133 367.276C690.804 367.689 691.261 368.068 692.004 368.249C706.555 370.744 722.842 380.926 735.768 387.751C742.375 391.237 751.537 395.835 757.337 400.228C763.809 405.197 769.525 411.081 774.305 417.694C785.15 432.928 792.813 459.334 801.858 476.669L801.464 477.644C797.731 478.361 769.301 485.455 768.2 486.829L768.043 486.448L766.978 486.05C766.28 484.058 764.687 480.375 763.232 478.898L762.775 479.878C762.668 477.756 762.583 476.731 761.643 474.847L761.213 474.968C759.463 469.848 752.378 456.125 749.675 450.606C740.468 450.167 729.305 450.449 719.982 450.449L664.737 450.409C659.362 440.405 651.655 422.572 647.362 412.047L647 411.674C645.854 411.208 639.283 411.058 637.39 410.756C617.576 407.706 599.001 410.234 581.774 397.917C573.059 391.686 568.888 381.475 561.843 375.959L561.722 374.584L561.789 374.324Z" fill="#0065F4"/>
<path d="M647 411.674C652.707 408.41 662.048 417.091 665.082 421.552C658.61 416.886 655.589 412.621 647.363 412.047L647 411.674Z" fill="#434447"/>
<path d="M722.377 396.937C725.175 398.611 750.87 444.564 750.987 447.625C750.119 447.111 722.928 399.648 722.377 396.937Z" fill="#434447"/>
<path d="M594.14 365.048C596.611 365.814 599.981 371.387 600.711 373.769C598.442 372.666 595.174 367.366 594.14 365.048Z" fill="#434447"/>
<path d="M562.126 454.581C578.959 447.393 593.976 450.257 611.865 449.774C615.088 449.684 624.715 449.438 627.401 449.778C633.027 450.494 655.952 448.673 659.944 450.186L659.801 450.718C657.541 451.313 645.143 451.063 641.768 451.067L606.042 451.085C580.987 451.099 558.89 448.136 543.887 473.616C537.589 484.103 535.79 496.694 538.91 508.528C541.685 519.014 560.022 546.67 566.619 557.972C572.854 568.656 582.692 585.324 589.473 595.801C586.264 599.145 575.124 611.462 573.96 615.231C574.322 616.587 574.201 616.162 575.298 617.281C578.431 618.203 589.768 617.804 593.515 617.796C622.764 617.737 652 617.836 681.249 617.742C686.831 617.724 692.381 617.433 693.352 610.607C693.567 608.938 693.415 607.434 692.587 605.935C687.283 597.287 680.708 588.497 674.876 580.176L645.367 537.947C640.649 531.193 634.849 523.334 630.4 516.521L694.605 516.481C702.966 516.495 724.584 517.094 731.844 515.514C738.929 514.028 745.423 510.506 750.535 505.386C758.811 497.141 762.096 486.453 761.214 474.968L761.644 474.847C762.584 476.732 762.669 477.757 762.776 479.878C762.006 491.256 758.215 500.641 749.443 508.219C737.448 518.585 724.821 517.972 710.199 517.887C698.307 527.917 683.608 541.94 671.837 551.088C695.496 551.249 719.15 551.285 742.81 551.196C796.193 551.182 788.024 548.707 825.549 586.304L856.858 617.746C857.305 618.207 857.744 618.673 858.174 619.152L486.95 619.102H373.155L338.262 619.098C332.643 619.093 323.57 619.353 318.126 618.794L317.834 618.427L317.133 618.498L317.105 618.368C322.72 617.37 332.008 617.737 338.066 617.742L372.279 617.746L510.726 617.769L553.147 617.778C557.037 617.782 569.283 618.046 572.581 617.648C572.613 616.932 572.76 613.454 572.993 613.15C576.771 608.119 583.73 599.977 587.862 595.618C579.313 582.911 571.324 567.671 563.016 554.602C561.432 552.109 552.494 537.468 551.961 535.785L550.838 534.402C541.716 519.31 533.481 508.228 536.743 489.143C539.527 472.873 548.099 464.007 560.805 454.975L562.126 454.581Z" fill="#434447"/>
<path d="M632.87 517.842L708.019 517.837C696.382 528.843 680.766 541.635 668.426 552.426C677.476 552.972 689.919 552.614 699.184 552.61L755.171 552.614C767.005 566.194 778.396 581.859 790.289 595.542C793.171 598.858 798.318 606.472 801.72 608.696C801.796 606.879 761.415 558.133 756.899 552.547C768.25 552.552 780.639 551.401 790.861 556.352C802.458 563.021 843.658 605.545 854.87 617.8L748.408 617.764L712.186 617.751C705.445 617.751 697.523 617.558 690.854 617.93C693.88 613.978 696.324 610.12 693.647 605.192C690.451 599.315 685.949 593.528 682.073 588.058L662.383 559.879C664.492 558.057 665.4 557.256 667.155 555.13L667.029 554.262L667.213 554.141L667.549 554.588L667.356 554.056L667.701 554.333L667.817 553.962L667.544 553.89C665.36 554.857 663.386 557.014 661.627 558.71C658.87 555.439 654.242 548.362 651.624 544.594C645.438 535.629 639.185 526.713 632.87 517.842Z" fill="#F9FCFF"/>
<path d="M560.823 374.282L561.723 374.584L561.844 375.96C562.426 395.066 561.871 414.574 562.032 433.71C562.059 436.824 561.674 453.054 562.126 454.581L560.805 454.975C560.707 451 560.658 446.963 560.707 442.99C560.98 420.162 560.197 397.082 560.823 374.282Z" fill="#434447"/>
<path d="M590.453 595.005C593.653 594.611 603.316 594.83 606.969 594.83L640.363 594.839C646.275 594.844 675.126 594.051 679.253 595.09L679.709 595.994C676.487 596.428 665.937 596.213 662.401 596.213L626.676 596.218L602.162 596.209C599.776 596.209 593.013 596.361 590.914 596.016L590.453 595.005Z" fill="#434447"/>
<path d="M606.529 517.17C610.647 516.356 621.398 516.938 626.097 516.75C627.574 516.687 628.009 516.781 628.805 517.658C628.537 517.725 627.592 517.954 627.257 517.967C620.825 518.249 614.071 518.531 607.653 518.079C607.196 517.712 606.82 517.408 606.529 517.17Z" fill="#434447"/>
<path d="M629.346 93.2059C632.274 83.2083 638.289 75.4558 647.487 70.4348C656.774 65.425 667.664 64.2967 677.779 67.2959C687.447 70.2455 695.544 76.9247 700.275 85.8566C701.313 87.8484 702.83 91.0289 703.247 93.2507C708.183 92.8689 714.812 93.0537 719.888 93.0555L747.709 93.0618L834.258 93.1101L834.218 260.002L579.875 260.033L579.934 93.0967C595.93 93.0766 613.48 92.7266 629.346 93.2059Z" fill="#F9FCFF"/>
<path d="M629.348 93.2059C632.275 83.2083 638.291 75.4558 647.488 70.4348C656.776 65.425 667.665 64.2967 677.781 67.2959C687.448 70.2455 695.545 76.9247 700.276 85.8566C701.314 87.8484 702.832 91.0289 703.248 93.2507L703.624 94.3826C704.358 97.9136 705.011 102.021 704.971 105.639C709.031 106.722 733.549 105.787 739.623 105.817C739.744 114.686 739.954 124.851 739.6 133.68L700.052 173.223C693.92 179.359 684.74 189.125 678.398 194.654C678.546 196.424 678.68 196.961 678.26 198.695L678.38 200.461C676.505 204.034 675.091 206.324 671.295 208.189C668.381 209.632 664.998 209.798 661.959 208.647C657.711 207.015 655.84 204.115 654.104 200.208L654.032 198.135C634.468 198.77 612.783 198.33 593.058 198.333C593.398 167.746 593.067 136.497 593.067 105.852L627.535 105.837C627.437 101.844 627.996 98.2716 628.896 94.4032L629.348 93.2059Z" fill="#B2C1C5" fill-opacity="0.2"/>
<path d="M629.347 93.2059C632.274 83.2083 638.29 75.4558 647.488 70.4348C656.775 65.425 667.665 64.2967 677.78 67.2959C687.448 70.2455 695.544 76.9247 700.275 85.8566C701.314 87.8484 702.831 91.0289 703.247 93.2507L703.623 94.3826C704.357 97.9136 705.011 102.021 704.97 105.639C704.738 127.059 689.712 151.837 677.122 168.186C674.468 171.636 669.392 178.051 666.085 180.707C647.667 161.885 629.258 132.81 627.535 105.837C627.436 101.844 627.996 98.2716 628.895 94.4032L629.347 93.2059Z" fill="#0065F4"/>
<path d="M665.171 87.1449C674.942 86.5518 683.383 93.8922 684.153 103.647C684.923 113.402 677.739 121.977 668 122.926C661.541 123.556 655.244 120.649 651.533 115.323C647.823 109.997 647.277 103.083 650.106 97.241C652.93 91.3987 658.695 87.5383 665.171 87.1449Z" fill="#F9FCFF"/>
<path d="M654.031 198.135C653.342 192.394 656.82 187.126 662.361 185.396C665.673 184.349 669.272 184.696 672.324 186.356C676.003 188.365 677.315 190.861 678.398 194.654C678.545 196.424 678.68 196.962 678.259 198.695L678.38 200.462C676.504 204.034 675.09 206.325 671.295 208.19C668.381 209.632 664.997 209.798 661.958 208.647C657.711 207.015 655.84 204.115 654.103 200.208L654.031 198.135Z" fill="#0065F4"/>
<path d="M678.259 198.695C680.653 198.18 705.06 198.486 708.623 198.491L744.116 198.498C751.04 198.501 759.298 198.275 766.038 198.884L791.179 224.168C794.254 227.304 801.661 235.357 804.638 237.575L804.835 236.97C806.943 237.939 812.108 243.756 813.401 245.831C815.442 246.753 817.125 246.768 819.35 246.972C817.38 246.562 805.739 246.985 802.838 246.985L766.387 246.987L654.532 246.996C635 247.019 611.994 247.709 592.901 246.863C593.599 233.226 593.084 214.507 593.039 200.598C599.628 200.599 652.174 201.017 654.103 200.208C655.839 204.115 657.71 207.015 661.958 208.647C664.997 209.798 668.381 209.632 671.294 208.189C675.09 206.324 676.504 204.034 678.38 200.461L678.259 198.695Z" fill="#B2C1C5" fill-opacity="0.2"/>
<path d="M678.259 198.695C680.654 198.18 705.06 198.486 708.623 198.491L744.116 198.498C751.04 198.501 759.298 198.275 766.039 198.884L791.179 224.168C794.254 227.304 801.662 235.357 804.638 237.575C807.064 239.794 810.224 242.337 811.799 245.106L811.611 245.685C806.133 244.288 772.3 205.363 764.195 200.311C735.876 199.952 706.743 201.02 678.38 200.461L678.259 198.695Z" fill="#F9FCFF"/>
<path d="M703.247 93.2509C708.183 92.8691 714.812 93.054 719.888 93.0558L747.709 93.062L834.258 93.1104L834.218 260.002L579.875 260.033L579.934 93.097C595.93 93.0768 613.48 92.7268 629.346 93.2062L628.894 94.4034L581.115 94.4025L581.111 258.697L832.893 258.645L832.929 94.3846L703.623 94.3829L703.247 93.2509Z" fill="#434447"/>
<path d="M742.129 105.767C767.722 106.421 796.103 104.816 821.315 106.139C821.024 122.697 821.677 139.639 821.342 156.563C815.17 157.359 800.408 156.975 793.381 156.972L741.968 156.889C742.599 140.597 741.865 122.411 742.129 105.767Z" fill="#EBF0F3"/>
<path d="M173.423 289.45L173.659 289.649C174.708 296.05 181.999 304.854 187.313 308.511C198.808 316.421 206.069 316.978 219.185 317.836C219.721 322.512 221.956 337.91 222.018 341.726L222.456 342.715C222.419 348.033 224.426 360.307 225.239 366.134L229.507 398.488L240.764 482.971C242.979 499.598 245.835 518.115 247.448 534.631L247.854 535.978C248.139 540.378 253.189 580.436 254.144 582.262C255.577 584.581 255.596 589.701 255.739 592.516C259.605 596.603 277.358 609.341 277.388 613.7C277.399 615.182 276.388 616.811 275.264 617.715C274.224 618.552 273.218 618.843 271.906 618.955C267.215 619.371 262.309 619.103 257.59 619.103L231.592 619.089C221.081 619.076 210.446 619.353 199.977 618.758C189.219 618.149 189.86 606.163 189.363 598.281C189.485 592.812 187.397 578.489 186.672 572.232L181.025 521.91L171.061 433.702C169.157 416.43 167.294 393.813 164.334 377.129C161.33 393.26 157.365 409.775 153.884 425.839L130.182 533.498L122.588 567.837C121.703 571.775 118.82 583.677 118.66 587.159C117.755 593.595 115.07 612.796 110.33 616.56C108.706 617.84 106.758 618.646 104.703 618.879C101.546 619.241 95.365 619.094 92.0686 619.094L69.7231 619.098L48.6654 619.085C42.5221 619.08 32.5327 620.257 28.4065 615.271C24.2255 610.218 27.4996 598.764 30.5227 593.935C33.7647 585.212 37.3254 572.286 40.1582 563.159L58.3452 504.853L116.547 317.96C126.762 319.006 131.568 318.945 141.679 315.73C152.39 312.323 168.624 299.593 173.423 289.45Z" fill="#0065F4"/>
<path d="M117.229 588.443L118.66 587.159C117.755 593.595 115.07 612.796 110.33 616.56C108.706 617.84 106.758 618.646 104.703 618.879C101.546 619.241 95.365 619.094 92.0686 619.094L69.7231 619.098L48.6654 619.085C42.5221 619.08 32.5327 620.257 28.4065 615.271C24.2255 610.218 27.4996 598.764 30.5227 593.935L30.9404 594.973C58.2029 592.619 90.1234 589.544 117.229 588.443Z" fill="#F9FCFF"/>
<path d="M117.229 588.443L118.66 587.159C117.755 593.595 115.07 612.796 110.33 616.56C108.706 617.84 106.758 618.646 104.703 618.879C101.546 619.241 95.365 619.094 92.0686 619.094L69.7231 619.098L48.6654 619.085C42.5221 619.08 32.5327 620.257 28.4065 615.271C24.2255 610.218 27.4996 598.764 30.5227 593.935L30.9404 594.973C30.0776 599.06 28.2133 604.243 27.112 608.683C28.1128 612.416 29.6245 616.404 33.9811 617.142C39.1358 618.015 44.5494 617.742 49.7785 617.746L72.5196 617.751C82.9026 617.751 93.628 617.746 103.979 617.594C114.651 617.438 115.631 596.894 117.229 588.443Z" fill="#434447"/>
<path d="M254.144 582.262C255.577 584.581 255.596 589.701 255.738 592.516C259.605 596.603 277.358 609.341 277.388 613.7C277.399 615.182 276.388 616.811 275.264 617.715C274.224 618.552 273.218 618.843 271.906 618.955C267.214 619.371 262.309 619.103 257.59 619.103L231.592 619.089C221.08 619.076 210.446 619.353 199.977 618.758C189.219 618.149 189.859 606.163 189.363 598.281L190.582 599.082C204.926 595.73 219.289 591.836 233.634 588.501C239.015 587.248 248.355 584.639 253.567 583.959C253.499 583.412 253.877 582.862 254.144 582.262Z" fill="#F9FCFF"/>
<path d="M254.144 582.262C255.577 584.581 255.596 589.701 255.738 592.516C259.605 596.603 277.358 609.341 277.388 613.7C277.399 615.182 276.388 616.811 275.264 617.715C274.224 618.552 273.218 618.843 271.906 618.955C267.214 619.371 262.309 619.103 257.59 619.103L231.592 619.089C221.08 619.076 210.446 619.353 199.977 618.758C189.219 618.149 189.859 606.163 189.363 598.281L190.582 599.082C191.33 603.589 190.796 616.019 197.304 616.829C213.044 618.789 229.677 617.29 245.64 617.751C251.49 617.921 271.216 618.422 275.189 616.05C276.612 613.199 275.543 611.807 273.323 609.73C267.36 604.149 260.581 599.427 254.873 593.555C254.125 590.095 253.9 587.454 253.567 583.959C253.499 583.412 253.877 582.862 254.144 582.262Z" fill="#434447"/>
<path d="M182.982 315.514L183.334 315.907C182.685 317.797 175.297 322.423 173.531 328.206C169.414 341.688 168.788 358.488 164.586 371.589L164.426 372.077L163.94 371.577C163.486 368.158 170.596 336.261 171.535 330.603C172.628 324.027 177.34 319.061 182.982 315.514Z" fill="#434447"/>
<path d="M222.017 341.726C225.032 340.776 230.356 339.908 233.576 339.286C240.96 337.853 248.356 336.478 255.763 335.164C270.792 332.414 286.755 328.914 301.706 326.459L301.672 534.631L338.919 534.595C344.742 534.599 351.996 534.416 357.646 534.689L357.654 396.227C370.235 398.891 384.155 401.051 396.912 403.281L463.666 415.028L463.586 534.595L496.684 534.626C502.848 534.626 510.448 534.823 516.45 534.38C517.873 532.437 516.181 531.524 517.649 530.338L518.271 530.799C518.383 532.339 518.186 533.234 518.965 534.366C521.512 534.698 549.445 534.989 550.837 534.402L551.961 535.785C519.319 536.77 483.414 535.964 450.566 536L247.854 535.978L247.447 534.631C245.834 518.115 242.978 499.598 240.763 482.971L229.507 398.488L225.238 366.134C224.425 360.307 222.419 348.033 222.456 342.715L222.017 341.726Z" fill="#434447"/>
<path d="M222.457 342.715L263.428 334.887C275.499 332.622 288.412 330.42 300.387 327.834L300.381 462.664C300.385 486.529 300.16 510.801 300.472 534.617C294.859 534.617 279.308 534.998 274.645 534.402C274.054 533.565 274.207 532.76 274.212 531.695L273.564 531.377C272.24 532.97 273.704 533.216 272.34 534.532C264.025 534.81 255.742 534.389 247.448 534.631C245.835 518.115 242.979 499.598 240.764 482.971L229.507 398.488L225.239 366.134C224.426 360.307 222.419 348.033 222.457 342.715Z" fill="#F9FCFF"/>
<path d="M273.148 407.05C273.43 407.197 273.873 407.591 274.143 407.809C274.607 410.098 274.336 413.236 274.233 415.647C273.492 415.344 273.748 415.466 273.143 414.875C272.643 412.398 272.975 409.601 273.148 407.05Z" fill="#434447"/>
<path d="M273.179 475.998C273.449 476.145 273.881 476.539 274.139 476.75C274.576 479.037 274.327 482.201 274.236 484.605C273.454 484.314 273.74 484.443 273.108 483.803C272.639 481.324 272.987 478.544 273.179 475.998Z" fill="#434447"/>
<path d="M273.357 379.318L274.064 379.973C274.673 382.429 274.303 385.762 273.997 388.272L273.211 387.497C272.679 384.883 272.897 381.934 273.357 379.318Z" fill="#434447"/>
<path d="M273.156 489.846C273.66 490.096 273.703 490.208 274.134 490.593C274.576 492.898 274.299 496 274.186 498.421C273.66 498.198 273.608 498.068 273.152 497.683C272.652 495.199 272.983 492.401 273.156 489.846Z" fill="#434447"/>
<path d="M273.296 393.163L274.095 394.032C274.507 396.532 274.591 399.612 273.831 402.038L273.216 401.338C272.623 398.805 272.947 395.726 273.296 393.163Z" fill="#434447"/>
<path d="M273.403 448.274L274.06 448.95C274.645 451.327 274.305 454.773 274.048 457.217C273.782 457.011 273.404 456.541 273.162 456.268C272.749 453.614 272.831 450.902 273.403 448.274Z" fill="#434447"/>
<path d="M273.625 434.517C274.871 436.31 274.282 441.024 274.13 443.406L273.226 442.582C272.816 440.276 272.611 436.645 273.625 434.517Z" fill="#434447"/>
<path d="M273.587 351.695L274.019 352.199C274.633 354.578 274.343 358.091 274.04 360.54C273.776 360.341 273.394 359.868 273.155 359.6C272.819 357.386 272.674 353.758 273.587 351.695Z" fill="#434447"/>
<path d="M273.391 365.463L274.058 366.15C274.653 368.79 274.344 371.723 273.976 374.385L273.224 373.653C272.72 370.995 272.885 368.111 273.391 365.463Z" fill="#434447"/>
<path d="M273.347 462.123L274.127 462.901C274.554 465.511 274.536 468.411 273.837 470.976L273.216 470.277C272.7 467.847 272.979 464.584 273.347 462.123Z" fill="#434447"/>
<path d="M273.123 420.887C273.665 421.134 273.686 421.24 274.149 421.649C274.58 423.951 274.297 426.878 274.17 429.27C273.478 429.06 273.715 429.122 273.134 428.537C272.727 426.221 273 423.289 273.123 420.887Z" fill="#434447"/>
<path d="M273.087 503.667L274.065 504.311C274.561 506.728 274.285 509.62 274.164 512.131C273.672 511.974 273.637 511.871 273.197 511.558C272.698 509.239 272.979 506.111 273.087 503.667Z" fill="#434447"/>
<path d="M273.173 517.609C273.448 517.757 273.875 518.146 274.136 518.361C274.568 520.63 274.289 523.526 274.166 525.889C273.515 525.688 273.707 525.715 273.15 525.196C272.699 522.904 273.021 519.995 273.173 517.609Z" fill="#434447"/>
<path d="M358.893 397.77L462.305 416.042L462.323 534.586C428.451 535.163 392.926 534.626 358.921 534.631C358.992 528.821 358.995 522.962 358.96 517.152C358.72 477.38 359.341 437.531 358.893 397.77Z" fill="#F9FCFF"/>
<path d="M389.271 469.288C395.374 469.27 444.718 468.97 446.651 469.892C445.162 471.284 430.127 470.761 427.216 470.743L387.658 470.734C384.382 470.738 371.567 470.922 369.329 470.501L369.056 469.901C371.272 468.729 386.046 469.275 389.271 469.288Z" fill="#434447"/>
<path d="M368.733 439.75C368.847 439.735 368.961 439.721 369.075 439.707C394.643 439.413 420.41 439.349 445.977 439.712C446.272 439.951 446.567 440.189 446.862 440.428C446.769 440.453 446.069 440.652 445.779 440.654C420.497 440.862 395.011 441.027 369.744 440.582C369.407 440.305 369.07 440.027 368.733 439.75Z" fill="#434447"/>
<path d="M75.3084 195.302C65.8349 193.367 56.5745 190.165 51.8252 181.081C47.8511 173.419 51.5481 167.064 55.0379 160.195C58.0537 154.26 53.4396 148.677 52.6125 142.819C49.9735 124.141 65.5131 109.592 83.9319 111.444C91.4741 112.202 99.5417 116.61 107.085 113.637C116.549 109.312 121.726 98.5976 131.35 93.902C136.534 91.3137 142.551 90.956 148.004 92.9124C164.412 98.8379 158.746 114.468 160.038 126.954C160.402 130.483 166.469 136.558 168.15 140.599C171.476 148.592 170.271 154.424 167.352 162.268C174.747 162.07 191.475 162.975 196.63 167.149C209.439 177.517 224.763 197.013 234.087 210.048L244.1 188.448C246.091 184.107 248.015 179.586 250.464 175.499C252.938 171.368 261.335 170.4 265.41 171.932C268.336 170.44 269.821 169.502 273.196 170.541C278.955 172.312 280.889 178.12 276.721 182.687C281.866 184.104 283.639 198.498 282.231 203.198C279.516 212.258 275.311 213.449 267.325 216.706C265.13 227.675 261.596 238.46 257.734 248.95C255.148 255.974 252.491 263.455 245.948 267.762C241.657 270.605 236.385 271.559 231.37 270.398C220.467 267.959 205.858 249.497 198.662 240.728C203.516 254.258 208.993 275.595 213.017 289.704L218.628 309.363C219.404 312.041 221.437 315.398 220.355 318.12C218.34 315.911 199.895 246.862 195.819 236.503C198.867 227.286 203.648 215.025 199.19 205.599C197.714 202.478 193.449 196.354 192.684 193.681L193.202 193.45C195.482 195.373 199.703 203.612 200.874 206.57C204.662 216.149 200.196 227.453 197.178 236.71C206.737 248.041 229.193 281.394 246.97 265.336C256.337 256.874 261.607 231.339 265.659 218.701C253.547 215.16 247.771 213.142 238.453 203.914C235.468 210.459 232.276 218.78 228.578 224.787L228.379 225.102C229.241 220.028 231.42 215.992 233.594 211.353C226.116 201.603 218.751 192.028 210.598 182.94C201.862 173.204 196.784 165.467 182.788 164.333C177.485 163.903 172.352 163.585 166.959 163.424C171.685 169.098 177.757 175.131 182.06 180.555L175.109 185.861C177.914 187.003 180.358 187.979 183.243 188.948C182.435 194.817 179.451 217.063 177.902 221.668L177.362 221.661C176.899 219.513 181.321 193.315 181.892 189.705C178.875 188.6 175.266 187.382 172.368 186.1C174.97 184.209 177.735 182.115 180.378 180.319C176.73 176.546 168.214 167.618 165.127 163.537L159.987 163.816C167.742 177.949 170.636 199.781 172.611 215.452C173.016 218.664 175.895 224.885 176.742 228.639C180.846 246.813 182.939 264.364 177.226 282.432C176.539 284.604 175.361 288.092 173.658 289.649L173.422 289.45C173.47 288.897 177.457 276.988 178.051 274.127C181.329 258.318 178.479 238.301 173.76 223.166C168.337 205.777 152.245 187.207 139.849 174.164C137.677 171.879 134.207 167.781 131.515 166.303C130.408 165.694 129.777 166.047 128.879 166.444C128.597 168.462 129.898 184.209 130.141 187.57C135.472 188.638 140.827 189.585 146.202 190.41L141.456 200.939C148.544 205.748 164.316 216.733 170.153 222.373C168.088 222.273 142.803 203.434 139.777 201.279C141.234 197.932 142.764 194.617 144.365 191.337C139.93 190.854 133.442 189.517 128.953 188.721C128.433 181.242 127.87 173.766 127.264 166.293C125.245 166.73 123.231 167.223 121.282 167.913C99.9473 175.465 52.8063 211.366 43.6325 231.153C41.0276 236.772 40.8748 243.018 43.0453 248.8C44.0468 251.467 45.4668 254.62 47.4644 256.69C55.2608 264.771 87.7798 280.39 99.6814 285.813C100.549 272.721 106.535 261.601 115.258 252.106C103.433 246.107 91.7185 240.256 79.2252 235.742C77.0468 234.955 75.205 234.104 73.1985 232.948C80.8745 234.188 87.4933 237.491 94.5548 240.609C100.103 236.478 123.806 214.949 127.445 214.1C125.153 216.646 122.691 218.769 120.147 221.048C124.35 228.842 127.849 237.481 132.569 245.05L129.784 256.181C134.924 253.039 159.796 243.405 160.615 253.153C159.486 255.104 159.311 254.193 157.402 255.816C159.266 256.147 160.259 256.222 161.939 257.174C165.975 262.663 158.611 262.997 156.854 265.214C157.998 266.571 158.569 267 158.865 268.744C157.978 273.06 155.486 271.364 153.588 273.715C153.677 275.319 153.82 275.701 153.173 277.099C150.006 279.686 124.497 293.753 120.496 294.878C118.67 302.072 116.719 309.809 115.192 317.075L114.744 317.302C113.489 314.176 114.955 312.166 115.635 309.136C116.745 304.194 117.977 299.297 119.232 294.39C106.346 291.859 54.5451 266.712 46.2188 257.162C41.9327 252.245 39.6935 245.265 40.2626 238.773C41.6181 223.311 64.0267 204.741 75.3084 195.302Z" fill="#434447"/>
<path d="M239.223 202.58C241.817 196.232 248.739 180.162 253.122 174.669C255.049 172.254 261.918 172.763 265.028 173.028C263.617 175.318 263.076 176.537 263.77 179.261C263.478 179.363 263.187 179.471 262.898 179.584C258.837 181.186 257.937 185.469 259.641 189.377C262.459 195.835 269.314 192.051 272.011 193.002C271.29 197.304 265.656 195.683 268.311 204.647C266.413 205.137 264.832 205.599 262.968 206.204L263.154 206.194L261.669 207.019L262.273 207.35C265.227 207.314 267.333 206.463 270.105 205.55C269.315 203.019 267.745 199.687 269.471 197.501C274.225 196.423 279.577 204.763 277.824 208.722C276.406 211.929 268.262 215.163 264.99 216.595C255.79 215.916 245.45 209.207 239.223 202.58Z" fill="#F9FCFF"/>
<path d="M254.477 190.44C259.062 192.179 257.909 200.471 256.601 204.161L255.98 203.985C255.144 202.751 256.872 200.409 256.507 197.697C256.127 194.865 255.392 193.08 254.477 190.44Z" fill="#434447"/>
<path d="M265.411 171.932C268.338 170.44 269.822 169.502 273.197 170.541C278.956 172.312 280.89 178.12 276.722 182.687L276.804 183.558L273.735 185.311L272.821 185.679C272.312 187.004 272.431 187.513 272.466 188.972L272.211 186.579C269.725 183.691 266.315 186.254 263.921 180.283L263.77 179.261C263.076 176.537 263.617 175.318 265.028 173.027L265.411 171.932Z" fill="#0065F4"/>
<path d="M272.466 188.972C272.452 189.571 272.636 190.356 272.103 190.739C268.322 193.454 259.476 191.385 260.145 185.708C260.428 183.303 261.9 181.707 263.921 180.283C266.315 186.254 269.725 183.691 272.211 186.579L272.466 188.972Z" fill="#F9FCFF"/>
<path d="M273.734 185.311L276.803 183.558C278.975 186.58 279.696 187.823 280.133 191.536L279.802 191.923L279.298 191.577C277.227 190.18 276.81 190.044 274.346 190.1C273.723 189.206 273.792 186.562 273.734 185.311Z" fill="#F9FCFF"/>
<path d="M149.356 250.8C152.097 250.297 157.168 250.012 159.074 252.311L158.716 253.123C155.975 255.326 148.59 256.825 145.005 257.738C148.797 258.669 160.985 255.531 161.467 259.735C159.561 264.497 147.247 265.566 145.137 267.817C146.514 269.685 151.803 265.55 155.775 266.353C156.913 267.1 156.897 267.221 157.397 268.56C156.234 273.072 146.445 272.821 142.205 276.381C143.894 276.768 149.122 273.877 152.043 274.767L152.368 275.609C151.353 277.596 142.452 281.774 139.885 283.188C135.054 286.074 126.049 291.73 121.128 293.402C114.344 292.013 107.255 289.023 100.8 286.406C102.048 273.33 107.451 262.199 116.573 252.827C120.593 254.734 124.593 256.682 128.574 258.67C134.599 254.211 141.986 251.788 149.356 250.8Z" fill="#F9FCFF"/>
<path d="M144.072 110.67C151.129 109.967 151.15 118.473 152.208 123.828C153.717 131.474 154.807 139.221 150.052 145.952C142.223 149.924 137.726 147.73 132.345 141.434C131.031 139.873 130.206 138.187 129.231 136.398C127.062 135.535 124.257 134.601 122.888 132.626C120.99 129.887 120.918 126.951 123.872 125.015C128.392 124.416 127.196 129.075 130.768 130.069C137.185 126.511 125.475 113.732 144.072 110.67Z" fill="#F9FCFF"/>
<path d="M124.569 130.335C127.808 130.842 129.719 131.169 130.386 134.655C128.471 132.983 125.153 132.301 124.569 130.335Z" fill="#434447"/>
<path d="M118.995 222.021C121.522 225.493 127.579 239.535 131.142 245.399C130.16 249.293 129.224 253.199 128.333 257.115C124.187 255.036 120.027 252.985 115.854 250.961C109.366 247.545 102.785 244.451 96.2557 241.131C103.72 234.714 111.428 228.332 118.995 222.021Z" fill="#F9FCFF"/>
<path d="M129.796 140.886C132.038 142.568 133.855 145.827 137.24 147.678C141.578 150.05 144.148 149.593 148.668 148.559C150.101 153.119 151.237 157.598 152.844 162.13C155.336 163.703 156.205 163.993 159.022 164.975C160.883 168.247 161.847 169.149 159.141 172.206C152.388 175.217 144.925 174.067 138.528 170.559C137.368 169.923 133.24 166.419 133.376 165.154C134.29 156.661 131.833 149.012 129.796 140.886Z" fill="#F9FCFF"/>
<path d="M161.512 171.448C165.772 177.138 170.319 204.145 170.676 212.054C168.841 209.62 164.451 202.146 162.475 199.124C155.691 189.48 148.943 182.026 141.117 173.278C148.673 175.382 154.987 176.791 161.512 171.448Z" fill="#EBF0F3"/>
<path d="M273.734 192.037C281.835 191.237 283.224 198.864 280.409 204.84L279.622 205.189C278.591 203.821 277.678 202.041 276.837 200.51C274.897 196.977 273.088 196.274 273.734 192.037Z" fill="#F9FCFF"/>
<path d="M416.637 155.209C438.044 155.222 460.578 154.861 481.887 155.299L481.865 164.836C486.439 164.809 491.519 164.677 496.04 164.919C496.156 182.563 496.129 200.207 495.964 217.85C510.627 217.671 526.534 217.497 541.192 217.825L541.214 265.608C541.214 273.579 541.541 285.479 540.91 293.137L540.485 293.383L540.565 294.377C539.312 290.677 539.777 269.731 539.782 264.422L539.8 218.995C525.195 219.181 510.595 219.205 495.991 219.068C496.013 232.532 495.825 246.607 496.062 260.022L488.615 259.979C488.717 262.764 489.393 269.026 487.751 271.037C483.637 272.074 461.867 271.268 455.637 271.551L454.455 271.306C452.441 271.53 449.451 271.493 447.384 271.467C430.266 271.255 413.019 271.934 395.938 271.205C393.725 271.111 391.903 268.271 390.806 266.598C390.362 260.796 390.091 205.663 391.611 203.874C393.475 203.23 395.446 203.503 397.463 203.588C397.384 198.76 397.415 193.929 397.555 189.101C397.574 184.506 397.419 178.162 397.741 173.709C404.284 167.749 410.162 161.205 416.637 155.209Z" fill="#0065F4"/>
<path d="M417.612 156.649L480.398 156.629C479.753 169.297 480.505 189.531 480.339 202.93C480.125 203.138 479.91 203.346 479.69 203.554C478.137 203.411 478.639 203.669 477.546 202.751C477.399 201.188 477.909 197.792 476.36 197.022C470.98 194.343 460.959 196.063 454.993 195.561C450.213 195.158 449.635 199.965 449.344 203.542C432.965 203.391 415.531 203.232 399.167 203.59C399.196 195.732 399.633 182.186 399.049 174.774L417.609 174.761L417.612 156.649Z" fill="#F9FCFF"/>
<path d="M481.932 167.712L482.151 166.562C483.637 165.984 492.392 166.188 494.617 166.178L494.608 258.661C492.683 258.703 490.365 258.691 488.476 258.809C488.494 258.691 488.512 258.571 488.525 258.453C488.771 240.752 489.147 222.46 488.404 204.809C488.149 204.48 487.894 204.152 487.643 203.823C485.831 202.975 484.08 203.258 482.026 203.327C482.053 191.84 482.344 179.101 481.932 167.712Z" fill="#F9FCFF"/>
<path d="M416.638 155.209C438.045 155.222 460.579 154.861 481.888 155.299L481.866 164.836C486.44 164.809 491.52 164.677 496.041 164.919C496.157 182.563 496.13 200.207 495.965 217.85C510.627 217.671 526.534 217.497 541.193 217.825L541.215 265.608C541.215 273.579 541.542 285.479 540.911 293.137L540.485 293.383L540.566 294.377C539.313 290.677 539.778 269.731 539.783 264.422L539.801 218.995C525.196 219.181 510.596 219.205 495.992 219.068C496.014 232.532 495.826 246.607 496.063 260.022L488.615 259.979L488.477 258.809C490.365 258.691 492.684 258.703 494.608 258.661L494.617 166.178C492.393 166.188 483.638 165.984 482.152 166.562L481.933 167.712C481.007 176.178 482.922 196.149 481.141 203.144C479.507 198.225 480.751 164.54 480.398 156.63L417.613 156.649L417.609 174.762L399.05 174.774L399.009 175.239C398.597 180.262 399.31 200.185 398.517 203.247L398.094 202.996C397.324 199.515 397.938 193.022 397.556 189.101C397.575 184.506 397.42 178.162 397.742 173.709C404.285 167.749 410.163 161.205 416.638 155.209Z" fill="#434447"/>
<path d="M415.699 157.92C416.663 159.109 416.29 171.043 416.286 173.504L401.195 173.518L400.792 173.016C403.848 169.37 412.005 161.613 415.699 157.92Z" fill="#F9FCFF"/>
<path d="M652.55 325.195C646.498 318.128 645.066 308.427 652.921 302.064C656.403 299.273 660.879 298.028 665.301 298.617C670.207 299.264 674.651 301.839 677.65 305.771C679.763 308.523 680.523 310.82 681.611 314.083C694.904 320.554 698.176 333.75 685.612 344.211C684.467 345.166 681.714 346.446 680.309 347.204C682.215 350.824 691.18 365.892 692.004 368.249C691.261 368.068 690.804 367.689 690.133 367.277C686.423 366.645 667.132 365.677 666.214 365.294C665.391 365.529 665.816 365.469 664.903 365.245C663.489 362.593 661.55 359.195 660.396 356.493C653.409 355.788 648.257 354.3 645.084 347.599C645.912 339.091 648.768 332.829 652.55 325.195Z" fill="#434447"/>
<path d="M671.608 347.84C673.774 348.755 679.203 348.888 679.767 349.664C683.54 354.879 686.852 361.753 690.133 367.277C686.423 366.646 667.132 365.678 666.214 365.294L661.604 355.934C666.223 353.336 667.888 351.607 671.608 347.84Z" fill="#F9FCFF"/>
<path d="M655.615 322.404C656.689 322.875 660.722 325.699 662.503 326.616C667.051 328.955 670.175 329.729 674.964 331.314C675.165 332.907 675.085 338.987 675.421 339.48C682.076 337.875 682.824 343.841 679.015 346.692C675.394 349.403 673.823 344.589 669.087 348.166C667.069 350.248 664.616 352.909 661.935 354.274C658.099 356.786 647.926 352.156 646.963 348.006C645.433 341.376 652.764 328.002 655.615 322.404Z" fill="#F9FCFF"/>
<path d="M652.661 311.328C653.01 311.925 654.631 318.858 655.665 321.14C651.914 320.426 651.619 314.293 652.661 311.328Z" fill="#F1F4FD"/>
<path d="M801.858 476.669C803.953 480.084 809.458 491.69 810.747 495.449C812.023 494.429 816.53 490.629 817.747 490.526C820.876 490.262 824.944 494.908 824.877 497.951C824.828 500.136 817.425 504.835 816.087 505.806C818.226 508.599 821.117 512.802 820.621 516.539C820.482 517.587 820.021 518.437 819.166 519.068C816.436 521.096 815.858 517.949 813.625 522.018C813.106 522.967 812.537 523.629 811.463 523.96C810.46 524.265 809.48 524.081 808.473 523.942C801.607 523.011 805.076 531.838 792.763 522.837C791.68 523.996 790.968 525.035 789.496 525.487C787.392 525.129 787.504 524.318 785.812 523.361C785.826 522.841 785.821 522.439 785.808 521.924C784.998 520.76 785.074 520.751 783.82 520.169C783.283 518.938 783.006 518.316 782.317 517.171L780.764 516.786C779.671 516.378 777.496 515.595 776.677 514.883C769.807 508.922 768.016 494.322 766.978 486.05L768.043 486.449L768.2 486.829C769.301 485.455 797.731 478.361 801.464 477.645L801.858 476.669Z" fill="#F9FCFF"/>
<path d="M810.747 495.449C812.023 494.429 816.53 490.629 817.748 490.526C820.876 490.262 824.945 494.908 824.877 497.951C824.828 500.136 817.425 504.835 816.087 505.806C818.226 508.599 821.118 512.802 820.621 516.539C820.482 517.587 820.021 518.437 819.166 519.068C816.436 521.096 815.859 517.949 813.625 522.018C813.106 522.967 812.538 523.629 811.463 523.96C810.461 524.265 809.481 524.081 808.474 523.942C801.608 523.011 805.076 531.838 792.764 522.837C791.68 523.996 790.969 525.034 789.496 525.486C787.393 525.128 787.504 524.318 785.813 523.36C785.826 522.841 785.822 522.438 785.808 521.924C784.998 520.76 785.074 520.751 783.821 520.169C783.284 518.938 783.006 518.316 782.317 517.17L780.764 516.785C784.425 516.669 785.405 515.841 787.29 512.771L787.715 513.021L793.471 508.622C798.542 504.634 805.162 500.077 809.848 495.991L810.747 495.449Z" fill="#434447"/>
<path d="M810.747 495.449C812.023 494.429 816.53 490.629 817.748 490.526C820.876 490.262 824.945 494.908 824.877 497.951C824.828 500.136 817.425 504.835 816.087 505.806C808.102 499.657 810.618 505.175 806.195 506.191C803.908 505.395 804.087 505.117 802.1 505.726C799.057 508.796 801.2 509.521 796.111 509.105C795.167 509.553 794.733 509.714 793.9 510.39C792.934 515.273 794.335 516.687 795.709 521.463C795.051 521.66 794.281 521.848 793.677 522.134L792.764 522.837C791.68 523.996 790.969 525.034 789.496 525.486C787.393 525.128 787.504 524.318 785.813 523.36C785.826 522.841 785.822 522.438 785.808 521.924C784.998 520.76 785.074 520.751 783.821 520.169C783.284 518.938 783.006 518.316 782.317 517.17L780.764 516.785C784.425 516.669 785.405 515.841 787.29 512.771L787.715 513.021L793.471 508.622C798.542 504.634 805.162 500.077 809.848 495.991L810.747 495.449Z" fill="#0065F4"/>
<path d="M795.709 521.463L796.524 522.089C797.755 519.592 792.804 513.572 796.394 510.358C801.25 509.929 807.055 520.196 804.285 524.175C800.704 526.677 796.918 523.629 793.677 522.134C794.281 521.848 795.051 521.66 795.709 521.463Z" fill="#F9FCFF"/>
<path d="M802.472 506.616C808.103 506.742 816.244 516.781 811.759 522.367C808.026 522.707 806.782 522.761 805.668 518.679C804.562 514.633 802.781 513.115 800.816 509.96C800.977 508.429 801.55 507.892 802.472 506.616Z" fill="#F9FCFF"/>
<path d="M809.538 504.285C815.661 504.737 821.39 513.259 817.729 518.768C817.349 518.764 816.015 518.813 815.746 518.469C813.329 515.344 810.501 510.426 808.697 506.84C808.312 506.08 809.216 504.875 809.538 504.285Z" fill="#F9FCFF"/>
<path d="M766.978 486.05L768.043 486.449L768.2 486.829C769.583 495.405 771.351 508.546 778.177 514.53C780.249 516.352 785.803 515.868 785.244 511.773C779.971 504.209 778.445 506.062 786.569 498.045C787.379 497.244 786.578 493.301 787.526 492.54C788.923 493.955 788.565 493.279 789.026 495.082C788.175 500.547 779.998 503.416 783.418 507.395C785.212 509.49 786.246 509.848 787.289 512.771C785.405 515.841 784.425 516.669 780.764 516.786C779.671 516.378 777.496 515.595 776.677 514.883C769.807 508.922 768.016 494.322 766.978 486.05Z" fill="#434447"/>
<path d="M801.858 476.669C803.953 480.084 809.458 491.69 810.747 495.449L809.848 495.991C807.489 491.681 803.121 482.103 801.465 477.645L801.858 476.669Z" fill="#434447"/>
<path d="M369.197 116.251C386.299 116.59 404.249 116.319 421.449 116.32L519.188 116.323L554.543 116.316C557.233 116.311 568.208 116.078 570.387 116.493L570.566 117.01C569.295 117.806 414.908 117.494 399.018 117.494H370.253C370.736 125.408 370.406 136.75 370.409 145.002L370.401 196.513L370.342 257.349C370.338 261.193 370.832 285.632 369.755 287.468L369.278 287.423C368.793 282.688 369.044 272.533 369.037 267.336L369.023 229.132C368.889 191.505 368.947 153.877 369.197 116.251Z" fill="#434447"/>
<path d="M262.6 551.16C268.366 550.667 279.078 550.976 285.135 550.976L327.12 550.99L460.032 550.999L527.388 550.994C530.504 550.994 549.969 550.77 551.992 551.213L552.551 552.122C547.897 552.632 536.559 552.337 531.497 552.337L490.691 552.323L356.941 552.319L288.554 552.323C285.536 552.323 265.112 552.525 263.247 552.144L262.6 551.16Z" fill="#434447"/>
<path d="M273.029 294.965L388.293 294.982C388.137 317.134 388.099 339.285 388.179 361.437C388.181 369.242 388.721 386.613 387.638 393.447L387.398 393.384C386.801 384.66 387.107 373.06 387.111 364.107L387.111 296.242C349.927 296.759 311.536 296.284 274.257 296.276C274.249 302.283 274.899 322.641 273.532 327.343C272.654 325.823 273.018 298.798 273.029 294.965Z" fill="#434447"/>
<path d="M428.748 314.436L511.356 341.685L535.982 350.015C539.253 351.122 545.434 353.414 548.644 354.048L548.881 355.276C540.032 352.996 527.222 348.251 518.275 345.204C518.36 347.262 518.571 348.955 517.944 350.917L517.514 351.057C516.727 349.214 517.013 346.875 517.085 344.826C488.019 335.613 458.814 325.438 429.736 315.985C430.03 324.655 430.525 399.302 429.431 401.725C428.168 400.303 428.684 375.454 428.681 371.906L428.748 314.436Z" fill="#434447"/>
<path d="M542.002 317.029C542.015 314.705 541.89 313.836 543.725 312.333C545.381 311.691 546.41 311.954 548.147 312.161C557.125 317.42 580.91 342.564 585.332 352.462L584.884 352.028C579.872 347.113 551.029 307.589 543.617 314.436C543.009 317.485 545.153 320.695 546.813 323.174C547.391 324.043 547.986 324.896 548.608 325.733C554.606 328.038 555.59 329.473 559.22 334.671C555.183 331.854 551.517 327.045 546.688 327.297C545.256 328.039 545.582 327.598 545.162 328.86C546.764 331.622 549.579 330.911 552.502 336.121L552.045 336.215C549.024 334.061 544.616 329.011 541.335 332.281C542.472 334.555 548.487 336.494 549.118 339.421L548.608 340.34L548.026 340.272C540.01 329.627 535.234 337.032 538.014 341.009C539.634 341.578 540.176 341.389 541.626 340.399C542.892 340.983 560.849 371.065 561.789 374.324L561.722 374.584L560.822 374.283C558.576 370.529 551.056 357.424 548.881 355.277L548.644 354.048C547.279 351.256 543.649 344.774 541.639 342.665C539.5 342.228 538.949 343.173 536.949 341.891C532.603 336.101 542.592 329.9 546.482 325.838C546.451 325.171 542.651 318.474 542.002 317.029Z" fill="#434447"/>
<path d="M286.845 177.472C290.098 176.883 301.322 177.1 305.294 177.103L341.824 177.15C342.118 190.552 341.813 205.046 341.809 218.573L341.705 287.231C341.023 287.228 341.364 287.28 340.712 286.869C340.239 283.941 340.49 277.774 340.506 274.485L340.515 254.098L340.588 178.435C327.204 178.459 302.487 178.73 287.841 178.251C287.509 177.991 287.177 177.731 286.845 177.472Z" fill="#434447"/>
<path d="M785.813 523.361C784.663 526.919 786.059 529.931 782.505 533.073C779.216 535.982 774.417 534.675 771.866 531.547C770.367 529.712 769.687 527.34 769.986 524.99C770.926 518.012 779.028 519.283 783.821 520.169C785.074 520.751 784.998 520.76 785.808 521.924C785.822 522.439 785.826 522.841 785.813 523.361Z" fill="#0065F4"/>
<path d="M542.002 317.029C538.958 316.469 536.398 315.973 534.133 313.698C531 310.548 532.177 305.676 535.225 302.934C537.033 301.335 539.415 300.54 541.818 300.732C548.214 301.206 548.563 307.207 548.147 312.161C546.41 311.954 545.381 311.691 543.725 312.333C541.89 313.836 542.015 314.705 542.002 317.029Z" fill="#0065F4"/>
<path d="M716.017 298.713C720.005 298.336 726.074 298.517 730.313 298.513L756.156 298.503C764.324 298.503 773.773 298.26 781.941 298.752C782.433 298.782 782.433 299.086 782.872 299.717C780.079 300.064 773.025 299.914 770.031 299.915L745.266 299.912C740.817 299.911 719.718 300.24 716.585 299.779L716.017 298.713Z" fill="#434447"/>
<path d="M765.34 280.413C765.599 280.378 765.855 280.344 766.114 280.31C788.529 280.047 811.181 279.915 833.583 280.354C833.873 280.594 834.164 280.833 834.455 281.073C834.446 281.075 833.833 281.239 833.596 281.242C811.239 281.508 788.645 281.614 766.302 281.204C765.98 280.94 765.662 280.676 765.34 280.413Z" fill="#434447"/>
<path d="M715.816 335.891C716.568 335.721 719.571 335.5 720.175 335.558C726.992 336.216 773.07 334.295 776.203 336.472C773.2 337.696 727.542 336.744 720.175 337.024C718.246 337.097 717.109 337.207 715.816 335.891Z" fill="#434447"/>
<path d="M783.028 317.549C783.592 317.465 784.16 317.396 784.729 317.343C789.473 316.922 832.911 316.872 834.442 318.157C831.483 318.661 828.18 318.595 825.163 318.571C811.526 318.463 797.825 318.898 784.201 318.415C784.201 318.415 783.131 317.625 783.028 317.549Z" fill="#434447"/>
<path d="M715.905 317.549C716.169 317.513 716.438 317.481 716.702 317.453C725.031 316.562 753.452 317.575 763.322 317.476C763.59 317.693 763.863 317.911 764.132 318.129C762.574 318.567 761.151 318.569 759.544 318.56C745.4 318.482 731.19 318.921 717.064 318.404C717.06 318.404 716.008 317.625 715.905 317.549Z" fill="#434447"/>
<path d="M340.467 314.311L341.429 315.026C342.178 318.039 341.967 352.896 341.336 356.425L340.813 356.004C339.827 353.765 340.213 318.981 340.467 314.311Z" fill="#434447"/>
<path d="M454.456 271.306L455.637 271.551C455.646 277.335 456.322 312.386 455.087 315.723C453.869 311.615 454.232 277.564 454.456 271.306Z" fill="#434447"/>
<path d="M369.198 314.311L370.128 314.918C370.631 316.865 370.397 324.727 370.394 327.35L370.293 356.086L369.484 356.041C368.636 354.568 369.063 318.717 369.198 314.311Z" fill="#434447"/>
<path d="M798.908 335.863C806.352 334.968 825.401 335.626 833.435 335.858C833.86 335.871 833.914 336.262 834.267 336.836C829.013 337.285 803.792 337.55 799.508 336.757L798.908 335.863Z" fill="#434447"/>
<path d="M454.383 345.264L455.05 345.78C456.061 348.526 455.489 380.196 455.265 385.031L454.795 385.031C453.676 383.354 454.24 350.166 454.383 345.264Z" fill="#434447"/>
<path d="M716.137 280.411C724.337 279.342 739.976 280.607 748.784 280.121C750.718 280.014 751.984 280.039 753.202 281.288C745.123 281.69 725.89 281.481 717.077 281.207C716.764 280.942 716.451 280.677 716.137 280.411Z" fill="#434447"/>
<path d="M808.631 298.743C808.922 298.701 809.213 298.658 809.499 298.616C813.859 298.88 832.089 297.495 834.416 299.363C831.364 300.409 817.453 299.786 813.604 299.965C811.482 300.064 810.037 300.176 808.631 298.743Z" fill="#434447"/>
<path d="M517.139 356.896C517.667 357.12 517.689 357.234 518.141 357.642C518.562 360.117 518.267 362.816 518.106 365.341C517.85 365.22 517.43 364.858 517.188 364.668C516.714 362.248 517 359.397 517.139 356.896Z" fill="#434447"/>
<path d="M517.345 503.322L518.07 504.101C518.482 506.599 518.63 509.75 517.739 512.14L517.229 511.544C516.714 509.002 516.996 505.887 517.345 503.322Z" fill="#434447"/>
<path d="M517.166 476.848L518.102 477.43C518.581 479.891 518.29 482.881 518.156 485.432C517.65 485.191 517.623 485.088 517.189 484.707C516.773 482.375 517.05 479.278 517.166 476.848Z" fill="#434447"/>
<path d="M517.116 490.266C517.653 490.499 517.671 490.611 518.128 491.023C518.566 493.726 518.311 495.794 518.114 498.497C517.707 498.359 517.546 498.153 517.179 497.862C516.745 495.593 517.009 492.639 517.116 490.266Z" fill="#434447"/>
<path d="M517.493 436.71L518.098 437.419C518.465 439.844 518.621 443.147 517.748 445.452L517.238 444.852C516.777 442.397 516.858 439.128 517.493 436.71Z" fill="#434447"/>
<path d="M517.228 463.438L518.069 464.226C518.624 466.786 518.333 469.391 517.93 471.951C516.31 470.027 517.031 466.066 517.228 463.438Z" fill="#434447"/>
<path d="M517.242 423.582L518.083 424.378C518.54 426.94 518.482 429.569 517.913 432.108L517.206 431.324C516.767 428.924 517.085 426.058 517.242 423.582Z" fill="#434447"/>
<path d="M517.368 516.759C519.002 518.236 518.272 523.271 518.088 525.384L517.399 524.761C516.544 522.752 517.117 518.912 517.368 516.759Z" fill="#434447"/>
<path d="M517.313 396.787L518.078 397.579C518.602 400.114 518.351 402.749 517.989 405.291L517.376 404.716C516.651 402.478 517.062 399.127 517.313 396.787Z" fill="#434447"/>
<path d="M517.465 370.009C518.937 371.454 518.252 376.667 518.078 378.698L517.321 377.866C516.771 375.245 516.946 372.621 517.465 370.009Z" fill="#434447"/>
<path d="M517.501 450.154C518.987 452.244 518.289 455.995 518.065 458.667L517.25 457.808C516.812 455.266 516.897 452.661 517.501 450.154Z" fill="#434447"/>
<path d="M517.443 383.41C518.969 384.891 518.262 389.936 518.088 391.992L517.322 391.177C516.682 388.623 517.067 385.98 517.443 383.41Z" fill="#434447"/>
<path d="M517.354 410.222L518.093 410.97C518.576 413.427 518.375 416.238 517.941 418.698L517.234 417.883C516.822 415.085 517.113 413.009 517.354 410.222Z" fill="#434447"/>
</svg>
